<svg width="36" height="36" viewBox="0 0 36 36" fill="none" xmlns="http://www.w3.org/2000/svg">
<rect x="0.75" y="0.75" width="34.5" height="34.5" rx="17.25" stroke="#ACACAC" stroke-width="1.5"/>
<path fill-rule="evenodd" clip-rule="evenodd" d="M11.5198 18.3599C11.5198 16.0442 11.5198 14.8863 11.9847 14.0082C12.3599 13.2996 12.9394 12.7201 13.6481 12.3449C14.5262 11.8799 15.684 11.8799 17.9998 11.8799C20.3155 11.8799 21.4734 11.8799 22.3515 12.3449C23.0601 12.7201 23.6396 13.2996 24.0148 14.0082C24.4798 14.8863 24.4798 16.0442 24.4798 18.3599C24.4798 20.6757 24.4798 21.8335 24.0148 22.7117C23.6396 23.4203 23.0601 23.9998 22.3515 24.375C21.4734 24.8399 20.3155 24.8399 17.9998 24.8399C15.684 24.8399 14.5262 24.8399 13.6481 24.375C12.9394 23.9998 12.3599 23.4203 11.9847 22.7117C11.5198 21.8335 11.5198 20.6757 11.5198 18.3599ZM17.9998 19.9599C18.8834 19.9599 19.5998 19.2436 19.5998 18.3599C19.5998 17.4763 18.8834 16.7599 17.9998 16.7599C17.1161 16.7599 16.3998 17.4763 16.3998 18.3599C16.3998 19.2436 17.1161 19.9599 17.9998 19.9599ZM17.9998 21.9599C19.988 21.9599 21.5998 20.3482 21.5998 18.3599C21.5998 16.3717 19.988 14.7599 17.9998 14.7599C16.0115 14.7599 14.3998 16.3717 14.3998 18.3599C14.3998 20.3482 16.0115 21.9599 17.9998 21.9599ZM21.9601 15.4799C22.5566 15.4799 23.0401 14.9964 23.0401 14.3999C23.0401 13.8034 22.5566 13.3199 21.9601 13.3199C21.3637 13.3199 20.8801 13.8034 20.8801 14.3999C20.8801 14.9964 21.3637 15.4799 21.9601 15.4799Z" fill="#ACACAC"/>
</svg>
