<svg width="36" height="36" viewBox="0 0 36 36" fill="none" xmlns="http://www.w3.org/2000/svg">
<rect width="36" height="36" rx="18" fill="#9A46C2"/>
<path fill-rule="evenodd" clip-rule="evenodd" d="M11.52 18.36C11.52 16.0443 11.52 14.8864 11.985 14.0083C12.3602 13.2997 12.9397 12.7201 13.6483 12.3449C14.5264 11.88 15.6843 11.88 18 11.88C20.3158 11.88 21.4736 11.88 22.3517 12.3449C23.0604 12.7201 23.6399 13.2997 24.0151 14.0083C24.48 14.8864 24.48 16.0443 24.48 18.36C24.48 20.6757 24.48 21.8336 24.0151 22.7117C23.6399 23.4204 23.0604 23.9999 22.3517 24.3751C21.4736 24.84 20.3158 24.84 18 24.84C15.6843 24.84 14.5264 24.84 13.6483 24.3751C12.9397 23.9999 12.3602 23.4204 11.985 22.7117C11.52 21.8336 11.52 20.6757 11.52 18.36ZM18 19.96C18.8837 19.96 19.6 19.2437 19.6 18.36C19.6 17.4763 18.8837 16.76 18 16.76C17.1164 16.76 16.4 17.4763 16.4 18.36C16.4 19.2437 17.1164 19.96 18 19.96ZM18 21.96C19.9882 21.96 21.6 20.3482 21.6 18.36C21.6 16.3718 19.9882 14.76 18 14.76C16.0118 14.76 14.4 16.3718 14.4 18.36C14.4 20.3482 16.0118 21.96 18 21.96ZM21.96 15.48C22.5565 15.48 23.04 14.9965 23.04 14.4C23.04 13.8035 22.5565 13.32 21.96 13.32C21.3636 13.32 20.88 13.8035 20.88 14.4C20.88 14.9965 21.3636 15.48 21.96 15.48Z" fill="white"/>
</svg>
