<svg width="36" height="36" viewBox="0 0 36 36" fill="none" xmlns="http://www.w3.org/2000/svg">
<rect width="36" height="36" rx="18" fill="#0065A1"/>
<path fill-rule="evenodd" clip-rule="evenodd" d="M14.0691 25.2V15.4836H10.9824V25.2H14.0691ZM12.5257 14.1579C13.6019 14.1579 14.2721 13.4118 14.2721 12.4785C14.2523 11.5254 13.6019 10.8 12.5464 10.8C11.4908 10.8 10.8 11.5254 10.8 12.4785C10.8 13.4109 11.4702 14.1579 12.506 14.1579H12.5257Z" fill="white"/>
<path fill-rule="evenodd" clip-rule="evenodd" d="M15.7776 25.2H18.8642V19.7739C18.8642 19.4832 18.884 19.1934 18.9657 18.9864C19.1885 18.4059 19.6969 17.8047 20.5494 17.8047C21.6669 17.8047 22.1134 18.6957 22.1134 20.0016V25.2H25.2V19.629C25.2 16.6446 23.6774 15.2559 21.6463 15.2559C19.9808 15.2559 19.2504 16.2297 18.8444 16.893H18.865V15.4836H15.7776C15.818 16.3953 15.7776 25.2 15.7776 25.2Z" fill="white"/>
</svg>
