<svg width="36" height="36" viewBox="0 0 36 36" fill="none" xmlns="http://www.w3.org/2000/svg">
<rect width="36" height="36" rx="18" fill="#F6921E"/>
<path d="M16.6569 21.2459C15.753 21.0523 14.9439 20.7571 14.2178 20.2747C13.6622 19.9059 13.5223 19.3075 13.8672 18.8179C14.2121 18.3274 14.8295 18.2402 15.39 18.6026C16.9162 19.5891 19.1016 19.5835 20.6327 18.589C21.1694 18.241 21.7925 18.3354 22.1341 18.8163C22.4725 19.2931 22.3399 19.8955 21.8082 20.2579C21.1019 20.7395 20.3117 21.0331 19.4754 21.2235C19.4926 21.3403 19.5889 21.3883 19.6564 21.4539C20.3306 22.1068 21.0105 22.7548 21.6831 23.41C22.0601 23.7772 22.1448 24.214 21.9382 24.6261C21.6213 25.2573 20.794 25.3925 20.2508 24.8885C19.5618 24.25 18.8794 23.6044 18.2085 22.9484C18.0406 22.7836 17.9599 22.806 17.8109 22.9652C17.2076 23.61 16.5943 24.2468 15.9728 24.8749C15.5769 25.2749 14.9735 25.3045 14.5562 24.9709C14.1396 24.6381 14.045 24.0564 14.3446 23.6252C14.4154 23.5228 14.5068 23.4332 14.5949 23.3428C15.2707 22.6556 15.9465 21.9692 16.6569 21.2459Z" fill="white"/>
<path d="M18.0529 10.8C15.9358 10.8016 14.2351 12.4552 14.2285 14.5177C14.222 16.5826 15.9382 18.2602 18.0595 18.2618C20.1808 18.2634 21.9004 16.589 21.8979 14.5241C21.8954 12.452 20.1882 10.7984 18.0529 10.8ZM18.0579 16.0754C17.1812 16.0706 16.4766 15.3745 16.4823 14.5169C16.4873 13.6681 17.182 12.9929 18.0546 12.9905C18.9403 12.9873 19.6441 13.6673 19.6441 14.5265C19.6449 15.3833 18.9312 16.0794 18.0579 16.0754Z" fill="white"/>
</svg>
