<svg width="36" height="36" viewBox="0 0 36 36" fill="none" xmlns="http://www.w3.org/2000/svg">
<rect x="0.75" y="0.75" width="34.5" height="34.5" rx="17.25" stroke="#ACACAC" stroke-width="1.5"/>
<path d="M24.4798 14.5988C24.0031 14.816 23.4909 14.9618 22.9537 15.0281C23.5022 14.6908 23.924 14.1563 24.1219 13.5197C23.6081 13.8322 23.0393 14.0593 22.4342 14.1811C21.9495 13.6507 21.2588 13.32 20.4945 13.32C19.0266 13.32 17.8366 14.5408 17.8366 16.0467C17.8366 16.2606 17.86 16.4686 17.9053 16.6683C15.6965 16.554 13.7382 15.4691 12.427 13.8189C12.1984 14.2217 12.0675 14.69 12.0675 15.1898C12.0675 16.1354 12.3794 16.97 13.0927 17.459C12.6573 17.4449 12.5401 17.3222 11.7322 17.1184C11.7322 17.13 11.7322 17.1407 11.7322 17.1523C11.7322 18.4734 12.8051 19.5749 14.021 19.826C13.798 19.8882 13.6413 19.9213 13.3989 19.9213C13.2276 19.9213 13.1008 19.9039 12.9384 19.8724C13.2769 20.9557 14.2779 21.7439 15.4404 21.7662C14.5307 22.4972 13.3949 22.9332 12.1491 22.9332C11.9342 22.9332 11.7282 22.9199 11.5198 22.8951C12.696 23.6683 14.0953 24.12 15.5963 24.12C20.4848 24.12 23.1597 19.9653 23.1597 16.3625C23.1597 16.244 23.1581 16.1271 23.1524 16.0094C23.6727 15.6257 24.1235 15.145 24.4798 14.5988Z" fill="#ACACAC"/>
</svg>
