<svg width="36" height="36" viewBox="0 0 36 36" fill="none" xmlns="http://www.w3.org/2000/svg">
<rect width="36" height="36" rx="18" fill="#1DA1F2"/>
<path d="M24.48 14.5988C24.0034 14.816 23.4912 14.9618 22.9539 15.0281C23.5025 14.6908 23.9242 14.1563 24.1221 13.5197C23.6083 13.8322 23.0396 14.0593 22.4345 14.1811C21.9497 13.6507 21.259 13.32 20.4948 13.32C19.0268 13.32 17.8368 14.5408 17.8368 16.0467C17.8368 16.2606 17.8603 16.4686 17.9055 16.6683C15.6968 16.554 13.7385 15.4691 12.4273 13.8189C12.1986 14.2217 12.0678 14.69 12.0678 15.1898C12.0678 16.1354 12.3796 16.97 13.093 17.459C12.6575 17.4449 12.5404 17.3222 11.7325 17.1184C11.7325 17.13 11.7325 17.1407 11.7325 17.1523C11.7325 18.4734 12.8054 19.5749 14.0212 19.826C13.7982 19.8882 13.6415 19.9213 13.3991 19.9213C13.2279 19.9213 13.101 19.9039 12.9387 19.8724C13.2772 20.9557 14.2781 21.7439 15.4407 21.7662C14.531 22.4972 13.3951 22.9332 12.1494 22.9332C11.9345 22.9332 11.7285 22.9199 11.52 22.8951C12.6963 23.6683 14.0955 24.12 15.5966 24.12C20.4851 24.12 23.1599 19.9653 23.1599 16.3625C23.1599 16.244 23.1583 16.1271 23.1527 16.0094C23.6729 15.6257 24.1237 15.145 24.48 14.5988Z" fill="white"/>
</svg>
