<svg width="36" height="36" viewBox="0 0 36 36" fill="none" xmlns="http://www.w3.org/2000/svg">
<rect x="0.75" y="0.75" width="34.5" height="34.5" rx="17.25" stroke="#ACACAC" stroke-width="1.5"/>
<path d="M24.8599 14.2805C24.9665 13.9421 24.8599 13.696 24.3874 13.696H22.8165C22.4203 13.696 22.2367 13.9109 22.1301 14.1418C22.1301 14.1418 21.3219 16.1098 20.1932 17.3857C19.8273 17.7545 19.6595 17.8773 19.4614 17.8773C19.3548 17.8773 19.2172 17.7545 19.2172 17.4161V14.2646C19.2172 13.8652 19.0955 13.68 18.7599 13.68H16.2893C16.0451 13.68 15.8931 13.8644 15.8931 14.0489C15.8931 14.433 16.4571 14.5253 16.5184 15.6014V17.9383C16.5184 18.4459 16.4269 18.5381 16.2288 18.5381C15.6951 18.5381 14.3986 16.5549 13.6214 14.2951C13.4687 13.8499 13.316 13.6807 12.9198 13.6807H11.3338C10.8764 13.6807 10.8 13.8957 10.8 14.1266C10.8 14.542 11.3338 16.6326 13.2857 19.4001C14.5822 21.291 16.4269 22.3055 18.0893 22.3055C19.0955 22.3055 19.218 22.0745 19.218 21.6904V20.2606C19.218 19.7994 19.3094 19.7225 19.63 19.7225C19.859 19.7225 20.2703 19.8452 21.2009 20.7522C22.2683 21.8284 22.4513 22.32 23.0463 22.32H24.6172C25.0746 22.32 25.2885 22.0891 25.166 21.6432C25.0285 21.1973 24.5106 20.5518 23.8393 19.7827C23.4734 19.3521 22.9245 18.8758 22.7567 18.6448C22.5276 18.3377 22.5889 18.2142 22.7567 17.9375C22.7401 17.9397 24.6618 15.2028 24.8599 14.2805Z" fill="#ACACAC"/>
</svg>
