<svg width="61" height="61" viewBox="0 0 61 61" fill="none" xmlns="http://www.w3.org/2000/svg">
<circle cx="30.5" cy="30.5" r="27" fill="#DA2128" stroke="white" stroke-width="7"/>
<path fill-rule="evenodd" clip-rule="evenodd" d="M34.2001 21.6499C33.0649 21.6499 32.1501 22.5652 32.1501 23.6989V25.3009C32.1501 26.4346 33.0649 27.3499 34.2001 27.3499C35.3353 27.3499 36.2501 26.4346 36.2501 25.3009V23.6989C36.2501 22.5652 35.3353 21.6499 34.2001 21.6499ZM30.6501 23.6989C30.6501 21.7366 32.2367 20.1499 34.2001 20.1499C36.1635 20.1499 37.7501 21.7366 37.7501 23.6989V25.3009C37.7501 27.2632 36.1635 28.8499 34.2001 28.8499C32.2367 28.8499 30.6501 27.2632 30.6501 25.3009V23.6989Z" fill="white"/>
<path fill-rule="evenodd" clip-rule="evenodd" d="M26.6001 22.4499C26.032 22.4499 25.3501 23.0548 25.3501 24.0999C25.3501 25.145 26.032 25.7499 26.6001 25.7499C27.1682 25.7499 27.8501 25.145 27.8501 24.0999C27.8501 23.0548 27.1682 22.4499 26.6001 22.4499ZM23.8501 24.0999C23.8501 22.4941 24.9591 20.9499 26.6001 20.9499C28.2411 20.9499 29.3501 22.4941 29.3501 24.0999C29.3501 25.7058 28.2411 27.2499 26.6001 27.2499C24.9591 27.2499 23.8501 25.7058 23.8501 24.0999Z" fill="white"/>
<path fill-rule="evenodd" clip-rule="evenodd" d="M19.8755 34.6058C20.4125 31.0809 22.8828 28.1499 26.1145 28.1499C27.563 28.1499 28.8697 28.7452 29.9123 29.7201C30.2149 30.003 30.2308 30.4776 29.9479 30.7801C29.665 31.0827 29.1904 31.0986 28.8879 30.8157C28.0824 30.0626 27.1303 29.6499 26.1145 29.6499C23.8956 29.6499 21.8298 31.7343 21.3583 34.8327L21.3579 34.8352C21.3312 35.0066 21.3762 35.1594 21.443 35.2574C21.4957 35.3347 21.5363 35.348 21.5443 35.3499H26.1145C26.5288 35.3499 26.8645 35.6857 26.8645 36.0999C26.8645 36.5141 26.5288 36.8499 26.1145 36.8499H21.5409C20.9508 36.8499 20.4814 36.5098 20.2036 36.1024C19.923 35.6907 19.7906 35.154 19.8755 34.6058Z" fill="white"/>
<path fill-rule="evenodd" clip-rule="evenodd" d="M26.2654 37.9562C26.7957 33.4323 30.0519 29.7499 34.201 29.7499C38.3509 29.7499 41.6075 33.4336 42.1369 37.9587L42.1375 37.9639C42.241 38.9043 41.6344 40.0499 40.4841 40.0499H27.9179C26.777 40.0499 26.148 38.9148 26.2654 37.9562ZM34.201 31.2499C31.0328 31.2499 28.2242 34.1222 27.7549 38.1331L27.7543 38.1381C27.7365 38.2815 27.7774 38.404 27.8322 38.4793C27.8588 38.5159 27.8836 38.5346 27.8983 38.5429C27.9108 38.55 27.9178 38.5499 27.9178 38.5499H40.4841C40.4841 38.5499 40.4899 38.55 40.5007 38.5439C40.5141 38.5363 40.5383 38.5182 40.565 38.4813C40.6199 38.4053 40.6626 38.2793 40.6468 38.1301C40.1764 34.1207 37.3685 31.2499 34.201 31.2499Z" fill="white"/>
</svg>
