<svg width="61" height="62" viewBox="0 0 61 62" fill="none" xmlns="http://www.w3.org/2000/svg">
<circle cx="30.5" cy="31" r="27" fill="#DA2128" stroke="white" stroke-width="7"/>
<path fill-rule="evenodd" clip-rule="evenodd" d="M19.0498 22.3778C19.0498 21.4591 19.7731 20.65 20.7331 20.65H35.6665C36.6265 20.65 37.3498 21.4591 37.3498 22.3778V33.1334C37.3498 34.0521 36.6265 34.8611 35.6665 34.8611H30.316L23.9825 39.6005C23.7552 39.7706 23.4512 39.7978 23.1974 39.6707C22.9435 39.5435 22.7831 39.284 22.7831 39V34.8611H20.7331C19.7731 34.8611 19.0498 34.0521 19.0498 33.1334V22.3778ZM20.7331 22.15C20.6665 22.15 20.5498 22.221 20.5498 22.3778V33.1334C20.5498 33.2902 20.6665 33.3611 20.7331 33.3611H23.5331C23.9474 33.3611 24.2831 33.6969 24.2831 34.1111V37.5021L29.6171 33.5106C29.7468 33.4136 29.9045 33.3611 30.0665 33.3611H35.6665C35.7331 33.3611 35.8498 33.2902 35.8498 33.1334V22.3778C35.8498 22.221 35.7331 22.15 35.6665 22.15H20.7331Z" fill="white"/>
<path fill-rule="evenodd" clip-rule="evenodd" d="M38.7589 24.6C38.7589 24.1858 39.0947 23.85 39.5089 23.85H40.4543C41.3854 23.85 42.1498 24.6061 42.1498 25.5412V35.8941C42.1498 36.8292 41.3854 37.5853 40.4543 37.5853H38.368V40.6C38.368 40.888 38.2031 41.1506 37.9436 41.2756C37.6842 41.4007 37.3761 41.3661 37.1508 41.1867L32.6286 37.5853H30.9998C30.5856 37.5853 30.2498 37.2495 30.2498 36.8353C30.2498 36.4211 30.5856 36.0853 30.9998 36.0853H32.8907C33.0604 36.0853 33.2252 36.1429 33.3579 36.2486L36.868 39.044V36.8353C36.868 36.4211 37.2038 36.0853 37.618 36.0853H40.4543C40.5633 36.0853 40.6498 35.9944 40.6498 35.8941V25.5412C40.6498 25.441 40.5633 25.35 40.4543 25.35H39.5089C39.0947 25.35 38.7589 25.0142 38.7589 24.6Z" fill="white"/>
<path d="M24.5998 28.6C25.0416 28.6 25.3998 28.2419 25.3998 27.8C25.3998 27.3582 25.0416 27 24.5998 27C24.158 27 23.7998 27.3582 23.7998 27.8C23.7998 28.2419 24.158 28.6 24.5998 28.6Z" fill="white"/>
<path d="M27.7998 28.6C28.2416 28.6 28.5998 28.2419 28.5998 27.8C28.5998 27.3582 28.2416 27 27.7998 27C27.358 27 26.9998 27.3582 26.9998 27.8C26.9998 28.2419 27.358 28.6 27.7998 28.6Z" fill="white"/>
<path d="M30.9998 28.6C31.4416 28.6 31.7998 28.2419 31.7998 27.8C31.7998 27.3582 31.4416 27 30.9998 27C30.558 27 30.1998 27.3582 30.1998 27.8C30.1998 28.2419 30.558 28.6 30.9998 28.6Z" fill="white"/>
</svg>
