<svg width="61" height="61" viewBox="0 0 61 61" fill="none" xmlns="http://www.w3.org/2000/svg">
<circle cx="30.5" cy="30.5" r="27" fill="#DA2128" stroke="white" stroke-width="7"/>
<path fill-rule="evenodd" clip-rule="evenodd" d="M35.5304 25.9696C35.8233 26.2625 35.8233 26.7374 35.5304 27.0303L30.7304 31.8303C30.4375 32.1232 29.9627 32.1232 29.6698 31.8303C29.3769 31.5374 29.3769 31.0625 29.6698 30.7696L34.4698 25.9696C34.7627 25.6767 35.2375 25.6767 35.5304 25.9696Z" fill="white"/>
<path fill-rule="evenodd" clip-rule="evenodd" d="M39.4014 18.607C39.6817 18.7231 39.8644 18.9966 39.8644 19.2999V21.6357H42.2001C42.5034 21.6357 42.7769 21.8184 42.893 22.0987C43.0091 22.3789 42.9449 22.7015 42.7304 22.916L38.6161 27.0303C38.4755 27.1709 38.2847 27.2499 38.0858 27.2499H35.0001C34.5859 27.2499 34.2501 26.9142 34.2501 26.4999V23.4142C34.2501 23.2153 34.3291 23.0246 34.4698 22.8839L38.5841 18.7696C38.7986 18.5551 39.1211 18.491 39.4014 18.607ZM35.7501 23.7249V25.7499H37.7752L40.3894 23.1357H39.1144C38.7002 23.1357 38.3644 22.7999 38.3644 22.3857V21.1106L35.7501 23.7249Z" fill="white"/>
<path fill-rule="evenodd" clip-rule="evenodd" d="M31.0001 20.8499C29.6631 20.8499 28.4013 21.1135 27.2465 21.6035C26.0877 22.0951 25.0525 22.7969 24.1748 23.6746C23.2974 24.5521 22.5958 25.5868 22.1042 26.745C21.622 27.8938 21.3501 29.1658 21.3501 30.4999C21.3501 31.8369 21.6137 33.0987 22.1036 34.2536C22.5952 35.4123 23.297 36.4475 24.1748 37.3253C25.0522 38.2026 26.0868 38.9042 27.2449 39.3958C28.3938 39.878 29.6658 40.1499 31.0001 40.1499C32.3371 40.1499 33.5989 39.8864 34.7537 39.3964C35.9125 38.9048 36.9476 38.203 37.8254 37.3253C38.7027 36.4479 39.4043 35.4133 39.8959 34.2552C40.3781 33.1063 40.6501 31.8343 40.6501 30.4999C40.6501 29.163 40.3865 27.9012 39.8966 26.7463C39.7348 26.365 39.9128 25.9247 40.2941 25.763C40.6754 25.6012 41.1157 25.7792 41.2774 26.1605C41.8464 27.5016 42.1501 28.9628 42.1501 30.4999C42.1501 32.0394 41.8361 33.5089 41.2785 34.8368L41.2774 34.8394C40.7101 36.1766 39.8992 37.3728 38.8861 38.3859C37.8729 39.3991 36.6768 40.21 35.3396 40.7773C33.9984 41.3463 32.5373 41.6499 31.0001 41.6499C29.4606 41.6499 27.9912 41.3359 26.6632 40.7784L26.6606 40.7773C25.3234 40.21 24.1273 39.3991 23.1141 38.3859C22.101 37.3728 21.2901 36.1766 20.7228 34.8394C20.1538 33.4983 19.8501 32.0371 19.8501 30.4999C19.8501 28.9604 20.1641 27.491 20.7217 26.1631L20.7227 26.1605C21.2901 24.8233 22.101 23.6271 23.1141 22.614C24.1273 21.6008 25.3234 20.7899 26.6606 20.2226C28.0018 19.6536 29.4629 19.3499 31.0001 19.3499C32.5396 19.3499 34.009 19.664 35.337 20.2215C35.7189 20.3819 35.8985 20.8215 35.7382 21.2034C35.5778 21.5853 35.1382 21.7649 34.7563 21.6046C33.6072 21.1221 32.3348 20.8499 31.0001 20.8499Z" fill="white"/>
<path fill-rule="evenodd" clip-rule="evenodd" d="M30.6001 26.4499C29.9735 26.4499 29.3857 26.5639 28.8503 26.7736C28.3113 26.9847 27.8337 27.2844 27.431 27.6561C27.0284 28.0278 26.7101 28.4626 26.4881 28.9455C26.2682 29.4241 26.1501 29.9457 26.1501 30.4999C26.1501 31.0542 26.2682 31.5758 26.4881 32.0544C26.7101 32.5373 27.0284 32.9721 27.431 33.3438C27.8337 33.7155 28.3113 34.0152 28.8503 34.2263C29.3857 34.436 29.9735 34.5499 30.6001 34.5499C31.2267 34.5499 31.8145 34.436 32.3499 34.2263C32.8889 34.0152 33.3665 33.7155 33.7692 33.3438C34.1718 32.9721 34.4901 32.5373 34.7121 32.0544C34.932 31.5758 35.0501 31.0542 35.0501 30.4999C35.0501 29.9457 34.932 29.4241 34.7121 28.9455C34.5391 28.5691 34.704 28.1238 35.0803 27.9508C35.4567 27.7779 35.902 27.9427 36.075 28.3191C36.3845 28.9925 36.5501 29.7277 36.5501 30.4999C36.5501 31.2722 36.3845 32.0073 36.075 32.6808C35.7675 33.3499 35.3295 33.9449 34.7866 34.446C34.2439 34.947 33.6059 35.3454 32.8969 35.623C32.1842 35.9021 31.4106 36.0499 30.6001 36.0499C29.7896 36.0499 29.016 35.9021 28.3033 35.623C27.5943 35.3454 26.9563 34.947 26.4136 34.446C25.8707 33.9449 25.4327 33.3499 25.1252 32.6808C24.8157 32.0073 24.6501 31.2722 24.6501 30.4999C24.6501 29.7277 24.8157 28.9925 25.1252 28.3191C25.4327 27.65 25.8707 27.055 26.4136 26.5539C26.9563 26.0529 27.5943 25.6545 28.3033 25.3769C29.016 25.0978 29.7896 24.9499 30.6001 24.9499C31.4106 24.9499 32.1842 25.0978 32.8969 25.3769C33.2825 25.5279 33.4728 25.963 33.3217 26.3487C33.1707 26.7344 32.7356 26.9246 32.3499 26.7736C31.8145 26.5639 31.2267 26.4499 30.6001 26.4499Z" fill="white"/>
</svg>
