<svg width="61" height="61" viewBox="0 0 61 61" fill="none" xmlns="http://www.w3.org/2000/svg">
<circle cx="30.5" cy="30.5" r="27" fill="#DA2128" stroke="white" stroke-width="7"/>
<path fill-rule="evenodd" clip-rule="evenodd" d="M19.227 25.2159C19.3695 25.0473 19.579 24.95 19.7998 24.95H22.0193C22.7513 24.95 23.4099 25.406 23.6528 26.1074L23.6549 26.1136L24.2325 27.83H38.6264C38.6711 27.83 38.7149 27.834 38.7575 27.8415C39.9367 27.8743 41.0667 28.3493 41.9079 29.1788L42.5187 29.7812C43.4695 30.7035 42.749 32.21 41.5175 32.21H34.8399L30.1878 40.4682C30.0549 40.7041 29.8051 40.85 29.5343 40.85H26.614C26.3861 40.85 26.1706 40.7464 26.0282 40.5685C25.8859 40.3905 25.8322 40.1575 25.8823 39.9352L27.6231 32.21H21.6007C20.7622 32.21 20.0371 31.6047 19.8975 30.7786L19.0603 25.825C19.0235 25.6074 19.0845 25.3845 19.227 25.2159ZM38.5061 29.33H23.6936C23.3716 29.33 23.0855 29.1245 22.9828 28.8193L22.2346 26.5963C22.2044 26.5116 22.1237 26.45 22.0193 26.45H20.6872L21.3765 30.5287C21.3926 30.6242 21.4852 30.71 21.6007 30.71H28.5609C28.7888 30.71 29.0043 30.8137 29.1466 30.9916C29.2889 31.1696 29.3426 31.4026 29.2925 31.6249L27.5518 39.35H29.096L33.7481 31.0919C33.881 30.856 34.1308 30.71 34.4016 30.71H41.3243L40.8546 30.2468C40.2667 29.6671 39.4638 29.3396 38.6264 29.3396C38.5854 29.3396 38.5452 29.3364 38.5061 29.33Z" fill="white"/>
<path fill-rule="evenodd" clip-rule="evenodd" d="M25.2389 18.55H28.8541C29.4765 18.55 30.1084 18.8525 30.4492 19.4027C30.4496 19.4033 30.45 19.4039 30.4504 19.4046L35.6358 27.7026C35.8553 28.0539 35.7485 28.5166 35.3973 28.7361C35.046 28.9556 34.5833 28.8488 34.3638 28.4975L29.1742 20.1929C29.1403 20.138 29.0241 20.05 28.8541 20.05H27.1607L29.3634 28.85H28.3915C27.9965 28.85 27.6728 28.5446 27.6437 28.157L25.2389 18.55Z" fill="white"/>
</svg>
