<svg width="61" height="61" viewBox="0 0 61 61" fill="none" xmlns="http://www.w3.org/2000/svg">
<circle cx="30.5" cy="30.5" r="27" fill="#DA2128" stroke="white" stroke-width="7"/>
<path fill-rule="evenodd" clip-rule="evenodd" d="M30.5398 19.5079C30.8106 19.2973 31.1898 19.2973 31.4606 19.5079C33.658 21.2169 36.4589 21.6251 39.7105 21.2336C39.9235 21.208 40.1373 21.2748 40.2978 21.4171C40.4583 21.5594 40.5502 21.7637 40.5502 21.9782V29.1532C40.5502 33.1622 38.6244 36.9417 35.3405 39.3896C35.3403 39.3898 35.3406 39.3895 35.3405 39.3896L31.4495 42.3005C31.1831 42.4998 30.8173 42.4998 30.5509 42.3005L26.6604 39.39C26.6602 39.3898 26.6607 39.3902 26.6604 39.39C23.3766 36.9421 21.4502 33.1621 21.4502 29.1532V21.9782C21.4502 21.7637 21.5421 21.5594 21.7026 21.4171C21.8631 21.2748 22.0769 21.208 22.2899 21.2336C25.5415 21.6251 28.3423 21.2169 30.5398 19.5079ZM22.9502 22.8078V29.1532C22.9502 32.6758 24.642 36.0148 27.5568 38.1873L27.5579 38.1881L31.0002 40.7633L34.4425 38.1881L34.4435 38.1873C37.3584 36.0148 39.0502 32.6758 39.0502 29.1532V22.8078C36.1041 23.0471 33.3283 22.6314 31.0002 21.0291C28.6721 22.6314 25.8963 23.0471 22.9502 22.8078Z" fill="white"/>
<path fill-rule="evenodd" clip-rule="evenodd" d="M30.5362 22.7108C30.8084 22.4964 31.192 22.4964 31.4642 22.7108C32.2653 23.3416 33.0031 23.788 33.7897 24.0512C34.5694 24.3121 35.4363 24.406 36.5109 24.2772C36.7238 24.2516 36.9375 24.3185 37.098 24.4608C37.2584 24.6031 37.3502 24.8073 37.3502 25.0218V29.3536C37.3502 32.0052 36.1329 34.5101 34.0482 36.1985L31.472 38.283C31.1968 38.5056 30.8036 38.5056 30.5284 38.283L27.9524 36.1987C25.8678 34.5103 24.6502 32.0052 24.6502 29.3536V25.0218C24.6502 24.8073 24.742 24.6031 24.9024 24.4608C25.0629 24.3185 25.2766 24.2516 25.4895 24.2772C26.5641 24.406 27.431 24.3121 28.2107 24.0512C28.9973 23.788 29.7351 23.3416 30.5362 22.7108ZM26.1502 25.8306V29.3536C26.1502 31.5413 27.1542 33.6219 28.8962 35.0328L31.0002 36.7352L33.1042 35.0328C34.8462 33.6219 35.8502 31.5413 35.8502 29.3536V25.8306C34.9282 25.8585 34.0975 25.7359 33.3137 25.4736C32.4827 25.1956 31.7311 24.7694 31.0002 24.2402C30.2693 24.7694 29.5177 25.1956 28.6867 25.4736C27.9029 25.7359 27.0722 25.8585 26.1502 25.8306Z" fill="white"/>
</svg>
