<svg width="61" height="61" viewBox="0 0 61 61" fill="none" xmlns="http://www.w3.org/2000/svg">
<circle cx="30.5" cy="30.5" r="27" fill="#DA2128" stroke="white" stroke-width="7"/>
<path fill-rule="evenodd" clip-rule="evenodd" d="M31.0001 20.85C25.6705 20.85 21.3501 25.1704 21.3501 30.5C21.3501 35.8295 25.6705 40.15 31.0001 40.15C36.3296 40.15 40.6501 35.8295 40.6501 30.5C40.6501 25.1704 36.3296 20.85 31.0001 20.85ZM19.8501 30.5C19.8501 24.342 24.8421 19.35 31.0001 19.35C37.1581 19.35 42.1501 24.342 42.1501 30.5C42.1501 36.6579 37.1581 41.65 31.0001 41.65C24.8421 41.65 19.8501 36.6579 19.8501 30.5Z" fill="white"/>
<path fill-rule="evenodd" clip-rule="evenodd" d="M27.7007 23.5016C26.7568 25.2544 26.1501 27.7274 26.1501 30.5C26.1501 33.2726 26.7568 35.7455 27.7007 37.4983C28.6609 39.2816 29.8618 40.15 31.0001 40.15C32.1384 40.15 33.3393 39.2816 34.2995 37.4983C35.2434 35.7455 35.8501 33.2726 35.8501 30.5C35.8501 27.7274 35.2434 25.2544 34.2995 23.5016C33.3393 21.7183 32.1384 20.85 31.0001 20.85C29.8618 20.85 28.6609 21.7183 27.7007 23.5016ZM26.3799 22.7905C27.4465 20.8098 29.0456 19.35 31.0001 19.35C32.9546 19.35 34.5537 20.8098 35.6202 22.7905C36.7032 24.8018 37.3501 27.5288 37.3501 30.5C37.3501 33.4711 36.7032 36.1982 35.6202 38.2095C34.5537 40.1902 32.9546 41.65 31.0001 41.65C29.0456 41.65 27.4465 40.1902 26.3799 38.2095C25.297 36.1982 24.6501 33.4711 24.6501 30.5C24.6501 27.5288 25.297 24.8018 26.3799 22.7905Z" fill="white"/>
<path fill-rule="evenodd" clip-rule="evenodd" d="M30.9957 27.25C27.6136 27.25 24.5436 26.2769 22.5349 24.6882L23.4653 23.5117C25.1509 24.8448 27.8687 25.75 30.9957 25.75C34.1232 25.75 36.8496 24.8445 38.5349 23.5117L39.4653 24.6882C37.4563 26.2771 34.3773 27.25 30.9957 27.25Z" fill="white"/>
<path fill-rule="evenodd" clip-rule="evenodd" d="M21.7455 35.5034C23.8138 33.9273 27.2241 32.95 31.0001 32.95C34.7761 32.95 38.1864 33.9273 40.2547 35.5034L39.3455 36.6965C37.6213 35.3826 34.5697 34.45 31.0001 34.45C27.4305 34.45 24.3789 35.3826 22.6547 36.6965L21.7455 35.5034Z" fill="white"/>
</svg>
