<svg width="109.99999999999999" height="109.99999999999999" xmlns="http://www.w3.org/2000/svg" xml:space="preserve" enable-background="new 0 0 56.7 56.7" version="1.1">
 <g>
  <title>Layer 1</title>
  <path stroke="#ffffff" id="svg_5" d="m54.83415,107.28295c-29.08368,0 -52.64148,-23.55779 -52.64148,-52.64148c0,-29.08368 23.55779,-52.64148 52.64148,-52.64148c29.08368,0 52.64148,23.55779 52.64148,52.64148c0,29.08368 -23.55779,52.64148 -52.64148,52.64148z" opacity="undefined" stroke-width="4" fill="none"/>
  <g stroke-width="5" id="svg_1">
   <path id="svg_2" d="m55,42.1c-7,0 -12.8,5.7 -12.8,12.8s5.7,12.8 12.8,12.8s12.8,-5.8 12.8,-12.8s-5.8,-12.8 -12.8,-12.8zm0,21c-4.5,0 -8.2,-3.7 -8.2,-8.2s3.7,-8.2 8.2,-8.2s8.2,3.7 8.2,8.2s-3.7,8.2 -8.2,8.2z" fill="#ffffff"/>
   <circle id="svg_3" r="2.9" cy="41.8" cx="68.3" fill="#ffffff"/>
   <path id="svg_4" d="m75.8,34.3c-2.6,-2.7 -6.3,-4.1 -10.5,-4.1l-20.6,0c-8.7,0 -14.5,5.8 -14.5,14.5l0,20.5c0,4.3 1.4,8 4.2,10.7c2.7,2.6 6.3,3.9 10.4,3.9l20.4,0c4.3,0 7.9,-1.4 10.5,-3.9c2.7,-2.6 4.1,-6.3 4.1,-10.6l0,-20.6c0,-4.2 -1.4,-7.8 -4,-10.4zm-0.4,31c0,3.1 -1.1,5.6 -2.9,7.3s-4.3,2.6 -7.3,2.6l-20.4,0c-3,0 -5.5,-0.9 -7.3,-2.6c-1.8,-1.8 -2.7,-4.3 -2.7,-7.4l0,-20.5c0,-3 0.9,-5.5 2.7,-7.3c1.7,-1.7 4.3,-2.6 7.3,-2.6l20.6,0c3,0 5.5,0.9 7.3,2.7c1.7,1.8 2.7,4.3 2.7,7.2l0,20.6l0,0z" fill="#ffffff"/>
  </g>
 </g>

</svg>