<svg width="115" height="115" xmlns="http://www.w3.org/2000/svg" class="feather feather-phone" fill="none" stroke="currentColor" stroke-linecap="round" stroke-linejoin="round" stroke-width="2">
 <g>
  <title>Layer 1</title>
  <g stroke="null" id="svg_3">
   <ellipse stroke="#ffffff" cx="57.5" cy="57.5" id="svg_2" rx="55.16248" ry="55.16308" stroke-width="4"/>
   <path stroke="#ffffff" d="m76.54663,66.99299l0,5.74638a3.83088,3.83092 0 0 1 -4.17565,3.83092a37.90651,37.90692 0 0 1 -16.53022,-5.88045a37.35102,37.35143 0 0 1 -11.49263,-11.49275a37.90651,37.90692 0 0 1 -5.88039,-16.60702a3.83088,3.83092 0 0 1 3.81173,-4.1757l5.74631,0a3.83088,3.83092 0 0 1 3.83088,3.29459a24.59422,24.59449 0 0 0 1.34081,5.38244a3.83088,3.83092 0 0 1 -0.86195,4.04162l-2.43261,2.43263a30.647,30.64733 0 0 0 11.49263,11.49275l2.43261,-2.43263a3.83088,3.83092 0 0 1 4.04157,-0.86196a24.59422,24.59449 0 0 0 5.38239,1.34083a3.83088,3.83092 0 0 1 3.29455,3.88838l-0.00003,-0.00003z" id="svg_1"/>
  </g>
 </g>

</svg>