<svg width="140" height="140" xmlns="http://www.w3.org/2000/svg" version="1.1" enable-background="new 0 0 56.7 56.7" xml:space="preserve">
 <g>
  <title>Layer 1</title>
  <path stroke="#da2128" fill="none" stroke-width="4" opacity="undefined" d="m69.92361,137.7268c-37.46032,0 -67.80319,-30.34286 -67.80319,-67.80319c0,-37.46032 30.34286,-67.80319 67.80319,-67.80319c37.46032,0 67.80319,30.34286 67.80319,67.80319c0,37.46032 -30.34286,67.80319 -67.80319,67.80319z" id="svg_5"/>
  <g stroke="null" id="_x33_35-telegram">
   <g stroke="null" id="svg_12">
    <g stroke="null" id="svg_11">
     <path stroke="#ffffff" id="svg_10" fill="#da2128" d="m96.91062,50.58307l-8.54328,40.29005c-0.64453,2.84358 -2.32544,3.55112 -4.71415,2.21185l-13.01707,-9.59247l-6.28085,6.04111c-0.69486,0.69499 -1.27638,1.2765 -2.61602,1.2765l0.9351,-13.25755l24.12591,-21.80059c1.04894,-0.9351 -0.22744,-1.45336 -1.63033,-0.51813l-29.82549,18.78004l-12.84022,-4.01879c-2.79299,-0.87209 -2.84345,-2.79312 0.58127,-4.13263l50.22331,-19.34875c2.3252,-0.87196 4.36007,0.51801 3.60182,4.06937l0,-0.00001z"/>
    </g>
   </g>
  </g>
 </g>

</svg>