<svg width="115" height="115" xmlns="http://www.w3.org/2000/svg" version="1.1" enable-background="new 0 0 56.7 56.7" xml:space="preserve">
 <g>
  <title>Layer 1</title>
  <path stroke="#da2128" fill="none" stroke-width="4" opacity="undefined" d="m57.54717,112.97391c-30.6225,0 -55.42675,-24.80423 -55.42675,-55.42675c0,-30.6225 24.80423,-55.42675 55.42675,-55.42675c30.6225,0 55.42675,24.80423 55.42675,55.42675c0,30.6225 -24.80423,55.42675 -55.42675,55.42675z" id="svg_5"/>
  <g stroke-opacity="0" stroke="null" id="svg_17">
   <path stroke="#000000" id="svg_15" fill="#da2128" d="m81.52722,47.04451c0,0 -0.47825,-3.60677 -1.94824,-5.19478c-1.86546,-2.08159 -3.95472,-2.09386 -4.91274,-2.21188c-6.86251,-0.53189 -17.15551,-0.53189 -17.15551,-0.53189l-0.02299,0c0,0 -10.293,0 -17.15398,0.53189c-0.95802,0.11803 -3.04575,0.13029 -4.91274,2.21188c-1.46846,1.58802 -1.94824,5.19478 -1.94824,5.19478s-0.49051,4.23216 -0.49051,8.46433l0,3.96698c0,4.23523 0.49051,8.46586 0.49051,8.46586s0.47825,3.60523 1.94824,5.19019c1.867,2.08159 4.31494,2.01875 5.40632,2.23641c3.92253,0.4016 16.67267,0.52576 16.67267,0.52576s10.30373,-0.01839 17.16624,-0.54416c0.95802,-0.12263 3.04728,-0.13489 4.91274,-2.21648c1.46846,-1.58495 1.94824,-5.19019 1.94824,-5.19019s0.49051,-4.23216 0.49051,-8.46586l0,-3.96698c0,-4.2337 -0.49051,-8.46586 -0.49051,-8.46586l-0.00001,0z"/>
   <polygon stroke="#000000" id="svg_16" points="51.37630844116211,48.302968978881836 51.37630844116211,66.69701194763184 66.70467376708984,57.499990463256836 " fill="#000000"/>
  </g>
  <g id="svg_18"/>
  <g id="svg_19"/>
  <g id="svg_6"/>
  <g id="svg_7"/>
  <g id="svg_8"/>
  <g id="svg_9"/>
 </g>

</svg>