<svg xmlns="http://www.w3.org/2000/svg" viewBox="0 0 56 56"><defs><style>.cls-1{fill:#8d0d57;}.cls-2{fill:#fff;}</style></defs><g id="Layer_2" data-name="Layer 2"><g id="Layer_1-2" data-name="Layer 1"><circle class="cls-1" cx="28" cy="28" r="28"/><g id="Layer_11" data-name="Layer 11"><path class="cls-2" d="M12.17,17.77h4a1.15,1.15,0,0,1,1.07.79,42.6,42.6,0,0,0,2.94,6.9c1.75,2.88,2.88,3.95,3.62,3.84s.51-2.09.51-3.62.17-4.12-.57-5.31l-1.13-1.64a.56.56,0,0,1,.45-.9h6.45A1.14,1.14,0,0,1,30.66,19v8.19s.28,1.47,1.86,0a28.23,28.23,0,0,0,4.69-7.24l.57-1.35a1.1,1.1,0,0,1,1-.68H43a1.13,1.13,0,0,1,1.07,1.52l-.45,1.19a43.3,43.3,0,0,1-3.11,5.2c-1.58,2.2-1.92,2.71-1.7,3.28s4.3,4.35,5.32,6.16c.28.51.51,1,.73,1.35a1.17,1.17,0,0,1-1,1.7H39.08a1.09,1.09,0,0,1-1-.57l-.46-.73A29.85,29.85,0,0,0,33,32.46c-1.81-1-1.75.46-1.75.46v3A2.26,2.26,0,0,1,29,38.17H27.89s-6.22,0-11.19-7.4C12.8,25,11.5,21.27,11,19.13A1.17,1.17,0,0,1,12.17,17.77Z"/></g></g></g></svg>