<svg xmlns="http://www.w3.org/2000/svg" viewBox="0 0 56 56"><defs><style>.cls-1{fill:#8d0d57;}.cls-2{fill:#fff;fill-rule:evenodd;}</style></defs><g id="Layer_2" data-name="Layer 2"><g id="Layer_1-2" data-name="Layer 1"><circle class="cls-1" cx="28" cy="28" r="28"/><path class="cls-2" d="M43.6,20.52a3.91,3.91,0,0,0-2.75-2.75c-2.43-.65-12.14-.65-12.14-.65s-9.72,0-12.14.65a3.9,3.9,0,0,0-2.75,2.75A40.38,40.38,0,0,0,13.17,28a40.38,40.38,0,0,0,.65,7.48,3.9,3.9,0,0,0,2.75,2.75c2.42.65,12.14.65,12.14.65s9.71,0,12.14-.65a3.91,3.91,0,0,0,2.75-2.75A41,41,0,0,0,44.24,28,41,41,0,0,0,43.6,20.52Zm-18,12.14V23.34L33.67,28Z"/></g></g></svg>