<svg width="24" height="24" xmlns="http://www.w3.org/2000/svg" data-name="Layer 1">

 <g>
  <title>Layer 1</title>
  <path fill="#ffffff" id="svg_1" d="m24,11.5a3.5,3.5 0 0 0 -2.149,-3.226a10,10 0 0 0 -19.7,0a3.5,3.5 0 0 0 1.119,6.718a10.607,10.607 0 0 0 2.071,2.955a8.908,8.908 0 0 0 -2.272,4.928a1,1 0 0 0 0.868,1.117a1.093,1.093 0 0 0 0.124,0.008a1,1 0 0 0 0.991,-0.875a6.924,6.924 0 0 1 1.815,-3.872a8.948,8.948 0 0 0 5.133,1.747a8.94,8.94 0 0 0 5.119,-1.74a6.922,6.922 0 0 1 1.808,3.862a1,1 0 0 0 0.991,0.876a1.063,1.063 0 0 0 0.125,-0.008a1,1 0 0 0 0.868,-1.116a8.9,8.9 0 0 0 -2.261,-4.918a10.622,10.622 0 0 0 2.082,-2.966a3.5,3.5 0 0 0 3.268,-3.49zm-3.752,1.473a0.993,0.993 0 0 0 -1.117,0.651c-0.916,2.598 -4.001,5.376 -7.131,5.376s-6.215,-2.78 -7.131,-5.378a0.994,0.994 0 0 0 -1.117,-0.651a1.606,1.606 0 0 1 -0.252,0.029a1.5,1.5 0 0 1 -0.27,-2.972a1,1 0 0 0 0.816,-0.878a7.961,7.961 0 0 1 4.084,-6.15a4.075,4.075 0 0 0 -0.022,1.942a4,4 0 0 0 7.688,0.318a0.977,0.977 0 0 0 -0.945,-1.26l-0.151,0a0.867,0.867 0 0 0 -0.806,0.631a2,2 0 1 1 -1.894,-2.631a7.978,7.978 0 0 1 7.954,7.15a1,1 0 0 0 0.816,0.878a1.5,1.5 0 0 1 -0.27,2.972a1.606,1.606 0 0 1 -0.252,-0.027z"/>
  <circle fill="#ffffff" id="svg_2" r="1.5" cy="11.5" cx="9.5"/>
  <circle fill="#ffffff" id="svg_3" r="1.5" cy="11.5" cx="14.5"/>
 </g>
</svg>