<svg width="26" height="25" viewBox="0 0 26 25" fill="none" xmlns="http://www.w3.org/2000/svg">
<path fill-rule="evenodd" clip-rule="evenodd" d="M0.800049 4.49999C0.800049 3.94771 1.24776 3.49999 1.80005 3.49999L24.2 3.49999C24.7523 3.49999 25.2 3.94771 25.2 4.49999C25.2 5.05228 24.7523 5.49999 24.2 5.49999H1.80005C1.24776 5.49999 0.800049 5.05228 0.800049 4.49999Z" fill="#DA2128"/>
<path fill-rule="evenodd" clip-rule="evenodd" d="M0.800049 12.5C0.800049 11.9477 1.24776 11.5 1.80005 11.5H24.2C24.7523 11.5 25.2 11.9477 25.2 12.5C25.2 13.0523 24.7523 13.5 24.2 13.5H1.80005C1.24776 13.5 0.800049 13.0523 0.800049 12.5Z" fill="#DA2128"/>
<path fill-rule="evenodd" clip-rule="evenodd" d="M0.800049 20.5C0.800049 19.9477 1.24776 19.5 1.80005 19.5H24.2C24.7523 19.5 25.2 19.9477 25.2 20.5C25.2 21.0523 24.7523 21.5 24.2 21.5H1.80005C1.24776 21.5 0.800049 21.0523 0.800049 20.5Z" fill="#DA2128"/>
</svg>
