<svg width="24" height="25" viewBox="0 0 24 25" fill="none" xmlns="http://www.w3.org/2000/svg">
<path fill-rule="evenodd" clip-rule="evenodd" d="M2.2929 2.79289C2.68343 2.40237 3.31659 2.40237 3.70711 2.79289L21.7071 20.7929C22.0976 21.1834 22.0976 21.8166 21.7071 22.2071C21.3166 22.5976 20.6834 22.5976 20.2929 22.2071L2.2929 4.2071C1.90238 3.81658 1.90238 3.18341 2.2929 2.79289Z" fill="#DA2128"/>
<path fill-rule="evenodd" clip-rule="evenodd" d="M21.7071 2.79289C21.3166 2.40237 20.6834 2.40237 20.2929 2.79289L2.29289 20.7929C1.90237 21.1834 1.90237 21.8166 2.29289 22.2071C2.68342 22.5976 3.31658 22.5976 3.70711 22.2071L21.7071 4.2071C22.0976 3.81658 22.0976 3.18341 21.7071 2.79289Z" fill="#DA2128"/>
</svg>
