<svg width="543" height="898" viewBox="0 0 543 898" fill="none" xmlns="http://www.w3.org/2000/svg">
<g clip-path="url(#clip0_1_516)">
<path d="M-318.254 1310.66C-331.464 1096.8 -297.503 947.504 -240.644 829.882C-236.85 822.032 -227.45 818.709 -219.466 822.2L-219.192 822.322C-211.925 825.492 -207.948 833.433 -209.944 841.115C-218.918 875.653 -225.835 915.618 -227.343 960.429C-244.133 1111.29 -191.28 1324.61 -188.538 1326.95C-179.396 1367.16 -141.338 1401.33 -108.215 1398.24C-78.0029 1395.8 -66.0581 1364.83 -82.3908 1329.06C-175.42 1130.65 -196.552 978.537 -185.018 847.791C-184.287 839.576 -177.096 833.57 -168.853 833.951C-168.762 833.951 -168.671 833.967 -168.564 833.967C-160.977 834.302 -154.684 840.048 -153.892 847.593C-150.129 883.594 -141.901 924.351 -125.401 968.279C-83.8078 1116.17 59.1336 1302.58 71.6268 1307.21C101.275 1344.18 163.62 1365.7 196.011 1348.86C225.675 1333.9 216.107 1296.73 179.755 1267.66C-19.6959 1106.26 -93.1015 971.007 -127.58 844.087C-129.53 836.893 -125.371 829.516 -118.271 827.245C-117.829 827.108 -117.402 826.97 -116.961 826.818C-110.455 824.654 -103.294 827.55 -100.232 833.692C-83.8535 866.661 -60.9085 902.708 -27.6337 938.679C66.797 1061.61 281.255 1183.74 302.082 1183.48C349.572 1207.32 414.704 1203.13 428.051 1175.69C440.696 1151.06 410.362 1121.26 365.965 1107.3C118.385 1029.05 1.77117 928.756 -75.8699 822.185C-80.2426 816.164 -79.0084 807.811 -73.2037 803.147C-72.7619 802.797 -72.3352 802.446 -71.8934 802.08C-66.6066 797.721 -58.8669 797.858 -53.8239 802.492C-26.2625 827.717 8.23107 853.705 51.5766 876.187C180.958 957.914 409.204 1000.27 421.042 995.44C468.151 1002.56 514.224 982.149 514.513 955.765C515.397 931.805 484.864 912.31 445.663 910.954C221.241 907.021 76.1366 855.488 -35.8153 784.43C-42.2295 780.361 -43.9511 771.871 -39.9898 765.378C-39.5328 764.631 -39.0757 763.869 -38.6339 763.107C-35.1754 757.193 -27.9384 754.861 -21.5547 757.33C13.594 770.971 55.2332 783.165 102.997 789.673C250.555 821.483 465.226 790.542 468.151 787.677C508.861 782.372 544.39 749.572 542.958 718.493C542.074 690.113 512.852 675.542 476.85 687.156C272.723 756.644 119.101 760.866 -11.0115 735.061C-18.538 733.568 -23.2001 726.145 -21.7223 718.6C-21.5852 717.884 -21.4481 717.152 -21.3109 716.42C-20.1073 709.744 -14.1958 705.08 -7.41596 705.126C30.1095 705.355 73.3028 701.575 120.518 689.412C270.392 663.897 464.54 545.985 469.126 536.337C507.246 512.605 533.497 455.646 520.851 421.092C509.683 389.511 473.438 392.483 441.961 424.079C266.08 599.271 124.921 657.861 -5.13062 679.398C-12.7485 680.663 -19.8178 675.343 -21.0671 667.722C-21.1281 667.402 -21.1738 667.082 -21.2347 666.747C-22.3774 660.101 -18.4923 653.73 -12.1848 651.368C22.5983 638.351 61.1294 619.039 100.498 589.165C231.099 507.834 370.749 308.088 372.318 287.466C400.063 243.142 401.982 175.757 375.945 157.025C352.573 139.542 320.121 166.307 302.508 210.189C203.918 452.719 94.3432 558.117 -18.3856 624.542C-25.4398 628.703 -34.4136 626.081 -38.5425 618.994C-38.5882 618.918 -38.6339 618.841 -38.6796 618.765C-42.1381 612.836 -41.0259 605.245 -35.9219 600.658C-8.63483 576.027 21.8518 548.195 47.5849 507.468C136.455 364.102 198.753 154.799 194.183 139.527C204.802 91.1642 187.068 40.256 160.436 38.1831C136.333 35.6529 116.146 67.2343 111.255 107.717C73.0438 424.064 -18.1419 545.543 -49.8473 579.121C-55.6521 585.278 -65.2354 585.736 -71.7258 580.325L-72.5485 579.639C-78.3533 574.838 -80.0292 566.714 -76.7231 559.931C-60.9237 527.45 -46.1298 489.025 -36.0438 444.534C8.62725 300.894 -4.36884 83.3451 -7.43121 79.3059C-9.65564 37.5734 -38.3749 0.47444 -67.6274 1.02315C-94.3051 1.05363 -110.622 29.297 -102.852 65.6491C-55.0427 269.511 -63.1329 420.68 -98.8148 546.198C-100.963 553.758 -109.068 557.843 -116.519 555.328C-117.89 554.871 -119.261 554.429 -120.632 554.002C-126.757 552.142 -130.52 546.091 -130.002 539.705C-127.092 503.886 -127.427 462.84 -134.588 417.708C-146.076 267.057 -242.076 65.9082 -248.734 61.8234C-267.215 22.8649 -318.315 -7.19228 -353.845 1.51089C-386.267 9.10139 -389.253 43.9141 -362.499 77.3854C-216.084 260.731 -168.213 404.128 -156.421 533.197C-155.705 541.031 -161.799 547.677 -169.646 548.088C-170.682 548.149 -171.733 548.21 -172.769 548.286C-179.259 548.759 -185.034 544.461 -186.908 538.211C-197.039 504.45 -212.565 467.123 -236.972 428.271C-306.569 291.276 -491.515 134.741 -510.3 131.449C-550.797 100.05 -618.885 91.5452 -642.927 115.506C-665.125 136.951 -642.988 171.87 -600.282 193.362C-371.168 310.39 -273.644 425.649 -216.328 540.62C-212.427 548.439 -215.855 557.995 -223.732 561.775L-223.991 561.897C-230.466 565.007 -238.298 563.254 -242.762 557.63C-264.29 530.438 -291.79 502.027 -327.655 475.292C-442.212 372.668 -670.214 293.471 -687.964 297.022C-737.251 282.466 -793.334 296.961 -798.042 324.199C-802.932 348.784 -770.724 372.226 -728.475 378.933C-497.99 413.791 -365.363 485.169 -269.394 570.494C-262.096 576.987 -261.425 588.159 -268.068 595.323L-268.342 595.613C-273.766 601.481 -282.451 602.761 -289.413 598.859C-402.554 535.224 -547.993 492.623 -763.304 494.848C-806.619 494.238 -845.714 519.845 -845.425 547.585C-845.684 572.902 -817.498 590.4 -780.521 585.873C-577.124 556.563 -427.692 575.204 -306.371 619.161C-297.625 622.332 -293.177 632.239 -296.376 640.973L-296.498 641.293C-299.225 648.792 -306.919 653.105 -314.796 651.916C-348.695 646.81 -387.242 644.25 -429.749 647.115C-581.649 645.347 -789.906 721.359 -792.892 725.383C-832.52 739.146 -865.322 784.278 -859.975 819.67C-855.465 851.967 -822.449 860.046 -787.438 838.082C-598.043 718.112 -450.881 680.708 -321.591 678.514C-312.876 678.361 -305.578 685.555 -305.335 694.259L-305.319 694.548C-305.106 702.154 -310.271 708.891 -317.691 710.507C-351.362 717.884 -388.704 730.001 -428.165 750.105C-571.761 807.689 -745.037 977.424 -749.318 993.489C-783.994 1029.73 -799.154 1097.24 -778.083 1126.29C-759.252 1152.98 -722.427 1136.06 -696.953 1094.99C-558.719 875.348 -434.137 786.366 -313.851 738.872C-306.157 735.824 -297.138 739.725 -293.877 747.316L-293.771 747.575C-290.83 754.419 -293.1 762.436 -299.332 766.521C-328.386 785.573 -359.193 810.692 -389.07 844.712C-502.18 951.665 -602.172 1180.23 -599.978 1200.43C-618.961 1250.58 -608.586 1312.49 -580.704 1320.55C-555.596 1328.48 -529.177 1295.33 -519.259 1250.83C-465.599 1007.16 -380.736 879.403 -285.269 791.32C-279.038 785.573 -269.317 785.878 -263.33 791.899C-263.238 791.99 -263.162 792.066 -263.071 792.158C-257.632 797.614 -256.794 806.241 -261.288 812.521C-281.826 841.191 -302.166 875.836 -318.94 917.447C-387.851 1054.32 -409.364 1283.7 -405.052 1292.02C-408.526 1337.87 -385.459 1379.87 -358.949 1378.93C-334.755 1378.71 -316.685 1348.89 -318.254 1310.66ZM-242.046 770.865C-286.138 726.755 -286.138 655.224 -242.046 611.114C-197.953 567.003 -126.452 567.003 -82.3604 611.114C-38.2683 655.224 -38.2683 726.755 -82.3604 770.865C-126.468 814.975 -197.954 814.975 -242.046 770.865Z" fill="#F1F1F1"/>
</g>
<defs>
<clipPath id="clip0_1_516">
<rect width="898" height="543" fill="white" transform="translate(543) rotate(90)"/>
</clipPath>
</defs>
</svg>
