<svg width="16" height="16" viewBox="0 0 16 16" fill="none" xmlns="http://www.w3.org/2000/svg">
<path fill-rule="evenodd" clip-rule="evenodd" d="M3.33333 3.41666C3.01117 3.41666 2.75 3.67782 2.75 3.99999V13.3333C2.75 13.6555 3.01117 13.9167 3.33333 13.9167H12.6667C12.9888 13.9167 13.25 13.6555 13.25 13.3333V3.99999C13.25 3.67782 12.9888 3.41666 12.6667 3.41666H3.33333ZM1.25 3.99999C1.25 2.8494 2.18274 1.91666 3.33333 1.91666H12.6667C13.8173 1.91666 14.75 2.8494 14.75 3.99999V13.3333C14.75 14.4839 13.8173 15.4167 12.6667 15.4167H3.33333C2.18274 15.4167 1.25 14.4839 1.25 13.3333V3.99999Z" fill="#DA2128"/>
<path fill-rule="evenodd" clip-rule="evenodd" d="M10.6665 0.583344C11.0807 0.583344 11.4165 0.91913 11.4165 1.33334V4.00001C11.4165 4.41422 11.0807 4.75001 10.6665 4.75001C10.2523 4.75001 9.9165 4.41422 9.9165 4.00001V1.33334C9.9165 0.91913 10.2523 0.583344 10.6665 0.583344Z" fill="#DA2128"/>
<path fill-rule="evenodd" clip-rule="evenodd" d="M5.3335 0.583344C5.74771 0.583344 6.0835 0.91913 6.0835 1.33334V4.00001C6.0835 4.41422 5.74771 4.75001 5.3335 4.75001C4.91928 4.75001 4.5835 4.41422 4.5835 4.00001V1.33334C4.5835 0.91913 4.91928 0.583344 5.3335 0.583344Z" fill="#DA2128"/>
<path fill-rule="evenodd" clip-rule="evenodd" d="M1.25 6.66666C1.25 6.25244 1.58579 5.91666 2 5.91666H14C14.4142 5.91666 14.75 6.25244 14.75 6.66666C14.75 7.08087 14.4142 7.41666 14 7.41666H2C1.58579 7.41666 1.25 7.08087 1.25 6.66666Z" fill="#DA2128"/>
</svg>
