<svg width="16" height="16" xmlns="http://www.w3.org/2000/svg" fill="none">

 <g>
  <title>Layer 1</title>
  <path id="svg_1" fill="#ffffff" d="m3.33333,3.41666c-0.32216,0 -0.58333,0.26116 -0.58333,0.58333l0,9.33331c0,0.3222 0.26117,0.5834 0.58333,0.5834l9.33337,0c0.3221,0 0.5833,-0.2612 0.5833,-0.5834l0,-9.33331c0,-0.32217 -0.2612,-0.58333 -0.5833,-0.58333l-9.33337,0zm-2.08333,0.58333c0,-1.15059 0.93274,-2.08333 2.08333,-2.08333l9.33337,0c1.1506,0 2.0833,0.93274 2.0833,2.08333l0,9.33331c0,1.1506 -0.9327,2.0834 -2.0833,2.0834l-9.33337,0c-1.15059,0 -2.08333,-0.9328 -2.08333,-2.0834l0,-9.33331z" clip-rule="evenodd" fill-rule="evenodd"/>
  <path id="svg_2" fill="#ffffff" d="m10.6665,0.58334c0.4142,0 0.75,0.33579 0.75,0.75l0,2.66667c0,0.41421 -0.3358,0.75 -0.75,0.75c-0.4142,0 -0.75,-0.33579 -0.75,-0.75l0,-2.66667c0,-0.41421 0.3358,-0.75 0.75,-0.75z" clip-rule="evenodd" fill-rule="evenodd"/>
  <path id="svg_3" fill="#ffffff" d="m5.3335,0.58334c0.41421,0 0.75,0.33579 0.75,0.75l0,2.66667c0,0.41421 -0.33579,0.75 -0.75,0.75c-0.41422,0 -0.75,-0.33579 -0.75,-0.75l0,-2.66667c0,-0.41421 0.33578,-0.75 0.75,-0.75z" clip-rule="evenodd" fill-rule="evenodd"/>
  <path id="svg_4" fill="#ffffff" d="m1.25,6.66666c0,-0.41422 0.33579,-0.75 0.75,-0.75l12,0c0.4142,0 0.75,0.33578 0.75,0.75c0,0.41421 -0.3358,0.75 -0.75,0.75l-12,0c-0.41421,0 -0.75,-0.33579 -0.75,-0.75z" clip-rule="evenodd" fill-rule="evenodd"/>
 </g>
</svg>