<svg width="46" height="46" viewBox="0 0 46 46" fill="none" xmlns="http://www.w3.org/2000/svg">
<circle cx="23" cy="23" r="23" fill="#DA2128"/>
<g clip-path="url(#clip0_84_2329)">
<path fill-rule="evenodd" clip-rule="evenodd" d="M11.75 26C12.1642 26 12.5 26.3358 12.5 26.75V31.75C12.5 32.2141 12.6844 32.6592 13.0126 32.9874C13.3408 33.3156 13.7859 33.5 14.25 33.5H31.75C32.2141 33.5 32.6592 33.3156 32.9874 32.9874C33.3156 32.6592 33.5 32.2141 33.5 31.75V26.75C33.5 26.3358 33.8358 26 34.25 26C34.6642 26 35 26.3358 35 26.75V31.75C35 32.612 34.6576 33.4386 34.0481 34.0481C33.4386 34.6576 32.612 35 31.75 35H14.25C13.388 35 12.5614 34.6576 11.9519 34.0481C11.3424 33.4386 11 32.612 11 31.75V26.75C11 26.3358 11.3358 26 11.75 26Z" fill="white"/>
<path fill-rule="evenodd" clip-rule="evenodd" d="M16.2197 19.9697C16.5126 19.6768 16.9874 19.6768 17.2803 19.9697L23 25.6893L28.7197 19.9697C29.0126 19.6768 29.4874 19.6768 29.7803 19.9697C30.0732 20.2626 30.0732 20.7374 29.7803 21.0303L23.5303 27.2803C23.2374 27.5732 22.7626 27.5732 22.4697 27.2803L16.2197 21.0303C15.9268 20.7374 15.9268 20.2626 16.2197 19.9697Z" fill="white"/>
<path fill-rule="evenodd" clip-rule="evenodd" d="M23 11C23.4142 11 23.75 11.3358 23.75 11.75V26.75C23.75 27.1642 23.4142 27.5 23 27.5C22.5858 27.5 22.25 27.1642 22.25 26.75V11.75C22.25 11.3358 22.5858 11 23 11Z" fill="white"/>
</g>
<defs>
<clipPath id="clip0_84_2329">
<rect width="24" height="24" fill="white" transform="translate(11 11)"/>
</clipPath>
</defs>
</svg>
