<svg width="20" height="20" viewBox="0 0 20 20" fill="none" xmlns="http://www.w3.org/2000/svg">
<g clip-path="url(#clip0_220_594)">
<path fill-rule="evenodd" clip-rule="evenodd" d="M1.62433 3.29117C2.07754 2.83796 2.69223 2.58334 3.33317 2.58334H9.1665C9.58072 2.58334 9.9165 2.91913 9.9165 3.33334C9.9165 3.74756 9.58072 4.08334 9.1665 4.08334H3.33317C3.09006 4.08334 2.8569 4.17992 2.68499 4.35183C2.51308 4.52374 2.4165 4.75689 2.4165 5.00001V16.6667C2.4165 16.9098 2.51308 17.1429 2.68499 17.3149C2.8569 17.4868 3.09006 17.5833 3.33317 17.5833H14.9998C15.243 17.5833 15.4761 17.4868 15.648 17.3149C15.8199 17.1429 15.9165 16.9098 15.9165 16.6667V10.8333C15.9165 10.4191 16.2523 10.0833 16.6665 10.0833C17.0807 10.0833 17.4165 10.4191 17.4165 10.8333V16.6667C17.4165 17.3076 17.1619 17.9223 16.7087 18.3755C16.2555 18.8287 15.6408 19.0833 14.9998 19.0833H3.33317C2.69223 19.0833 2.07754 18.8287 1.62433 18.3755C1.17112 17.9223 0.916504 17.3076 0.916504 16.6667V5.00001C0.916504 4.35907 1.17112 3.74438 1.62433 3.29117Z" fill="white"/>
<path fill-rule="evenodd" clip-rule="evenodd" d="M16.6665 2.31555C16.3966 2.31555 16.1377 2.42278 15.9468 2.61365L8.17708 10.3834L7.6973 12.3025L9.61642 11.8228L17.3862 4.05299C17.5771 3.86212 17.6843 3.60325 17.6843 3.33332C17.6843 3.06339 17.5771 2.80452 17.3862 2.61365C17.1953 2.42278 16.9364 2.31555 16.6665 2.31555ZM14.8862 1.55299C15.3584 1.08082 15.9988 0.815552 16.6665 0.815552C17.3343 0.815552 17.9747 1.08082 18.4468 1.55299C18.919 2.02516 19.1843 2.66557 19.1843 3.33332C19.1843 4.00107 18.919 4.64148 18.4468 5.11365L10.5302 13.0303C10.4341 13.1264 10.3136 13.1946 10.1818 13.2276L6.84842 14.0609C6.59284 14.1248 6.32247 14.0499 6.13619 13.8636C5.9499 13.6774 5.87502 13.407 5.93891 13.1514L6.77225 9.81808C6.80521 9.68621 6.8734 9.56577 6.96952 9.46966L14.8862 1.55299Z" fill="white"/>
</g>
<defs>
<clipPath id="clip0_220_594">
<rect width="20" height="20" fill="white"/>
</clipPath>
</defs>
</svg>
