<svg width="16" height="16" viewBox="0 0 16 16" fill="none" xmlns="http://www.w3.org/2000/svg">
<path fill-rule="evenodd" clip-rule="evenodd" d="M14.4 3.5H1.6C1.55057 3.5 1.51731 3.51705 1.5 3.53134V12.4687C1.51731 12.483 1.55057 12.5 1.6 12.5H14.4C14.4494 12.5 14.4827 12.483 14.5 12.4687V3.53134C14.4827 3.51705 14.4494 3.5 14.4 3.5ZM14.4 2H1.6C0.72 2 0 2.675 0 3.5V12.5C0 13.325 0.72 14 1.6 14H14.4C15.28 14 16 13.325 16 12.5V3.5C16 2.675 15.28 2 14.4 2Z" fill="#ACACAC"/>
<path fill-rule="evenodd" clip-rule="evenodd" d="M0.71891 3.5699C0.956445 3.23057 1.42409 3.14804 1.76343 3.38558L8 7.75117L14.2366 3.38558C14.5759 3.14804 15.0436 3.23057 15.2811 3.5699C15.5186 3.90924 15.4361 4.37689 15.0968 4.61442L8.4301 9.28109C8.17186 9.46186 7.82814 9.46186 7.5699 9.28109L0.903237 4.61442C0.5639 4.37689 0.481374 3.90924 0.71891 3.5699Z" fill="#ACACAC"/>
</svg>
