<svg width="20" height="20" viewBox="0 0 20 20" fill="none" xmlns="http://www.w3.org/2000/svg">
<g clip-path="url(#clip0_79_1263)">
<path fill-rule="evenodd" clip-rule="evenodd" d="M9.99984 2.41666C5.81168 2.41666 2.4165 5.81183 2.4165 9.99999C2.4165 14.1881 5.81168 17.5833 9.99984 17.5833C14.188 17.5833 17.5832 14.1881 17.5832 9.99999C17.5832 5.81183 14.188 2.41666 9.99984 2.41666ZM0.916504 9.99999C0.916504 4.9834 4.98325 0.916656 9.99984 0.916656C15.0164 0.916656 19.0832 4.9834 19.0832 9.99999C19.0832 15.0166 15.0164 19.0833 9.99984 19.0833C4.98325 19.0833 0.916504 15.0166 0.916504 9.99999Z" fill="white"/>
<path fill-rule="evenodd" clip-rule="evenodd" d="M0.916504 10C0.916504 9.58579 1.25229 9.25 1.6665 9.25H18.3332C18.7474 9.25 19.0832 9.58579 19.0832 10C19.0832 10.4142 18.7474 10.75 18.3332 10.75H1.6665C1.25229 10.75 0.916504 10.4142 0.916504 10Z" fill="white"/>
<path fill-rule="evenodd" clip-rule="evenodd" d="M9.99984 0.916656C10.2105 0.916656 10.4115 1.00528 10.5536 1.16084C12.7606 3.57703 14.0148 6.71263 14.083 9.98437C14.0832 9.99478 14.0832 10.0052 14.083 10.0156C14.0148 13.2873 12.7606 16.4229 10.5536 18.8391C10.4115 18.9947 10.2105 19.0833 9.99984 19.0833C9.78915 19.0833 9.58817 18.9947 9.44608 18.8391C7.23907 16.4229 5.98483 13.2873 5.91667 10.0156C5.91645 10.0052 5.91645 9.99478 5.91667 9.98437C5.98483 6.71263 7.23907 3.57703 9.44608 1.16084C9.58817 1.00528 9.78915 0.916656 9.99984 0.916656ZM7.41668 9.99999C7.4746 12.6167 8.38603 15.1347 9.99984 17.1761C11.6136 15.1347 12.5251 12.6167 12.583 9.99999C12.5251 7.38324 11.6136 4.86525 9.99984 2.82385C8.38603 4.86525 7.4746 7.38324 7.41668 9.99999Z" fill="white"/>
</g>
<defs>
<clipPath id="clip0_79_1263">
<rect width="20" height="20" fill="white"/>
</clipPath>
</defs>
</svg>
