<svg width="16" height="17" viewBox="0 0 16 17" fill="none" xmlns="http://www.w3.org/2000/svg">
<g clip-path="url(#clip0_157_708)">
<path fill-rule="evenodd" clip-rule="evenodd" d="M8.00009 2.25C4.54831 2.25 1.75008 5.04822 1.75008 8.5C1.75008 11.9518 4.54831 14.75 8.00009 14.75C11.4519 14.75 14.2501 11.9518 14.2501 8.5C14.2501 5.04822 11.4519 2.25 8.00009 2.25ZM0.250084 8.5C0.250084 4.21979 3.71988 0.75 8.00009 0.75C12.2803 0.75 15.7501 4.21979 15.7501 8.5C15.7501 12.7802 12.2803 16.25 8.00009 16.25C3.71988 16.25 0.250084 12.7802 0.250084 8.5Z" fill="#ACACAC"/>
<path fill-rule="evenodd" clip-rule="evenodd" d="M6.56812 3.84569C6.07401 4.99861 5.75008 6.64364 5.75008 8.5C5.75008 10.3564 6.07401 12.0014 6.56812 13.1543C6.81575 13.7321 7.09135 14.1518 7.35918 14.4161C7.62378 14.6772 7.8395 14.75 8.00009 14.75C8.16068 14.75 8.37639 14.6772 8.64099 14.4161C8.90882 14.1518 9.18442 13.7321 9.43204 13.1543C9.92615 12.0014 10.2501 10.3564 10.2501 8.5C10.2501 6.64364 9.92615 4.99861 9.43204 3.84569C9.18442 3.2679 8.90882 2.84823 8.64099 2.58391C8.37639 2.32276 8.16068 2.25 8.00009 2.25C7.8395 2.25 7.62378 2.32276 7.35918 2.58391C7.09135 2.84823 6.81575 3.2679 6.56812 3.84569ZM6.30552 1.51628C6.75875 1.06899 7.33225 0.75 8.00009 0.75C8.66792 0.75 9.24142 1.06899 9.69465 1.51628C10.1446 1.9604 10.5155 2.56586 10.8108 3.25481C11.4024 4.63539 11.7501 6.49037 11.7501 8.5C11.7501 10.5096 11.4024 12.3646 10.8108 13.7452C10.5155 14.4341 10.1446 15.0396 9.69465 15.4837C9.24142 15.931 8.66792 16.25 8.00009 16.25C7.33225 16.25 6.75875 15.931 6.30552 15.4837C5.85552 15.0396 5.48467 14.4341 5.1894 13.7452C4.59773 12.3646 4.25008 10.5096 4.25008 8.5C4.25008 6.49037 4.59773 4.63539 5.1894 3.25481C5.48467 2.56586 5.85552 1.9604 6.30552 1.51628Z" fill="#ACACAC"/>
<path fill-rule="evenodd" clip-rule="evenodd" d="M0.25 8.80435C0.25 8.39014 0.585786 8.05435 1 8.05435H15C15.4142 8.05435 15.75 8.39014 15.75 8.80435C15.75 9.21856 15.4142 9.55435 15 9.55435H1C0.585786 9.55435 0.25 9.21856 0.25 8.80435Z" fill="#ACACAC"/>
</g>
<defs>
<clipPath id="clip0_157_708">
<rect width="16" height="16" fill="white" transform="translate(0 0.5)"/>
</clipPath>
</defs>
</svg>
