<svg width="16" height="17" xmlns="http://www.w3.org/2000/svg" fill="none">
 <defs>
  <clipPath id="clip0_157_708">
   <rect id="svg_1" x="0" y="0.5" fill="white" height="16" width="16"/>
  </clipPath>
 </defs>
 <g>
  <title>Layer 1</title>
  <g id="svg_2" clip-path="url(#clip0_157_708)">
   <path id="svg_3" fill="#da2128" d="m8.00009,2.25c-3.45178,0 -6.25001,2.79822 -6.25001,6.25c0,3.4518 2.79823,6.25 6.25001,6.25c3.45181,0 6.25001,-2.7982 6.25001,-6.25c0,-3.45178 -2.7982,-6.25 -6.25001,-6.25zm-7.75001,6.25c0,-4.28021 3.4698,-7.75 7.75001,-7.75c4.28021,0 7.75001,3.46979 7.75001,7.75c0,4.2802 -3.4698,7.75 -7.75001,7.75c-4.28021,0 -7.75001,-3.4698 -7.75001,-7.75z" clip-rule="evenodd" fill-rule="evenodd"/>
   <path id="svg_4" fill="#da2128" d="m6.56812,3.84569c-0.49411,1.15292 -0.81804,2.79795 -0.81804,4.65431c0,1.8564 0.32393,3.5014 0.81804,4.6543c0.24763,0.5778 0.52323,0.9975 0.79106,1.2618c0.2646,0.2611 0.48032,0.3339 0.64091,0.3339c0.16059,0 0.3763,-0.0728 0.6409,-0.3339c0.26783,-0.2643 0.54343,-0.684 0.79105,-1.2618c0.49411,-1.1529 0.81806,-2.7979 0.81806,-4.6543c0,-1.85636 -0.32395,-3.50139 -0.81806,-4.65431c-0.24762,-0.57779 -0.52322,-0.99746 -0.79105,-1.26178c-0.2646,-0.26115 -0.48031,-0.33391 -0.6409,-0.33391c-0.16059,0 -0.37631,0.07276 -0.64091,0.33391c-0.26783,0.26432 -0.54343,0.68399 -0.79106,1.26178zm-0.2626,-2.32941c0.45323,-0.44729 1.02673,-0.76628 1.69457,-0.76628c0.66783,0 1.24133,0.31899 1.69456,0.76628c0.44995,0.44412 0.82085,1.04958 1.11615,1.73853c0.5916,1.38058 0.9393,3.23556 0.9393,5.24519c0,2.0096 -0.3477,3.8646 -0.9393,5.2452c-0.2953,0.6889 -0.6662,1.2944 -1.11615,1.7385c-0.45323,0.4473 -1.02673,0.7663 -1.69456,0.7663c-0.66784,0 -1.24134,-0.319 -1.69457,-0.7663c-0.45,-0.4441 -0.82085,-1.0496 -1.11612,-1.7385c-0.59167,-1.3806 -0.93932,-3.2356 -0.93932,-5.2452c0,-2.00963 0.34765,-3.86461 0.93932,-5.24519c0.29527,-0.68895 0.66612,-1.29441 1.11612,-1.73853z" clip-rule="evenodd" fill-rule="evenodd"/>
   <path id="svg_5" fill="#da2128" d="m0.25,8.80435c0,-0.41421 0.33579,-0.75 0.75,-0.75l14,0c0.4142,0 0.75,0.33579 0.75,0.75c0,0.41421 -0.3358,0.75 -0.75,0.75l-14,0c-0.41421,0 -0.75,-0.33579 -0.75,-0.75z" clip-rule="evenodd" fill-rule="evenodd"/>
  </g>
 </g>
</svg>