<svg width="162" height="64" viewBox="0 0 162 64" fill="none" xmlns="http://www.w3.org/2000/svg">
<g clip-path="url(#clip0_1_489)">
<path d="M58.7749 38.6605C49.1846 39.2534 42.4896 37.729 37.215 35.1767C36.863 35.0064 36.714 34.5845 36.8705 34.2261L36.876 34.2138C37.0182 33.8876 37.3743 33.7091 37.7188 33.7987C39.2676 34.2015 41.0597 34.512 43.0693 34.5797C49.8346 35.3333 59.4003 32.9609 59.5056 32.8378C61.3086 32.4275 62.8411 30.7191 62.7023 29.2323C62.593 27.8762 61.2041 27.34 59.5999 28.0731C50.7027 32.249 43.8813 33.1975 38.0181 32.6798C37.6497 32.647 37.3804 32.3242 37.3975 31.9542C37.3975 31.9501 37.3982 31.946 37.3982 31.9412C37.4132 31.6007 37.6709 31.3182 38.0092 31.2826C39.6237 31.1137 41.4514 30.7444 43.4213 30.0038C50.0533 28.1367 58.4126 21.7205 58.6204 21.1597C60.2779 19.8288 61.243 17.0304 60.4878 15.5764C59.8172 14.2449 58.1502 14.6744 56.8467 16.3061C49.6091 25.2589 43.5436 28.5539 37.852 30.1016C37.5294 30.1891 37.1986 30.0024 37.0968 29.6837C37.0906 29.6639 37.0845 29.6447 37.0776 29.6249C36.9806 29.3329 37.1104 29.0114 37.3859 28.874C38.8643 28.1388 40.4808 27.1089 42.0939 25.6152C47.6064 21.3765 53.0833 11.75 53.0717 10.8152C54.1407 8.68348 53.9527 5.75985 52.7224 5.16076C51.6179 4.59313 50.2816 5.95476 49.6555 7.94761C46.1464 19.0608 41.6489 24.2953 36.8698 27.7804C36.5999 27.9767 36.2253 27.9213 36.0161 27.6608C36.0004 27.6409 35.9847 27.6218 35.9683 27.6019C35.7728 27.3646 35.779 27.0172 35.9868 26.7909C37.118 25.5537 38.2833 24.0054 39.2915 22.0597C42.9565 16.2521 44.8559 6.00673 44.6393 5.47535C44.9585 3.36076 44.0433 1.29267 42.8601 1.27968C41.7856 1.24001 40.9114 2.61053 40.8506 4.37018C40.6742 14.4439 38.3633 20.9573 35.1768 25.9825C34.9943 26.2704 34.6136 26.3477 34.3224 26.1699C34.2889 26.1494 34.2547 26.1288 34.2206 26.109C33.9554 25.9538 33.8508 25.6289 33.9615 25.3424C34.5733 23.7646 35.1201 21.8956 35.4119 19.7516C36.8384 13.1281 35.4509 3.49206 35.3224 3.36076C35.0845 1.5334 33.6136 -0.0614305 32.2199 0.00285522C30.9472 0.0425209 30.2938 1.35422 30.8146 2.97026C33.9308 12.133 34.1201 19.0287 32.9629 24.8691C32.8959 25.207 32.5631 25.4162 32.2247 25.3499C32.1926 25.3437 32.1598 25.3376 32.127 25.3314C31.8276 25.2774 31.6185 25.012 31.6205 24.7077C31.6308 23.0233 31.4612 21.0845 30.9158 18.9651C29.7716 12.2377 24.484 3.52284 24.0513 3.31699C22.9871 1.60589 20.4329 0.427551 18.8833 0.99518C17.4671 1.49647 17.6004 3.12345 19.0173 4.53637C26.8735 12.4312 29.5009 18.7674 30.4667 24.6051C30.5235 24.9471 30.2849 25.2644 29.9432 25.3205C29.9288 25.3232 29.9145 25.3253 29.8994 25.328C29.6014 25.3793 29.3157 25.2049 29.2098 24.9218C28.6261 23.3605 27.7601 21.6309 26.4204 19.8637C22.7732 14.0014 13.8158 7.73287 12.891 7.66243C10.9034 6.41707 7.88161 6.33089 7.04158 7.49966C6.2576 8.54875 7.45784 10.0054 9.42565 10.796C20.3016 15.2215 25.0281 20.14 28.0068 25.2001C28.1934 25.5168 28.0758 25.9196 27.758 26.1049C27.7546 26.107 27.7512 26.109 27.7478 26.1111C27.4819 26.2663 27.1415 26.2164 26.9357 25.9873C25.8312 24.7624 24.5831 23.394 22.7568 22.2389C16.3277 18.2497 6.94179 15.4533 6.25691 15.6585C4.08815 15.1818 1.80523 15.9779 1.71227 17.1733C1.59881 18.2552 3.01504 19.1614 4.83043 19.3809C19.0166 21.0961 24.4642 25.1892 25.9699 26.6124C26.2461 26.8729 26.2666 27.3031 26.0239 27.5944L25.9932 27.6314C25.7779 27.8919 25.4136 27.9671 25.1094 27.8187C23.6529 27.1095 21.9297 26.4455 19.9346 25.9928C13.4932 23.9876 3.73751 24.5709 3.55638 24.7084C1.68493 24.8083 0.021276 26.0974 0.0458822 27.4105C0.0472492 28.6079 1.31379 29.3404 2.94395 28.9916C12.0859 26.8456 18.8649 27.2087 24.4936 28.8104C24.8326 28.9068 25.0158 29.2706 24.903 29.6051C24.8825 29.6666 24.8627 29.7282 24.8435 29.7897C24.7601 30.0646 24.4888 30.2336 24.2024 30.2103C22.5962 30.0797 20.7555 30.0947 18.7316 30.4162C11.9758 30.9318 2.95557 35.241 2.77239 35.5399C1.02535 36.3694 -0.322528 38.6632 0.0677545 40.258C0.408141 41.7133 1.96927 41.8474 3.47025 40.6465C11.6922 34.0743 18.1226 31.9255 23.9105 31.3962C24.2619 31.364 24.5599 31.6376 24.5783 31.9898C24.5811 32.0363 24.5838 32.0835 24.5872 32.13C24.6084 32.4213 24.4157 32.6805 24.1354 32.7646C22.6214 33.2194 20.9475 33.9163 19.2053 35.0119C13.0619 38.1359 6.04229 46.4377 5.89465 47.2809C4.48663 49.0987 4.10523 52.155 5.17971 53.2342C6.1414 54.2306 7.70732 53.2369 8.67106 51.32C13.919 41.0356 19.0877 36.658 24.2434 34.0852C24.594 33.9102 25.0226 34.064 25.1921 34.4176L25.1976 34.4292C25.337 34.7199 25.2584 35.0714 25.0062 35.2718C23.7868 36.2381 22.5128 37.4725 21.3139 39.0824C16.7118 44.2246 13.1603 54.459 13.3196 55.2557C12.6668 57.4681 13.3169 59.9855 14.5383 60.1969C15.6408 60.4164 16.692 58.9706 16.9928 57.0742C18.5559 46.7283 21.7568 40.775 25.5831 36.4672C25.8743 36.1396 26.3753 36.1095 26.6965 36.4077L26.7095 36.42C26.9727 36.6635 27.0301 37.0533 26.8551 37.3659C24.0014 42.4444 22.091 48.9728 22.1908 58.6376C22.1635 60.5819 23.3118 62.3367 24.5558 62.3238C25.6911 62.3354 26.4757 61.0702 26.2727 59.4104C24.9584 50.2804 25.7943 43.5728 27.7655 38.127C27.9077 37.7345 28.352 37.5348 28.7436 37.6784L28.758 37.6839C29.0943 37.8063 29.2877 38.1516 29.2344 38.5052C29.0054 40.0269 28.8906 41.7571 29.0191 43.6652C28.9398 50.4836 32.3484 59.8317 32.5289 59.9657C33.1461 61.7445 35.17 63.2169 36.7571 62.9769C38.2054 62.7744 38.5677 61.2924 37.5827 59.7209C32.2029 51.2194 30.5255 44.6137 30.4271 38.8102C30.4203 38.419 30.7429 38.0915 31.1332 38.0805L31.1462 38.0798C31.4872 38.0703 31.7893 38.3021 31.8618 38.6352C32.1926 40.1465 32.736 41.8228 33.6375 43.594C36.2198 50.0397 43.8314 57.8176 44.5518 58.0098C46.1772 59.5663 49.2044 60.2468 50.5072 59.301C51.704 58.4557 50.9453 56.8027 49.1033 55.6592C39.2539 49.4543 35.2636 43.8621 33.1338 38.4628C32.9971 38.1174 33.1721 37.7126 33.5125 37.5662L33.5241 37.5614C33.831 37.4295 34.1905 37.5314 34.3737 37.8111C35.2281 39.1152 36.3545 40.4981 37.8801 41.8392C42.6762 46.9164 52.9261 51.4048 53.8318 51.3063C56.0805 52.1584 58.8569 51.6927 59.2185 50.4412C59.5739 49.3141 58.0873 48.1282 56.0921 47.683C45.1649 45.2744 39.4357 41.4651 35.4857 37.1798C35.2281 36.9001 35.2417 36.4638 35.5117 36.195C35.5158 36.1909 35.5192 36.1875 35.5233 36.1834C35.768 35.9393 36.1549 35.9016 36.4365 36.1034C37.7222 37.0253 39.2758 37.9383 41.1418 38.6912C47.2797 41.7845 57.5658 42.7501 57.939 42.5566C59.9949 42.7125 61.8787 41.6771 61.8363 40.4871C61.8268 39.4011 60.4891 38.59 58.7749 38.6605ZM34.5685 35.2396C32.5904 37.2188 29.3827 37.2188 27.4046 35.2396C25.4266 33.2605 25.4266 30.051 27.4046 28.0718C29.3827 26.0926 32.5904 26.0926 34.5685 28.0718C36.5465 30.0516 36.5465 33.2605 34.5685 35.2396Z" fill="#DA2128"/>
<path d="M28.7218 29.3896C27.471 30.6411 27.471 32.6709 28.7218 33.9224C29.9726 35.1739 32.0013 35.1739 33.2521 33.9224C34.5029 32.6709 34.5029 30.6411 33.2521 29.3896C32.0013 28.138 29.9726 28.138 28.7218 29.3896Z" fill="#DA2128"/>
<path d="M73.1299 43.3387V19.8211C73.1299 19.4758 73.4094 19.196 73.7546 19.196H77.7395C78.0846 19.196 78.3642 19.4758 78.3642 19.8211V30.1171H78.6902L87.4104 19.4265C87.5293 19.2808 87.7064 19.1967 87.8943 19.1967H92.8696C93.2681 19.1967 93.4861 19.6611 93.2318 19.9682L84.6853 30.2867L93.48 43.2286C93.6925 43.5412 93.4683 43.9645 93.091 43.9645H88.0536C87.8444 43.9645 87.6496 43.8599 87.5341 43.6862L80.939 33.7821L78.3649 36.9259V43.3394C78.3649 43.6848 78.0853 43.9645 77.7401 43.9645H73.7553C73.4094 43.9638 73.1299 43.6841 73.1299 43.3387Z" fill="black"/>
<path d="M106.449 19.1968H110.373C110.719 19.1968 110.998 19.4765 110.998 19.8219V36.4664C110.998 38.0626 110.641 39.4495 109.928 40.6265C109.216 41.8041 108.226 42.7103 106.961 43.3477C105.696 43.9844 104.225 44.3031 102.55 44.3031C101.059 44.3031 99.7072 44.0384 98.4947 43.5105C97.2815 42.9825 96.3211 42.1762 95.6123 41.0915C94.9979 40.1519 94.652 39.0016 94.5761 37.6406C94.5563 37.2898 94.8502 36.9978 95.2015 36.9978H99.1966C99.4988 36.9978 99.7687 37.2132 99.8091 37.5127C99.8679 37.9497 99.9895 38.3361 100.174 38.6726C100.428 39.1363 100.778 39.4912 101.226 39.7367C101.673 39.9829 102.203 40.106 102.815 40.106C103.46 40.106 104.006 39.9672 104.453 39.6889C104.901 39.4105 105.24 39.0016 105.474 38.4613C105.708 37.9217 105.825 37.2563 105.825 36.4657V19.8212C105.825 19.4765 106.104 19.1968 106.449 19.1968Z" fill="black"/>
<path d="M136.055 27.8679H131.995C131.701 27.8679 131.461 27.6552 131.395 27.368C131.285 26.8817 131.118 26.4379 130.894 26.0357C130.596 25.4996 130.213 25.042 129.746 24.6632C129.278 24.2843 128.74 23.9943 128.132 23.7919C127.524 23.5901 126.865 23.4896 126.156 23.4896C124.875 23.4896 123.759 23.8062 122.808 24.4388C121.858 25.0714 121.12 25.9906 120.596 27.1963C120.072 28.402 119.81 29.8628 119.81 31.58C119.81 33.3458 120.074 34.8292 120.603 36.0301C121.13 37.2317 121.869 38.1385 122.821 38.7513C123.771 39.3641 124.871 39.6698 126.121 39.6698C126.821 39.6698 127.472 39.5774 128.072 39.3921C128.673 39.2068 129.207 38.9346 129.673 38.5755C130.141 38.2165 130.53 37.7795 130.84 37.2632C131.073 36.8761 131.252 36.4486 131.378 35.9795C131.453 35.7005 131.692 35.498 131.98 35.4994L136.049 35.5179C136.45 35.5199 136.737 35.892 136.657 36.2852C136.48 37.1503 136.18 37.9901 135.759 38.8047C135.215 39.8572 134.486 40.7961 133.572 41.6223C132.657 42.4491 131.569 43.1015 130.308 43.5816C129.047 44.0617 127.622 44.3018 126.035 44.3018C123.827 44.3018 121.855 43.8018 120.119 42.802C118.382 41.8028 117.013 40.355 116.009 38.4607C115.006 36.5663 114.504 34.2725 114.504 31.5793C114.504 28.8787 115.012 26.5808 116.027 24.6864C117.042 22.792 118.42 21.3463 120.161 20.3506C121.901 19.3548 123.86 18.8569 126.035 18.8569C127.469 18.8569 128.801 19.0587 130.03 19.4615C131.259 19.865 132.349 20.4511 133.299 21.2211C134.25 21.9912 135.026 22.9322 135.626 24.0449C136.124 24.9675 136.473 26.0009 136.675 27.1457C136.742 27.5232 136.437 27.8679 136.055 27.8679Z" fill="black"/>
<path d="M161.102 27.8679H157.042C156.748 27.8679 156.508 27.6552 156.443 27.368C156.333 26.8817 156.166 26.4379 155.942 26.0357C155.644 25.4996 155.261 25.042 154.793 24.6632C154.326 24.2843 153.788 23.9943 153.18 23.7919C152.571 23.5901 151.912 23.4896 151.204 23.4896C149.923 23.4896 148.806 23.8062 147.856 24.4388C146.905 25.0714 146.167 25.9906 145.643 27.1963C145.12 28.402 144.858 29.8628 144.858 31.58C144.858 33.3458 145.122 34.8292 145.65 36.0301C146.178 37.2317 146.917 38.1385 147.868 38.7513C148.819 39.3641 149.919 39.6698 151.168 39.6698C151.869 39.6698 152.519 39.5774 153.119 39.3921C153.72 39.2068 154.254 38.9346 154.721 38.5755C155.188 38.2165 155.577 37.7795 155.888 37.2632C156.12 36.8761 156.3 36.4486 156.426 35.9795C156.501 35.7005 156.739 35.498 157.028 35.4994L161.096 35.5179C161.497 35.5199 161.784 35.892 161.704 36.2852C161.527 37.1503 161.228 37.9901 160.807 38.8047C160.263 39.8572 159.533 40.7961 158.619 41.6223C157.704 42.4491 156.616 43.1015 155.355 43.5816C154.094 44.0617 152.67 44.3018 151.083 44.3018C148.875 44.3018 146.902 43.8018 145.166 42.802C143.429 41.8028 142.06 40.355 141.057 38.4607C140.053 36.5663 139.552 34.2725 139.552 31.5793C139.552 28.8787 140.06 26.5808 141.075 24.6864C142.09 22.792 143.468 21.3463 145.208 20.3506C146.949 19.3548 148.907 18.8569 151.083 18.8569C152.517 18.8569 153.848 19.0587 155.078 19.4615C156.306 19.865 157.396 20.4511 158.347 21.2211C159.298 21.9912 160.073 22.9322 160.674 24.0449C161.171 24.9675 161.52 26.0009 161.722 27.1457C161.789 27.5232 161.485 27.8679 161.102 27.8679Z" fill="black"/>
</g>
<defs>
<clipPath id="clip0_1_489">
<rect width="162" height="64" fill="white"/>
</clipPath>
</defs>
</svg>
