<svg width="313" height="71" viewBox="0 0 313 71" fill="none" xmlns="http://www.w3.org/2000/svg">
<g clip-path="url(#clip0_11_2065)" filter="url(#filter0_d_11_2065)">
<path d="M62.7749 38.6605C53.1846 39.2534 46.4896 37.729 41.215 35.1767C40.863 35.0064 40.714 34.5845 40.8705 34.2261L40.876 34.2138C41.0182 33.8876 41.3743 33.7091 41.7188 33.7987C43.2676 34.2015 45.0597 34.512 47.0693 34.5797C53.8346 35.3333 63.4003 32.9609 63.5056 32.8378C65.3086 32.4275 66.8411 30.7191 66.7023 29.2323C66.593 27.8762 65.2041 27.34 63.5999 28.0731C54.7027 32.249 47.8813 33.1975 42.0181 32.6798C41.6497 32.647 41.3804 32.3242 41.3975 31.9542C41.3975 31.9501 41.3982 31.946 41.3982 31.9412C41.4132 31.6007 41.6709 31.3182 42.0092 31.2826C43.6237 31.1137 45.4514 30.7444 47.4213 30.0038C54.0533 28.1367 62.4126 21.7205 62.6204 21.1597C64.2779 19.8288 65.243 17.0304 64.4878 15.5764C63.8172 14.2449 62.1502 14.6744 60.8467 16.3061C53.6091 25.2589 47.5436 28.5539 41.852 30.1016C41.5294 30.1891 41.1986 30.0024 41.0968 29.6837C41.0906 29.6639 41.0845 29.6447 41.0776 29.6249C40.9806 29.3329 41.1104 29.0114 41.3859 28.874C42.8643 28.1388 44.4808 27.1089 46.0939 25.6152C51.6064 21.3765 57.0833 11.75 57.0717 10.8152C58.1407 8.68348 57.9527 5.75985 56.7224 5.16076C55.6179 4.59313 54.2816 5.95476 53.6555 7.94761C50.1464 19.0608 45.6489 24.2953 40.8698 27.7804C40.5999 27.9767 40.2253 27.9213 40.0161 27.6608C40.0004 27.6409 39.9847 27.6218 39.9683 27.6019C39.7728 27.3646 39.779 27.0172 39.9868 26.7909C41.118 25.5537 42.2833 24.0054 43.2915 22.0597C46.9565 16.2521 48.8559 6.00673 48.6393 5.47535C48.9585 3.36076 48.0433 1.29267 46.8601 1.27968C45.7856 1.24001 44.9114 2.61053 44.8506 4.37018C44.6742 14.4439 42.3633 20.9573 39.1768 25.9825C38.9943 26.2704 38.6136 26.3477 38.3224 26.1699C38.2889 26.1494 38.2547 26.1288 38.2206 26.109C37.9554 25.9538 37.8508 25.6289 37.9615 25.3424C38.5733 23.7646 39.1201 21.8956 39.4119 19.7516C40.8384 13.1281 39.4509 3.49206 39.3224 3.36076C39.0845 1.5334 37.6136 -0.0614305 36.2199 0.00285522C34.9472 0.0425209 34.2938 1.35422 34.8146 2.97026C37.9308 12.133 38.1201 19.0287 36.9629 24.8691C36.8959 25.207 36.5631 25.4162 36.2247 25.3499C36.1926 25.3437 36.1598 25.3376 36.127 25.3314C35.8276 25.2774 35.6185 25.012 35.6205 24.7077C35.6308 23.0233 35.4612 21.0845 34.9158 18.9651C33.7716 12.2377 28.484 3.52284 28.0513 3.31699C26.9871 1.60589 24.4329 0.427551 22.8833 0.99518C21.4671 1.49647 21.6004 3.12345 23.0173 4.53637C30.8735 12.4312 33.5009 18.7674 34.4667 24.6051C34.5235 24.9471 34.2849 25.2644 33.9432 25.3205C33.9288 25.3232 33.9145 25.3253 33.8994 25.328C33.6014 25.3793 33.3157 25.2049 33.2098 24.9218C32.6261 23.3605 31.7601 21.6309 30.4204 19.8637C26.7732 14.0014 17.8158 7.73287 16.891 7.66243C14.9034 6.41707 11.8816 6.33089 11.0416 7.49966C10.2576 8.54875 11.4578 10.0054 13.4257 10.796C24.3016 15.2215 29.0281 20.14 32.0068 25.2001C32.1934 25.5168 32.0758 25.9196 31.758 26.1049C31.7546 26.107 31.7512 26.109 31.7478 26.1111C31.4819 26.2663 31.1415 26.2164 30.9357 25.9873C29.8312 24.7624 28.5831 23.394 26.7568 22.2389C20.3277 18.2497 10.9418 15.4533 10.2569 15.6585C8.08815 15.1818 5.80523 15.9779 5.71227 17.1733C5.59881 18.2552 7.01504 19.1614 8.83043 19.3809C23.0166 21.0961 28.4642 25.1892 29.9699 26.6124C30.2461 26.8729 30.2666 27.3031 30.0239 27.5944L29.9932 27.6314C29.7779 27.8919 29.4136 27.9671 29.1094 27.8187C27.6529 27.1095 25.9297 26.4455 23.9346 25.9928C17.4932 23.9876 7.73751 24.5709 7.55638 24.7084C5.68493 24.8083 4.02128 26.0974 4.04588 27.4105C4.04725 28.6079 5.31379 29.3404 6.94395 28.9916C16.0859 26.8456 22.8649 27.2087 28.4936 28.8104C28.8326 28.9068 29.0158 29.2706 28.903 29.6051C28.8825 29.6666 28.8627 29.7282 28.8435 29.7897C28.7601 30.0646 28.4888 30.2336 28.2024 30.2103C26.5962 30.0797 24.7555 30.0947 22.7316 30.4162C15.9758 30.9318 6.95557 35.241 6.77239 35.5399C5.02535 36.3694 3.67747 38.6632 4.06775 40.258C4.40814 41.7133 5.96927 41.8474 7.47025 40.6465C15.6922 34.0743 22.1226 31.9255 27.9105 31.3962C28.2619 31.364 28.5599 31.6376 28.5783 31.9898C28.5811 32.0363 28.5838 32.0835 28.5872 32.13C28.6084 32.4213 28.4157 32.6805 28.1354 32.7646C26.6214 33.2194 24.9475 33.9163 23.2053 35.0119C17.0619 38.1359 10.0423 46.4377 9.89465 47.2809C8.48663 49.0987 8.10523 52.155 9.17971 53.2342C10.1414 54.2306 11.7073 53.2369 12.6711 51.32C17.919 41.0356 23.0877 36.658 28.2434 34.0852C28.594 33.9102 29.0226 34.064 29.1921 34.4176L29.1976 34.4292C29.337 34.7199 29.2584 35.0714 29.0062 35.2718C27.7868 36.2381 26.5128 37.4725 25.3139 39.0824C20.7118 44.2246 17.1603 54.459 17.3196 55.2557C16.6668 57.4681 17.3169 59.9855 18.5383 60.1969C19.6408 60.4164 20.692 58.9706 20.9928 57.0742C22.5559 46.7283 25.7568 40.775 29.5831 36.4672C29.8743 36.1396 30.3753 36.1095 30.6965 36.4077L30.7095 36.42C30.9727 36.6635 31.0301 37.0533 30.8551 37.3659C28.0014 42.4444 26.091 48.9728 26.1908 58.6376C26.1635 60.5819 27.3118 62.3367 28.5558 62.3238C29.6911 62.3354 30.4757 61.0702 30.2727 59.4104C28.9584 50.2804 29.7943 43.5728 31.7655 38.127C31.9077 37.7345 32.352 37.5348 32.7436 37.6784L32.758 37.6839C33.0943 37.8063 33.2877 38.1516 33.2344 38.5052C33.0054 40.0269 32.8906 41.7571 33.0191 43.6652C32.9398 50.4836 36.3484 59.8317 36.5289 59.9657C37.1461 61.7445 39.17 63.2169 40.7571 62.9769C42.2054 62.7744 42.5677 61.2924 41.5827 59.7209C36.2029 51.2194 34.5255 44.6137 34.4271 38.8102C34.4203 38.419 34.7429 38.0915 35.1332 38.0805L35.1462 38.0798C35.4872 38.0703 35.7893 38.3021 35.8618 38.6352C36.1926 40.1465 36.736 41.8228 37.6375 43.594C40.2198 50.0397 47.8314 57.8176 48.5518 58.0098C50.1772 59.5663 53.2044 60.2468 54.5072 59.301C55.704 58.4557 54.9453 56.8027 53.1033 55.6592C43.2539 49.4543 39.2636 43.8621 37.1338 38.4628C36.9971 38.1174 37.1721 37.7126 37.5125 37.5662L37.5241 37.5614C37.831 37.4295 38.1905 37.5314 38.3737 37.8111C39.2281 39.1152 40.3545 40.4981 41.8801 41.8392C46.6762 46.9164 56.9261 51.4048 57.8318 51.3063C60.0805 52.1584 62.8569 51.6927 63.2185 50.4412C63.5739 49.3141 62.0873 48.1282 60.0921 47.683C49.1649 45.2744 43.4357 41.4651 39.4857 37.1798C39.2281 36.9001 39.2417 36.4638 39.5117 36.195C39.5158 36.1909 39.5192 36.1875 39.5233 36.1834C39.768 35.9393 40.1549 35.9016 40.4365 36.1034C41.7222 37.0253 43.2758 37.9383 45.1418 38.6912C51.2797 41.7845 61.5658 42.7501 61.939 42.5566C63.9949 42.7125 65.8787 41.6771 65.8363 40.4871C65.8268 39.4011 64.4891 38.59 62.7749 38.6605ZM38.5685 35.2396C36.5904 37.2188 33.3827 37.2188 31.4046 35.2396C29.4266 33.2605 29.4266 30.051 31.4046 28.0718C33.3827 26.0926 36.5904 26.0926 38.5685 28.0718C40.5465 30.0516 40.5465 33.2605 38.5685 35.2396Z" fill="#DA2128"/>
<path d="M32.7218 29.3896C31.471 30.6411 31.471 32.6709 32.7218 33.9224C33.9726 35.1739 36.0013 35.1739 37.2521 33.9224C38.5029 32.6709 38.5029 30.6411 37.2521 29.3896C36.0013 28.138 33.9726 28.138 32.7218 29.3896Z" fill="#DA2128"/>
<path d="M77.1299 43.3387V19.8211C77.1299 19.4758 77.4094 19.196 77.7546 19.196H81.7395C82.0846 19.196 82.3642 19.4758 82.3642 19.8211V30.1171H82.6902L91.4104 19.4265C91.5293 19.2808 91.7064 19.1967 91.8943 19.1967H96.8696C97.2681 19.1967 97.4861 19.6611 97.2318 19.9682L88.6853 30.2867L97.48 43.2286C97.6925 43.5412 97.4683 43.9645 97.091 43.9645H92.0536C91.8444 43.9645 91.6496 43.8599 91.5341 43.6862L84.939 33.7821L82.3649 36.9259V43.3394C82.3649 43.6848 82.0853 43.9645 81.7401 43.9645H77.7553C77.4094 43.9638 77.1299 43.6841 77.1299 43.3387Z" fill="black"/>
<path d="M110.449 19.1968H114.373C114.719 19.1968 114.998 19.4765 114.998 19.8219V36.4664C114.998 38.0626 114.641 39.4495 113.928 40.6265C113.216 41.8041 112.226 42.7103 110.961 43.3477C109.696 43.9844 108.225 44.3031 106.55 44.3031C105.059 44.3031 103.707 44.0384 102.495 43.5105C101.281 42.9825 100.321 42.1762 99.6123 41.0915C98.9979 40.1519 98.652 39.0016 98.5761 37.6406C98.5563 37.2898 98.8502 36.9978 99.2015 36.9978H103.197C103.499 36.9978 103.769 37.2132 103.809 37.5127C103.868 37.9497 103.99 38.3361 104.174 38.6726C104.428 39.1363 104.778 39.4912 105.226 39.7367C105.673 39.9829 106.203 40.106 106.815 40.106C107.46 40.106 108.006 39.9672 108.453 39.6889C108.901 39.4105 109.24 39.0016 109.474 38.4613C109.708 37.9217 109.825 37.2563 109.825 36.4657V19.8212C109.825 19.4765 110.104 19.1968 110.449 19.1968Z" fill="black"/>
<path d="M140.055 27.8679H135.995C135.701 27.8679 135.461 27.6552 135.395 27.368C135.285 26.8817 135.118 26.4379 134.894 26.0357C134.596 25.4996 134.213 25.042 133.746 24.6632C133.278 24.2843 132.74 23.9943 132.132 23.7919C131.524 23.5901 130.865 23.4896 130.156 23.4896C128.875 23.4896 127.759 23.8062 126.808 24.4388C125.858 25.0714 125.12 25.9906 124.596 27.1963C124.072 28.402 123.81 29.8628 123.81 31.58C123.81 33.3458 124.074 34.8292 124.603 36.0301C125.13 37.2317 125.869 38.1385 126.821 38.7513C127.771 39.3641 128.871 39.6698 130.121 39.6698C130.821 39.6698 131.472 39.5774 132.072 39.3921C132.673 39.2068 133.207 38.9346 133.673 38.5755C134.141 38.2165 134.53 37.7795 134.84 37.2632C135.073 36.8761 135.252 36.4486 135.378 35.9795C135.453 35.7005 135.692 35.498 135.98 35.4994L140.049 35.5179C140.45 35.5199 140.737 35.892 140.657 36.2852C140.48 37.1503 140.18 37.9901 139.759 38.8047C139.215 39.8572 138.486 40.7961 137.572 41.6223C136.657 42.4491 135.569 43.1015 134.308 43.5816C133.047 44.0617 131.622 44.3018 130.035 44.3018C127.827 44.3018 125.855 43.8018 124.119 42.802C122.382 41.8028 121.013 40.355 120.009 38.4607C119.006 36.5663 118.504 34.2725 118.504 31.5793C118.504 28.8787 119.012 26.5808 120.027 24.6864C121.042 22.792 122.42 21.3463 124.161 20.3506C125.901 19.3548 127.86 18.8569 130.035 18.8569C131.469 18.8569 132.801 19.0587 134.03 19.4615C135.259 19.865 136.349 20.4511 137.299 21.2211C138.25 21.9912 139.026 22.9322 139.626 24.0449C140.124 24.9675 140.473 26.0009 140.675 27.1457C140.742 27.5232 140.437 27.8679 140.055 27.8679Z" fill="black"/>
<path d="M165.102 27.8679H161.042C160.748 27.8679 160.508 27.6552 160.443 27.368C160.333 26.8817 160.166 26.4379 159.942 26.0357C159.644 25.4996 159.261 25.042 158.793 24.6632C158.326 24.2843 157.788 23.9943 157.18 23.7919C156.571 23.5901 155.912 23.4896 155.204 23.4896C153.923 23.4896 152.806 23.8062 151.856 24.4388C150.905 25.0714 150.167 25.9906 149.643 27.1963C149.12 28.402 148.858 29.8628 148.858 31.58C148.858 33.3458 149.122 34.8292 149.65 36.0301C150.178 37.2317 150.917 38.1385 151.868 38.7513C152.819 39.3641 153.919 39.6698 155.168 39.6698C155.869 39.6698 156.519 39.5774 157.119 39.3921C157.72 39.2068 158.254 38.9346 158.721 38.5755C159.188 38.2165 159.577 37.7795 159.888 37.2632C160.12 36.8761 160.3 36.4486 160.426 35.9795C160.501 35.7005 160.739 35.498 161.028 35.4994L165.096 35.5179C165.497 35.5199 165.784 35.892 165.704 36.2852C165.527 37.1503 165.228 37.9901 164.807 38.8047C164.263 39.8572 163.533 40.7961 162.619 41.6223C161.704 42.4491 160.616 43.1015 159.355 43.5816C158.094 44.0617 156.67 44.3018 155.083 44.3018C152.875 44.3018 150.902 43.8018 149.166 42.802C147.429 41.8028 146.06 40.355 145.057 38.4607C144.053 36.5663 143.552 34.2725 143.552 31.5793C143.552 28.8787 144.06 26.5808 145.075 24.6864C146.09 22.792 147.468 21.3463 149.208 20.3506C150.949 19.3548 152.907 18.8569 155.083 18.8569C156.517 18.8569 157.848 19.0587 159.078 19.4615C160.306 19.865 161.396 20.4511 162.347 21.2211C163.298 21.9912 164.073 22.9322 164.674 24.0449C165.171 24.9675 165.52 26.0009 165.722 27.1457C165.789 27.5232 165.485 27.8679 165.102 27.8679Z" fill="black"/>
</g>
<g filter="url(#filter1_d_11_2065)">
<path d="M178.057 28V19.2727H179.114V23.6023H179.216L183.136 19.2727H184.517L180.852 23.2102L184.517 28H183.239L180.205 23.9432L179.114 25.1705V28H178.057ZM185.916 30.4545C185.745 30.4545 185.593 30.4403 185.46 30.4119C185.326 30.3864 185.234 30.3608 185.183 30.3352L185.439 29.4489C185.683 29.5114 185.899 29.5341 186.086 29.517C186.274 29.5 186.44 29.4162 186.585 29.2656C186.733 29.1179 186.868 28.8778 186.99 28.5455L187.177 28.0341L184.757 21.4545H185.848L187.654 26.6705H187.723L189.529 21.4545H190.62L187.842 28.9545C187.717 29.2926 187.562 29.5724 187.377 29.794C187.193 30.0185 186.978 30.1847 186.734 30.2926C186.493 30.4006 186.22 30.4545 185.916 30.4545ZM191.948 28V21.4545H192.919V22.4432H192.988C193.107 22.1193 193.323 21.8565 193.635 21.6548C193.948 21.4531 194.3 21.3523 194.692 21.3523C194.766 21.3523 194.858 21.3537 194.969 21.3565C195.08 21.3594 195.164 21.3636 195.221 21.3693V22.392C195.186 22.3835 195.108 22.3707 194.986 22.3537C194.867 22.3338 194.74 22.3239 194.607 22.3239C194.289 22.3239 194.005 22.3906 193.755 22.5241C193.507 22.6548 193.311 22.8366 193.167 23.0696C193.025 23.2997 192.953 23.5625 192.953 23.858V28H191.948ZM198.855 30.5909C198.37 30.5909 197.952 30.5284 197.603 30.4034C197.253 30.2812 196.962 30.1193 196.729 29.9176C196.499 29.7188 196.316 29.5057 196.179 29.2784L196.98 28.7159C197.071 28.8352 197.186 28.9716 197.326 29.125C197.465 29.2812 197.655 29.4162 197.897 29.5298C198.141 29.6463 198.461 29.7045 198.855 29.7045C199.384 29.7045 199.82 29.5767 200.164 29.321C200.507 29.0653 200.679 28.6648 200.679 28.1193V26.7898H200.594C200.52 26.9091 200.415 27.0568 200.279 27.233C200.145 27.4062 199.952 27.5611 199.699 27.6974C199.449 27.831 199.111 27.8977 198.685 27.8977C198.157 27.8977 197.682 27.7727 197.262 27.5227C196.844 27.2727 196.513 26.9091 196.269 26.4318C196.027 25.9545 195.907 25.375 195.907 24.6932C195.907 24.0227 196.025 23.4389 196.26 22.9418C196.496 22.4418 196.824 22.0554 197.245 21.7827C197.665 21.5071 198.151 21.3693 198.702 21.3693C199.128 21.3693 199.466 21.4403 199.716 21.5824C199.969 21.7216 200.162 21.8807 200.296 22.0597C200.432 22.2358 200.537 22.3807 200.611 22.4943H200.713V21.4545H201.685V28.1875C201.685 28.75 201.557 29.2074 201.301 29.5597C201.049 29.9148 200.708 30.1747 200.279 30.3395C199.853 30.5071 199.378 30.5909 198.855 30.5909ZM198.821 26.9943C199.225 26.9943 199.566 26.902 199.844 26.7173C200.123 26.5327 200.334 26.267 200.479 25.9205C200.624 25.5739 200.696 25.1591 200.696 24.6761C200.696 24.2045 200.625 23.7884 200.483 23.4276C200.341 23.0668 200.131 22.7841 199.853 22.5795C199.574 22.375 199.23 22.2727 198.821 22.2727C198.395 22.2727 198.04 22.3807 197.756 22.5966C197.475 22.8125 197.263 23.1023 197.121 23.4659C196.982 23.8295 196.912 24.233 196.912 24.6761C196.912 25.1307 196.983 25.5327 197.125 25.8821C197.27 26.2287 197.483 26.5014 197.765 26.7003C198.049 26.8963 198.401 26.9943 198.821 26.9943ZM204.174 30.4545C204.003 30.4545 203.851 30.4403 203.718 30.4119C203.584 30.3864 203.492 30.3608 203.441 30.3352L203.696 29.4489C203.941 29.5114 204.157 29.5341 204.344 29.517C204.532 29.5 204.698 29.4162 204.843 29.2656C204.99 29.1179 205.125 28.8778 205.248 28.5455L205.435 28.0341L203.015 21.4545H204.105L205.912 26.6705H205.98L207.787 21.4545H208.878L206.1 28.9545C205.975 29.2926 205.82 29.5724 205.635 29.794C205.451 30.0185 205.236 30.1847 204.992 30.2926C204.75 30.4006 204.478 30.4545 204.174 30.4545ZM210.018 28V27.233L213.734 22.4602V22.392H210.137V21.4545H215.029V22.2557L211.416 26.9943V27.0625H215.149V28H210.018ZM220.448 23.7898V24.7273H216.63V23.7898H220.448ZM225.695 19.2727H226.751V25.5114C226.751 26.0682 226.649 26.5412 226.445 26.9304C226.24 27.3196 225.952 27.6151 225.58 27.8168C225.207 28.0185 224.768 28.1193 224.263 28.1193C223.786 28.1193 223.361 28.0327 222.989 27.8594C222.616 27.6832 222.324 27.4332 222.111 27.1094C221.898 26.7855 221.791 26.4006 221.791 25.9545H222.831C222.831 26.2017 222.892 26.4176 223.014 26.6023C223.139 26.7841 223.31 26.9261 223.526 27.0284C223.741 27.1307 223.987 27.1818 224.263 27.1818C224.567 27.1818 224.825 27.1179 225.038 26.9901C225.251 26.8622 225.413 26.6747 225.524 26.4276C225.638 26.1776 225.695 25.8722 225.695 25.5114V19.2727ZM230.659 28.1534C230.244 28.1534 229.868 28.0753 229.53 27.919C229.192 27.7599 228.923 27.5312 228.724 27.233C228.526 26.9318 228.426 26.5682 228.426 26.142C228.426 25.767 228.5 25.4631 228.648 25.2301C228.795 24.9943 228.993 24.8097 229.24 24.6761C229.487 24.5426 229.76 24.4432 230.058 24.3778C230.359 24.3097 230.662 24.2557 230.966 24.2159C231.364 24.1648 231.686 24.1264 231.933 24.1009C232.183 24.0724 232.365 24.0256 232.479 23.9602C232.595 23.8949 232.653 23.7812 232.653 23.6193V23.5852C232.653 23.1648 232.538 22.8381 232.308 22.6051C232.081 22.3722 231.736 22.2557 231.273 22.2557C230.793 22.2557 230.416 22.3608 230.143 22.571C229.871 22.7812 229.679 23.0057 229.568 23.2443L228.614 22.9034C228.784 22.5057 229.011 22.196 229.295 21.9744C229.582 21.75 229.895 21.5937 230.233 21.5057C230.574 21.4148 230.909 21.3693 231.239 21.3693C231.449 21.3693 231.69 21.3949 231.963 21.446C232.239 21.4943 232.504 21.5952 232.76 21.7486C233.018 21.902 233.233 22.1335 233.403 22.4432C233.574 22.7528 233.659 23.1676 233.659 23.6875V28H232.653V27.1136H232.602C232.534 27.2557 232.42 27.4077 232.261 27.5696C232.102 27.7315 231.891 27.8693 231.626 27.983C231.362 28.0966 231.04 28.1534 230.659 28.1534ZM230.812 27.25C231.21 27.25 231.545 27.1719 231.818 27.0156C232.094 26.8594 232.301 26.6577 232.44 26.4105C232.582 26.1634 232.653 25.9034 232.653 25.6307V24.7102C232.611 24.7614 232.517 24.8082 232.372 24.8509C232.23 24.8906 232.065 24.9261 231.878 24.9574C231.693 24.9858 231.513 25.0114 231.337 25.0341C231.163 25.054 231.023 25.071 230.915 25.0852C230.653 25.1193 230.409 25.1747 230.182 25.2514C229.957 25.3253 229.776 25.4375 229.636 25.5881C229.5 25.7358 229.432 25.9375 229.432 26.1932C229.432 26.5426 229.561 26.8068 229.82 26.9858C230.081 27.1619 230.412 27.25 230.812 27.25ZM235.495 30.4545V21.4545H236.466V22.4943H236.586C236.659 22.3807 236.762 22.2358 236.892 22.0597C237.026 21.8807 237.216 21.7216 237.463 21.5824C237.713 21.4403 238.051 21.3693 238.478 21.3693C239.029 21.3693 239.515 21.5071 239.935 21.7827C240.355 22.0582 240.684 22.4489 240.919 22.9545C241.155 23.4602 241.273 24.0568 241.273 24.7443C241.273 25.4375 241.155 26.0384 240.919 26.5469C240.684 27.0526 240.357 27.4446 239.939 27.723C239.522 27.9986 239.04 28.1364 238.495 28.1364C238.074 28.1364 237.738 28.0668 237.485 27.9276C237.232 27.7855 237.037 27.625 236.901 27.446C236.765 27.2642 236.659 27.1136 236.586 26.9943H236.5V30.4545H235.495ZM236.483 24.7273C236.483 25.2216 236.556 25.6577 236.701 26.0355C236.846 26.4105 237.057 26.7045 237.336 26.9176C237.614 27.1278 237.955 27.233 238.358 27.233C238.779 27.233 239.13 27.1222 239.411 26.9006C239.695 26.6761 239.908 26.375 240.05 25.9972C240.195 25.6165 240.267 25.1932 240.267 24.7273C240.267 24.267 240.196 23.8523 240.054 23.483C239.915 23.1108 239.703 22.8168 239.419 22.6009C239.138 22.3821 238.784 22.2727 238.358 22.2727C237.949 22.2727 237.605 22.3764 237.327 22.5838C237.049 22.7884 236.838 23.0753 236.696 23.4446C236.554 23.8111 236.483 24.2386 236.483 24.7273ZM244.733 28.1534C244.319 28.1534 243.942 28.0753 243.604 27.919C243.266 27.7599 242.998 27.5312 242.799 27.233C242.6 26.9318 242.5 26.5682 242.5 26.142C242.5 25.767 242.574 25.4631 242.722 25.2301C242.87 24.9943 243.067 24.8097 243.314 24.6761C243.561 24.5426 243.834 24.4432 244.132 24.3778C244.434 24.3097 244.736 24.2557 245.04 24.2159C245.438 24.1648 245.76 24.1264 246.007 24.1009C246.257 24.0724 246.439 24.0256 246.553 23.9602C246.669 23.8949 246.728 23.7812 246.728 23.6193V23.5852C246.728 23.1648 246.613 22.8381 246.382 22.6051C246.155 22.3722 245.81 22.2557 245.347 22.2557C244.867 22.2557 244.49 22.3608 244.218 22.571C243.945 22.7812 243.753 23.0057 243.642 23.2443L242.688 22.9034C242.858 22.5057 243.086 22.196 243.37 21.9744C243.657 21.75 243.969 21.5937 244.307 21.5057C244.648 21.4148 244.983 21.3693 245.313 21.3693C245.523 21.3693 245.765 21.3949 246.037 21.446C246.313 21.4943 246.578 21.5952 246.834 21.7486C247.093 21.902 247.307 22.1335 247.478 22.4432C247.648 22.7528 247.733 23.1676 247.733 23.6875V28H246.728V27.1136H246.676C246.608 27.2557 246.495 27.4077 246.336 27.5696C246.176 27.7315 245.965 27.8693 245.701 27.983C245.436 28.0966 245.114 28.1534 244.733 28.1534ZM244.887 27.25C245.284 27.25 245.62 27.1719 245.892 27.0156C246.168 26.8594 246.375 26.6577 246.515 26.4105C246.657 26.1634 246.728 25.9034 246.728 25.6307V24.7102C246.685 24.7614 246.591 24.8082 246.446 24.8509C246.304 24.8906 246.14 24.9261 245.952 24.9574C245.767 24.9858 245.587 25.0114 245.411 25.0341C245.238 25.054 245.097 25.071 244.989 25.0852C244.728 25.1193 244.483 25.1747 244.256 25.2514C244.032 25.3253 243.85 25.4375 243.711 25.5881C243.574 25.7358 243.506 25.9375 243.506 26.1932C243.506 26.5426 243.635 26.8068 243.894 26.9858C244.155 27.1619 244.486 27.25 244.887 27.25ZM250.575 24.0625V28H249.569V21.4545H250.54V22.4773H250.626C250.779 22.1449 251.012 21.8778 251.325 21.6761C251.637 21.4716 252.04 21.3693 252.535 21.3693C252.978 21.3693 253.366 21.4602 253.698 21.642C254.031 21.821 254.289 22.0938 254.474 22.4602C254.658 22.8239 254.751 23.2841 254.751 23.8409V28H253.745V23.9091C253.745 23.3949 253.612 22.9943 253.344 22.7074C253.077 22.4176 252.711 22.2727 252.245 22.2727C251.924 22.2727 251.637 22.3423 251.384 22.4815C251.134 22.6207 250.937 22.8239 250.792 23.0909C250.647 23.358 250.575 23.6818 250.575 24.0625ZM185.08 38H184.023C183.96 37.696 183.851 37.429 183.695 37.1989C183.541 36.9688 183.354 36.7756 183.132 36.6193C182.913 36.4602 182.67 36.3409 182.403 36.2614C182.136 36.1818 181.858 36.142 181.568 36.142C181.04 36.142 180.561 36.2756 180.132 36.5426C179.706 36.8097 179.366 37.2031 179.114 37.723C178.864 38.2429 178.739 38.8807 178.739 39.6364C178.739 40.392 178.864 41.0298 179.114 41.5497C179.366 42.0696 179.706 42.4631 180.132 42.7301C180.561 42.9972 181.04 43.1307 181.568 43.1307C181.858 43.1307 182.136 43.0909 182.403 43.0114C182.67 42.9318 182.913 42.8139 183.132 42.6577C183.354 42.4986 183.541 42.304 183.695 42.0739C183.851 41.8409 183.96 41.5739 184.023 41.2727H185.08C185 41.7187 184.855 42.1179 184.645 42.4702C184.435 42.8224 184.173 43.1222 183.861 43.3693C183.548 43.6136 183.197 43.7997 182.808 43.9276C182.422 44.0554 182.009 44.1193 181.568 44.1193C180.824 44.1193 180.162 43.9375 179.582 43.5739C179.003 43.2102 178.547 42.6932 178.214 42.0227C177.882 41.3523 177.716 40.5568 177.716 39.6364C177.716 38.7159 177.882 37.9205 178.214 37.25C178.547 36.5795 179.003 36.0625 179.582 35.6989C180.162 35.3352 180.824 35.1534 181.568 35.1534C182.009 35.1534 182.422 35.2173 182.808 35.3452C183.197 35.473 183.548 35.6605 183.861 35.9077C184.173 36.152 184.435 36.4503 184.645 36.8026C184.855 37.152 185 37.5511 185.08 38ZM187.657 40.0625V44H186.651V35.2727H187.657V38.4773H187.742C187.895 38.1392 188.125 37.8707 188.432 37.6719C188.742 37.4702 189.154 37.3693 189.668 37.3693C190.114 37.3693 190.505 37.4588 190.84 37.6378C191.175 37.8139 191.435 38.0852 191.62 38.4517C191.807 38.8153 191.901 39.2784 191.901 39.8409V44H190.895V39.9091C190.895 39.3892 190.76 38.9872 190.49 38.7031C190.223 38.4162 189.853 38.2727 189.378 38.2727C189.049 38.2727 188.753 38.3423 188.492 38.4815C188.233 38.6207 188.029 38.8239 187.878 39.0909C187.73 39.358 187.657 39.6818 187.657 40.0625ZM195.667 44.1534C195.252 44.1534 194.876 44.0753 194.538 43.919C194.2 43.7599 193.931 43.5312 193.732 43.233C193.533 42.9318 193.434 42.5682 193.434 42.142C193.434 41.767 193.508 41.4631 193.656 41.2301C193.803 40.9943 194.001 40.8097 194.248 40.6761C194.495 40.5426 194.768 40.4432 195.066 40.3778C195.367 40.3097 195.67 40.2557 195.974 40.2159C196.371 40.1648 196.694 40.1264 196.941 40.1009C197.191 40.0724 197.373 40.0256 197.487 39.9602C197.603 39.8949 197.661 39.7812 197.661 39.6193V39.5852C197.661 39.1648 197.546 38.8381 197.316 38.6051C197.089 38.3722 196.744 38.2557 196.281 38.2557C195.8 38.2557 195.424 38.3608 195.151 38.571C194.879 38.7812 194.687 39.0057 194.576 39.2443L193.621 38.9034C193.792 38.5057 194.019 38.196 194.303 37.9744C194.59 37.75 194.903 37.5937 195.241 37.5057C195.582 37.4148 195.917 37.3693 196.246 37.3693C196.457 37.3693 196.698 37.3949 196.971 37.446C197.246 37.4943 197.512 37.5952 197.768 37.7486C198.026 37.902 198.241 38.1335 198.411 38.4432C198.582 38.7528 198.667 39.1676 198.667 39.6875V44H197.661V43.1136H197.61C197.542 43.2557 197.428 43.4077 197.269 43.5696C197.11 43.7315 196.898 43.8693 196.634 43.983C196.37 44.0966 196.048 44.1534 195.667 44.1534ZM195.82 43.25C196.218 43.25 196.553 43.1719 196.826 43.0156C197.102 42.8594 197.309 42.6577 197.448 42.4105C197.59 42.1634 197.661 41.9034 197.661 41.6307V40.7102C197.619 40.7614 197.525 40.8082 197.38 40.8509C197.238 40.8906 197.073 40.9261 196.886 40.9574C196.701 40.9858 196.521 41.0114 196.344 41.0341C196.171 41.054 196.031 41.071 195.923 41.0852C195.661 41.1193 195.417 41.1747 195.19 41.2514C194.965 41.3253 194.783 41.4375 194.644 41.5881C194.508 41.7358 194.44 41.9375 194.44 42.1932C194.44 42.5426 194.569 42.8068 194.827 42.9858C195.089 43.1619 195.42 43.25 195.82 43.25ZM200.502 44V37.4545H201.474V38.4773H201.559C201.696 38.1278 201.916 37.8565 202.22 37.6634C202.524 37.4673 202.889 37.3693 203.315 37.3693C203.747 37.3693 204.106 37.4673 204.393 37.6634C204.683 37.8565 204.909 38.1278 205.071 38.4773H205.139C205.306 38.1392 205.558 37.8707 205.893 37.6719C206.228 37.4702 206.63 37.3693 207.099 37.3693C207.684 37.3693 208.163 37.5526 208.535 37.919C208.907 38.2827 209.093 38.8494 209.093 39.6193V44H208.088V39.6193C208.088 39.1364 207.956 38.7912 207.691 38.5838C207.427 38.3764 207.116 38.2727 206.758 38.2727C206.298 38.2727 205.941 38.4119 205.689 38.6903C205.436 38.9659 205.309 39.3153 205.309 39.7386V44H204.287V39.517C204.287 39.1449 204.166 38.8452 203.924 38.6179C203.683 38.3878 203.372 38.2727 202.991 38.2727C202.73 38.2727 202.485 38.3423 202.258 38.4815C202.034 38.6207 201.852 38.8139 201.713 39.0611C201.576 39.3054 201.508 39.5881 201.508 39.9091V44H200.502ZM211.069 44V35.2727H212.074V38.4943H212.159C212.233 38.3807 212.336 38.2358 212.466 38.0597C212.6 37.8807 212.79 37.7216 213.037 37.5824C213.287 37.4403 213.625 37.3693 214.051 37.3693C214.603 37.3693 215.088 37.5071 215.509 37.7827C215.929 38.0582 216.257 38.4489 216.493 38.9545C216.729 39.4602 216.847 40.0568 216.847 40.7443C216.847 41.4375 216.729 42.0384 216.493 42.5469C216.257 43.0526 215.931 43.4446 215.513 43.723C215.096 43.9986 214.614 44.1364 214.069 44.1364C213.648 44.1364 213.311 44.0668 213.059 43.9276C212.806 43.7855 212.611 43.625 212.475 43.446C212.338 43.2642 212.233 43.1136 212.159 42.9943H212.04V44H211.069ZM212.057 40.7273C212.057 41.2216 212.13 41.6577 212.275 42.0355C212.419 42.4105 212.631 42.7045 212.909 42.9176C213.188 43.1278 213.529 43.233 213.932 43.233C214.353 43.233 214.703 43.1222 214.985 42.9006C215.269 42.6761 215.482 42.375 215.624 41.9972C215.769 41.6165 215.841 41.1932 215.841 40.7273C215.841 40.267 215.77 39.8523 215.628 39.483C215.489 39.1108 215.277 38.8168 214.993 38.6009C214.712 38.3821 214.358 38.2727 213.932 38.2727C213.523 38.2727 213.179 38.3764 212.901 38.5838C212.623 38.7884 212.412 39.0753 212.27 39.4446C212.128 39.8111 212.057 40.2386 212.057 40.7273ZM221.13 44.1364C220.499 44.1364 219.955 43.9972 219.498 43.7188C219.043 43.4375 218.692 43.0455 218.445 42.5426C218.201 42.0369 218.078 41.4489 218.078 40.7784C218.078 40.108 218.201 39.517 218.445 39.0057C218.692 38.4915 219.036 38.0909 219.476 37.804C219.919 37.5142 220.436 37.3693 221.027 37.3693C221.368 37.3693 221.705 37.4261 222.037 37.5398C222.37 37.6534 222.672 37.8381 222.945 38.0938C223.218 38.3466 223.435 38.6818 223.597 39.0994C223.759 39.517 223.84 40.0312 223.84 40.642V41.0682H218.794V40.1989H222.817C222.817 39.8295 222.743 39.5 222.596 39.2102C222.451 38.9205 222.243 38.6918 221.973 38.5241C221.706 38.3565 221.391 38.2727 221.027 38.2727C220.627 38.2727 220.28 38.3722 219.988 38.571C219.698 38.767 219.475 39.0227 219.319 39.3381C219.162 39.6534 219.084 39.9915 219.084 40.3523V40.9318C219.084 41.4261 219.169 41.8452 219.34 42.1889C219.513 42.5298 219.753 42.7898 220.06 42.9688C220.367 43.1449 220.723 43.233 221.13 43.233C221.394 43.233 221.632 43.196 221.846 43.1222C222.061 43.0455 222.248 42.9318 222.404 42.7812C222.56 42.6278 222.681 42.4375 222.766 42.2102L223.738 42.483C223.635 42.8125 223.463 43.1023 223.222 43.3523C222.98 43.5994 222.682 43.7926 222.327 43.9318C221.972 44.0682 221.573 44.1364 221.13 44.1364ZM225.37 44V37.4545H226.341V38.4432H226.409C226.529 38.1193 226.745 37.8565 227.057 37.6548C227.37 37.4531 227.722 37.3523 228.114 37.3523C228.188 37.3523 228.28 37.3537 228.391 37.3565C228.502 37.3594 228.586 37.3636 228.642 37.3693V38.392C228.608 38.3835 228.53 38.3707 228.408 38.3537C228.289 38.3338 228.162 38.3239 228.029 38.3239C227.711 38.3239 227.426 38.3906 227.176 38.5241C226.929 38.6548 226.733 38.8366 226.588 39.0696C226.446 39.2997 226.375 39.5625 226.375 39.858V44H225.37ZM235.869 44.1364C235.278 44.1364 234.759 43.9957 234.313 43.7145C233.87 43.4332 233.523 43.0398 233.273 42.5341C233.026 42.0284 232.903 41.4375 232.903 40.7614C232.903 40.0795 233.026 39.4844 233.273 38.9759C233.523 38.4673 233.87 38.0724 234.313 37.7912C234.759 37.5099 235.278 37.3693 235.869 37.3693C236.46 37.3693 236.977 37.5099 237.42 37.7912C237.866 38.0724 238.212 38.4673 238.46 38.9759C238.71 39.4844 238.835 40.0795 238.835 40.7614C238.835 41.4375 238.71 42.0284 238.46 42.5341C238.212 43.0398 237.866 43.4332 237.42 43.7145C236.977 43.9957 236.46 44.1364 235.869 44.1364ZM235.869 43.233C236.317 43.233 236.687 43.1179 236.977 42.8878C237.266 42.6577 237.481 42.3551 237.62 41.9801C237.759 41.6051 237.829 41.1989 237.829 40.7614C237.829 40.3239 237.759 39.9162 237.62 39.5384C237.481 39.1605 237.266 38.8551 236.977 38.6222C236.687 38.3892 236.317 38.2727 235.869 38.2727C235.42 38.2727 235.05 38.3892 234.761 38.6222C234.471 38.8551 234.256 39.1605 234.117 39.5384C233.978 39.9162 233.908 40.3239 233.908 40.7614C233.908 41.1989 233.978 41.6051 234.117 41.9801C234.256 42.3551 234.471 42.6577 234.761 42.8878C235.05 43.1179 235.42 43.233 235.869 43.233ZM243.284 37.4545V38.3068H239.756V37.4545H243.284ZM240.813 44V36.5511C240.813 36.1761 240.901 35.8636 241.077 35.6136C241.253 35.3636 241.482 35.1761 241.763 35.0511C242.044 34.9261 242.341 34.8636 242.654 34.8636C242.901 34.8636 243.103 34.8835 243.259 34.9233C243.415 34.9631 243.532 35 243.608 35.0341L243.319 35.9034C243.267 35.8864 243.196 35.8651 243.105 35.8395C243.017 35.8139 242.901 35.8011 242.756 35.8011C242.424 35.8011 242.184 35.8849 242.036 36.0526C241.891 36.2202 241.819 36.4659 241.819 36.7898V44H240.813ZM255.228 38H254.171C254.109 37.696 253.999 37.429 253.843 37.1989C253.69 36.9688 253.502 36.7756 253.281 36.6193C253.062 36.4602 252.819 36.3409 252.552 36.2614C252.285 36.1818 252.006 36.142 251.717 36.142C251.188 36.142 250.71 36.2756 250.281 36.5426C249.854 36.8097 249.515 37.2031 249.262 37.723C249.012 38.2429 248.887 38.8807 248.887 39.6364C248.887 40.392 249.012 41.0298 249.262 41.5497C249.515 42.0696 249.854 42.4631 250.281 42.7301C250.71 42.9972 251.188 43.1307 251.717 43.1307C252.006 43.1307 252.285 43.0909 252.552 43.0114C252.819 42.9318 253.062 42.8139 253.281 42.6577C253.502 42.4986 253.69 42.304 253.843 42.0739C253.999 41.8409 254.109 41.5739 254.171 41.2727H255.228C255.148 41.7187 255.004 42.1179 254.793 42.4702C254.583 42.8224 254.322 43.1222 254.009 43.3693C253.697 43.6136 253.346 43.7997 252.957 43.9276C252.57 44.0554 252.157 44.1193 251.717 44.1193C250.972 44.1193 250.31 43.9375 249.731 43.5739C249.151 43.2102 248.695 42.6932 248.363 42.0227C248.031 41.3523 247.864 40.5568 247.864 39.6364C247.864 38.7159 248.031 37.9205 248.363 37.25C248.695 36.5795 249.151 36.0625 249.731 35.6989C250.31 35.3352 250.972 35.1534 251.717 35.1534C252.157 35.1534 252.57 35.2173 252.957 35.3452C253.346 35.473 253.697 35.6605 254.009 35.9077C254.322 36.152 254.583 36.4503 254.793 36.8026C255.004 37.152 255.148 37.5511 255.228 38ZM259.458 44.1364C258.868 44.1364 258.349 43.9957 257.903 43.7145C257.46 43.4332 257.113 43.0398 256.863 42.5341C256.616 42.0284 256.493 41.4375 256.493 40.7614C256.493 40.0795 256.616 39.4844 256.863 38.9759C257.113 38.4673 257.46 38.0724 257.903 37.7912C258.349 37.5099 258.868 37.3693 259.458 37.3693C260.049 37.3693 260.566 37.5099 261.01 37.7912C261.456 38.0724 261.802 38.4673 262.049 38.9759C262.299 39.4844 262.424 40.0795 262.424 40.7614C262.424 41.4375 262.299 42.0284 262.049 42.5341C261.802 43.0398 261.456 43.4332 261.01 43.7145C260.566 43.9957 260.049 44.1364 259.458 44.1364ZM259.458 43.233C259.907 43.233 260.277 43.1179 260.566 42.8878C260.856 42.6577 261.071 42.3551 261.21 41.9801C261.349 41.6051 261.419 41.1989 261.419 40.7614C261.419 40.3239 261.349 39.9162 261.21 39.5384C261.071 39.1605 260.856 38.8551 260.566 38.6222C260.277 38.3892 259.907 38.2727 259.458 38.2727C259.01 38.2727 258.64 38.3892 258.35 38.6222C258.061 38.8551 257.846 39.1605 257.707 39.5384C257.568 39.9162 257.498 40.3239 257.498 40.7614C257.498 41.1989 257.568 41.6051 257.707 41.9801C257.846 42.3551 258.061 42.6577 258.35 42.8878C258.64 43.1179 259.01 43.233 259.458 43.233ZM263.96 44V37.4545H264.931V38.4773H265.016C265.153 38.1278 265.373 37.8565 265.677 37.6634C265.981 37.4673 266.346 37.3693 266.772 37.3693C267.204 37.3693 267.563 37.4673 267.85 37.6634C268.14 37.8565 268.366 38.1278 268.528 38.4773H268.596C268.763 38.1392 269.015 37.8707 269.35 37.6719C269.685 37.4702 270.087 37.3693 270.556 37.3693C271.141 37.3693 271.62 37.5526 271.992 37.919C272.364 38.2827 272.55 38.8494 272.55 39.6193V44H271.545V39.6193C271.545 39.1364 271.413 38.7912 271.148 38.5838C270.884 38.3764 270.573 38.2727 270.215 38.2727C269.755 38.2727 269.398 38.4119 269.146 38.6903C268.893 38.9659 268.766 39.3153 268.766 39.7386V44H267.744V39.517C267.744 39.1449 267.623 38.8452 267.381 38.6179C267.14 38.3878 266.829 38.2727 266.448 38.2727C266.187 38.2727 265.942 38.3423 265.715 38.4815C265.491 38.6207 265.309 38.8139 265.17 39.0611C265.033 39.3054 264.965 39.5881 264.965 39.9091V44H263.96ZM274.389 44V37.4545H275.361V38.4773H275.446C275.582 38.1278 275.803 37.8565 276.107 37.6634C276.411 37.4673 276.776 37.3693 277.202 37.3693C277.634 37.3693 277.993 37.4673 278.28 37.6634C278.57 37.8565 278.795 38.1278 278.957 38.4773H279.026C279.193 38.1392 279.445 37.8707 279.78 37.6719C280.115 37.4702 280.517 37.3693 280.986 37.3693C281.571 37.3693 282.05 37.5526 282.422 37.919C282.794 38.2827 282.98 38.8494 282.98 39.6193V44H281.974V39.6193C281.974 39.1364 281.842 38.7912 281.578 38.5838C281.314 38.3764 281.003 38.2727 280.645 38.2727C280.185 38.2727 279.828 38.4119 279.575 38.6903C279.322 38.9659 279.196 39.3153 279.196 39.7386V44H278.173V39.517C278.173 39.1449 278.053 38.8452 277.811 38.6179C277.57 38.3878 277.259 38.2727 276.878 38.2727C276.616 38.2727 276.372 38.3423 276.145 38.4815C275.92 38.6207 275.739 38.8139 275.599 39.0611C275.463 39.3054 275.395 39.5881 275.395 39.9091V44H274.389ZM287.563 44.1364C286.933 44.1364 286.388 43.9972 285.931 43.7188C285.477 43.4375 285.126 43.0455 284.879 42.5426C284.634 42.0369 284.512 41.4489 284.512 40.7784C284.512 40.108 284.634 39.517 284.879 39.0057C285.126 38.4915 285.469 38.0909 285.91 37.804C286.353 37.5142 286.87 37.3693 287.461 37.3693C287.802 37.3693 288.138 37.4261 288.471 37.5398C288.803 37.6534 289.106 37.8381 289.379 38.0938C289.651 38.3466 289.869 38.6818 290.031 39.0994C290.192 39.517 290.273 40.0312 290.273 40.642V41.0682H285.228V40.1989H289.251C289.251 39.8295 289.177 39.5 289.029 39.2102C288.884 38.9205 288.677 38.6918 288.407 38.5241C288.14 38.3565 287.825 38.2727 287.461 38.2727C287.06 38.2727 286.714 38.3722 286.421 38.571C286.131 38.767 285.908 39.0227 285.752 39.3381C285.596 39.6534 285.518 39.9915 285.518 40.3523V40.9318C285.518 41.4261 285.603 41.8452 285.773 42.1889C285.947 42.5298 286.187 42.7898 286.494 42.9688C286.8 43.1449 287.157 43.233 287.563 43.233C287.827 43.233 288.066 43.196 288.279 43.1222C288.495 43.0455 288.681 42.9318 288.837 42.7812C288.994 42.6278 289.114 42.4375 289.2 42.2102L290.171 42.483C290.069 42.8125 289.897 43.1023 289.656 43.3523C289.414 43.5994 289.116 43.7926 288.761 43.9318C288.406 44.0682 288.006 44.1364 287.563 44.1364ZM291.803 44V37.4545H292.775V38.4432H292.843C292.962 38.1193 293.178 37.8565 293.491 37.6548C293.803 37.4531 294.156 37.3523 294.548 37.3523C294.621 37.3523 294.714 37.3537 294.825 37.3565C294.935 37.3594 295.019 37.3636 295.076 37.3693V38.392C295.042 38.3835 294.964 38.3707 294.842 38.3537C294.722 38.3338 294.596 38.3239 294.462 38.3239C294.144 38.3239 293.86 38.3906 293.61 38.5241C293.363 38.6548 293.167 38.8366 293.022 39.0696C292.88 39.2997 292.809 39.5625 292.809 39.858V44H291.803ZM298.728 44.1364C298.114 44.1364 297.586 43.9915 297.143 43.7017C296.7 43.4119 296.359 43.0128 296.12 42.5043C295.881 41.9957 295.762 41.4148 295.762 40.7614C295.762 40.0966 295.884 39.5099 296.129 39.0014C296.376 38.4901 296.719 38.0909 297.16 37.804C297.603 37.5142 298.12 37.3693 298.711 37.3693C299.171 37.3693 299.586 37.4545 299.955 37.625C300.325 37.7955 300.627 38.0341 300.863 38.3409C301.099 38.6477 301.245 39.0057 301.302 39.4148H300.296C300.219 39.1165 300.049 38.8523 299.785 38.6222C299.523 38.3892 299.171 38.2727 298.728 38.2727C298.336 38.2727 297.992 38.375 297.697 38.5795C297.404 38.7812 297.175 39.0668 297.011 39.4361C296.849 39.8026 296.768 40.233 296.768 40.7273C296.768 41.233 296.847 41.6733 297.006 42.0483C297.168 42.4233 297.396 42.7145 297.688 42.9219C297.984 43.1293 298.33 43.233 298.728 43.233C298.989 43.233 299.227 43.1875 299.44 43.0966C299.653 43.0057 299.833 42.875 299.981 42.7045C300.129 42.5341 300.234 42.3295 300.296 42.0909H301.302C301.245 42.4773 301.104 42.8253 300.88 43.1349C300.658 43.4418 300.364 43.6861 299.998 43.8679C299.634 44.0469 299.211 44.1364 298.728 44.1364ZM305.516 44.1364C304.886 44.1364 304.342 43.9972 303.884 43.7188C303.43 43.4375 303.079 43.0455 302.832 42.5426C302.587 42.0369 302.465 41.4489 302.465 40.7784C302.465 40.108 302.587 39.517 302.832 39.0057C303.079 38.4915 303.423 38.0909 303.863 37.804C304.306 37.5142 304.823 37.3693 305.414 37.3693C305.755 37.3693 306.092 37.4261 306.424 37.5398C306.756 37.6534 307.059 37.8381 307.332 38.0938C307.604 38.3466 307.822 38.6818 307.984 39.0994C308.146 39.517 308.227 40.0312 308.227 40.642V41.0682H303.181V40.1989H307.204C307.204 39.8295 307.13 39.5 306.982 39.2102C306.837 38.9205 306.63 38.6918 306.36 38.5241C306.093 38.3565 305.778 38.2727 305.414 38.2727C305.013 38.2727 304.667 38.3722 304.374 38.571C304.085 38.767 303.862 39.0227 303.705 39.3381C303.549 39.6534 303.471 39.9915 303.471 40.3523V40.9318C303.471 41.4261 303.556 41.8452 303.727 42.1889C303.9 42.5298 304.14 42.7898 304.447 42.9688C304.754 43.1449 305.11 43.233 305.516 43.233C305.781 43.233 306.019 43.196 306.232 43.1222C306.448 43.0455 306.634 42.9318 306.79 42.7812C306.947 42.6278 307.067 42.4375 307.153 42.2102L308.124 42.483C308.022 42.8125 307.85 43.1023 307.609 43.3523C307.367 43.5994 307.069 43.7926 306.714 43.9318C306.359 44.0682 305.96 44.1364 305.516 44.1364Z" fill="#7A7A7A"/>
</g>
<defs>
<filter id="filter0_d_11_2065" x="0" y="0" width="170" height="72" filterUnits="userSpaceOnUse" color-interpolation-filters="sRGB">
<feFlood flood-opacity="0" result="BackgroundImageFix"/>
<feColorMatrix in="SourceAlpha" type="matrix" values="0 0 0 0 0 0 0 0 0 0 0 0 0 0 0 0 0 0 127 0" result="hardAlpha"/>
<feOffset dy="4"/>
<feGaussianBlur stdDeviation="2"/>
<feComposite in2="hardAlpha" operator="out"/>
<feColorMatrix type="matrix" values="0 0 0 0 0 0 0 0 0 0 0 0 0 0 0 0 0 0 0.25 0"/>
<feBlend mode="normal" in2="BackgroundImageFix" result="effect1_dropShadow_11_2065"/>
<feBlend mode="normal" in="SourceGraphic" in2="effect1_dropShadow_11_2065" result="shape"/>
</filter>
<filter id="filter1_d_11_2065" x="173.716" y="19.2727" width="138.511" height="32.8806" filterUnits="userSpaceOnUse" color-interpolation-filters="sRGB">
<feFlood flood-opacity="0" result="BackgroundImageFix"/>
<feColorMatrix in="SourceAlpha" type="matrix" values="0 0 0 0 0 0 0 0 0 0 0 0 0 0 0 0 0 0 127 0" result="hardAlpha"/>
<feOffset dy="4"/>
<feGaussianBlur stdDeviation="2"/>
<feComposite in2="hardAlpha" operator="out"/>
<feColorMatrix type="matrix" values="0 0 0 0 0 0 0 0 0 0 0 0 0 0 0 0 0 0 0.25 0"/>
<feBlend mode="normal" in2="BackgroundImageFix" result="effect1_dropShadow_11_2065"/>
<feBlend mode="normal" in="SourceGraphic" in2="effect1_dropShadow_11_2065" result="shape"/>
</filter>
<clipPath id="clip0_11_2065">
<rect width="162" height="64" fill="white" transform="translate(4)"/>
</clipPath>
</defs>
</svg>
