<svg width="16" height="16" xmlns="http://www.w3.org/2000/svg" fill="none">

 <g>
  <title>Layer 1</title>
  <path id="svg_1" fill="#da2128" d="m10.6546,10.2255l0.4465,-0.44648c0.1233,-0.12331 0.1269,-0.31958 0.0081,-0.43842l-0.8609,-0.86082c-0.1188,-0.11884 -0.31508,-0.11522 -0.4384,0.00809l-0.55816,0.55814c-0.18505,0.18505 -0.47946,0.19048 -0.65781,0.01214l-1.7217,-1.72164c-0.17834,-0.17834 -0.17291,-0.47274 0.01214,-0.65778l0.55816,-0.5583c0.12332,-0.12331 0.12694,-0.31958 0.00809,-0.43842l-0.86085,-0.86081c-0.11884,-0.11885 -0.31512,-0.11523 -0.43843,0.00808l-0.44653,0.44667c-0.98653,0.98665 -0.68061,2.22221 0.27017,3.17296l1.50637,1.50647c0.95093,0.95072 2.18669,1.25682 3.17325,0.27012z"/>
  <path id="svg_2" fill="#da2128" d="m8,14.5c3.5899,0 6.5,-2.9101 6.5,-6.5c0,-3.58985 -2.9101,-6.5 -6.5,-6.5c-3.58985,0 -6.5,2.91015 -6.5,6.5c0,3.5899 2.91015,6.5 6.5,6.5zm0,1.5c4.4183,0 8,-3.5817 8,-8c0,-4.41828 -3.5817,-8 -8,-8c-4.41828,0 -8,3.58172 -8,8c0,4.4183 3.58172,8 8,8z" clip-rule="evenodd" fill-rule="evenodd"/>
 </g>
</svg>