<svg width="16" height="16" viewBox="0 0 16 16" fill="none" xmlns="http://www.w3.org/2000/svg">
<path d="M10.6546 10.2255L11.1011 9.77902C11.2244 9.65571 11.228 9.45944 11.1092 9.3406L10.2483 8.47978C10.1295 8.36094 9.93322 8.36456 9.8099 8.48787L9.25174 9.04601C9.06669 9.23106 8.77228 9.23649 8.59393 9.05815L6.87223 7.33651C6.69389 7.15817 6.69932 6.86377 6.88437 6.67873L7.44253 6.12043C7.56585 5.99712 7.56947 5.80085 7.45062 5.68201L6.58977 4.8212C6.47093 4.70235 6.27465 4.70597 6.15134 4.82928L5.70481 5.27595C4.71828 6.2626 5.0242 7.49816 5.97498 8.44891L7.48135 9.95538C8.43228 10.9061 9.66804 11.2122 10.6546 10.2255Z" fill="#ACACAC"/>
<path fill-rule="evenodd" clip-rule="evenodd" d="M8 14.5C11.5899 14.5 14.5 11.5899 14.5 8C14.5 4.41015 11.5899 1.5 8 1.5C4.41015 1.5 1.5 4.41015 1.5 8C1.5 11.5899 4.41015 14.5 8 14.5ZM8 16C12.4183 16 16 12.4183 16 8C16 3.58172 12.4183 0 8 0C3.58172 0 0 3.58172 0 8C0 12.4183 3.58172 16 8 16Z" fill="#ACACAC"/>
</svg>
