<svg width="24" height="25" viewBox="0 0 24 25" fill="none" xmlns="http://www.w3.org/2000/svg">
<path fill-rule="evenodd" clip-rule="evenodd" d="M4.87809 2.47616C5.64634 1.70794 6.89177 1.70794 7.66002 2.47616L10.396 5.21203C11.1642 5.98023 11.1642 7.22561 10.3961 7.99386L8.68641 9.70396C8.51012 9.88024 8.51002 10.1656 8.68631 10.3418L14.1582 15.8136C14.3345 15.9899 14.6198 15.9899 14.7961 15.8136L16.5058 14.104C17.2741 13.3357 18.5195 13.3357 19.2877 14.104L22.0237 16.8398C22.792 17.6081 22.792 18.8535 22.0237 19.6218L20.656 20.9894C18.9277 22.7179 16.8894 23.3295 14.8429 23.025C12.8433 22.7275 10.9337 21.5733 9.32379 19.9637L4.53616 15.1758C2.9265 13.5662 1.77234 11.6568 1.47489 9.65739C1.17046 7.61107 1.78206 5.57288 3.51023 3.84446L4.87809 2.47616ZM6.26906 3.91363L4.92466 5.25845C3.63108 6.5522 3.24465 7.9618 3.45311 9.36309C3.66856 10.8113 4.53822 12.3495 5.95034 13.7615L10.7379 18.5494C12.1502 19.9614 13.6888 20.8313 15.1372 21.0468C16.5387 21.2553 17.9482 20.8689 19.2417 19.5753L20.5862 18.2308L17.8968 15.5414L16.2103 17.2278C15.253 18.1851 13.7014 18.1851 12.744 17.2278L7.27212 11.7561C6.31478 10.7988 6.31475 9.24726 7.27202 8.28992L8.95852 6.603L6.26906 3.91363Z" fill="#DA2128"/>
</svg>
