<svg width="15" height="15" xmlns="http://www.w3.org/2000/svg" fill="none">

 <g>
  <title>Layer 1</title>
  <path id="svg_1" fill="#da2128" d="m0.49114,0.69255c0.39052,-0.39052 1.02369,-0.39052 1.41421,0l12.20095,12.20095c0.3906,0.3906 0.3906,1.0237 0,1.4143c-0.3905,0.3905 -1.0236,0.3905 -1.4142,0l-12.20096,-12.20103c-0.39053,-0.39053 -0.39053,-1.02369 0,-1.41422z" clip-rule="evenodd" fill-rule="evenodd"/>
  <path id="svg_2" fill="#da2128" d="m14.1063,0.69255c-0.3905,-0.39052 -1.0237,-0.39052 -1.4142,0l-12.20096,12.20095c-0.39053,0.3906 -0.39053,1.0237 0,1.4143c0.39052,0.3905 1.02368,0.3905 1.41421,0l12.20095,-12.20103c0.3906,-0.39053 0.3906,-1.02369 0,-1.41422z" clip-rule="evenodd" fill-rule="evenodd"/>
 </g>
</svg>