<svg width="15" height="15" viewBox="0 0 15 15" fill="none" xmlns="http://www.w3.org/2000/svg">
<path fill-rule="evenodd" clip-rule="evenodd" d="M0.491137 0.692552C0.881661 0.302028 1.51483 0.302028 1.90535 0.692552L14.1063 12.8935C14.4969 13.2841 14.4969 13.9172 14.1063 14.3078C13.7158 14.6983 13.0827 14.6983 12.6921 14.3078L0.491137 2.10677C0.100612 1.71624 0.100612 1.08308 0.491137 0.692552Z" fill="#ACACAC"/>
<path fill-rule="evenodd" clip-rule="evenodd" d="M14.1063 0.692551C13.7158 0.302027 13.0826 0.302027 12.6921 0.692551L0.491136 12.8935C0.100611 13.2841 0.100611 13.9172 0.491136 14.3078C0.88166 14.6983 1.51482 14.6983 1.90535 14.3078L14.1063 2.10677C14.4969 1.71624 14.4969 1.08308 14.1063 0.692551Z" fill="#ACACAC"/>
</svg>
