<svg width="20" height="21" viewBox="0 0 20 21" fill="none" xmlns="http://www.w3.org/2000/svg">
<path fill-rule="evenodd" clip-rule="evenodd" d="M12.4349 13.0358C14.3876 11.0832 14.3876 7.91733 12.4349 5.96471C10.4823 4.01209 7.3165 4.01209 5.36388 5.96471C3.41126 7.91733 3.41126 11.0832 5.36388 13.0358C7.3165 14.9884 10.4823 14.9884 12.4349 13.0358ZM13.8492 14.45C16.5828 11.7163 16.5828 7.28417 13.8492 4.5505C11.1155 1.81683 6.68334 1.81683 3.94967 4.5505C1.216 7.28417 1.216 11.7163 3.94967 14.45C6.68334 17.1837 11.1155 17.1837 13.8492 14.45Z" fill="#A5A5A5"/>
<path fill-rule="evenodd" clip-rule="evenodd" d="M12.4349 13.0358C12.8255 12.6453 13.4586 12.6453 13.8491 13.0358L17.3847 16.5713C17.7752 16.9618 17.7752 17.595 17.3847 17.9855C16.9942 18.3761 16.361 18.3761 15.9705 17.9855L12.4349 14.45C12.0444 14.0595 12.0444 13.4263 12.4349 13.0358Z" fill="#A5A5A5"/>
</svg>
