<svg width="20" height="20" xmlns="http://www.w3.org/2000/svg" fill="none">

 <g>
  <title>Layer 1</title>
  <path id="svg_1" fill="#da2128" d="m11.3732,10.805l0,8.195l-3.22458,0l0,-8.195l-2.14862,0l0,-2.34804l2.14971,0l0,-1.36403l0,-0.82465l0,-0.13784c0,-0.79349 -0.19523,-2.01967 0.33233,-2.7808c0.55717,-0.80307 1.21415,-1.34964 2.52806,-1.34964c2.141,0 2.9899,0.33322 2.9899,0.33322l-0.4508,2.74843c0,0 -0.4859,-0.22295 -1.1461,-0.22295c-0.6603,0 -1.0299,0.25771 -1.0299,0.97928l0,0.29246l0,0.96129l0,1.36523l2.2374,0l-0.1886,2.34804l-2.0488,0z"/>
 </g>
</svg>