<svg width="20" height="20" xmlns="http://www.w3.org/2000/svg" fill="none">

 <g>
  <title>Layer 1</title>
  <path id="svg_1" fill="#da2128" d="m1,9c0,-3.77124 0,-5.65685 1.17157,-6.82843c1.17158,-1.17157 3.05719,-1.17157 6.82843,-1.17157l2,0c3.7712,0 5.6569,0 6.8284,1.17157c1.1716,1.17158 1.1716,3.05719 1.1716,6.82843l0,2c0,3.7712 0,5.6569 -1.1716,6.8284c-1.1715,1.1716 -3.0572,1.1716 -6.8284,1.1716l-2,0c-3.77124,0 -5.65685,0 -6.82843,-1.1716c-1.17157,-1.1715 -1.17157,-3.0572 -1.17157,-6.8284l0,-2zm9,4c1.6569,0 3,-1.3431 3,-3c0,-1.65685 -1.3431,-3 -3,-3c-1.65685,0 -3,1.34315 -3,3c0,1.6569 1.34315,3 3,3zm0,2c2.7614,0 5,-2.2386 5,-5c0,-2.76142 -2.2386,-5 -5,-5c-2.76142,0 -5,2.23858 -5,5c0,2.7614 2.23858,5 5,5zm5.5,-9c0.8284,0 1.5,-0.67157 1.5,-1.5c0,-0.82843 -0.6716,-1.5 -1.5,-1.5c-0.8284,0 -1.5,0.67157 -1.5,1.5c0,0.82843 0.6716,1.5 1.5,1.5z" clip-rule="evenodd" fill-rule="evenodd"/>
 </g>
</svg>