<svg width="20" height="20" xmlns="http://www.w3.org/2000/svg" fill="none">

 <g>
  <title>Layer 1</title>
  <path id="svg_1" fill="#da2128" d="m19,4.77615c-0.662,0.30159 -1.3734,0.50418 -2.1196,0.59627c0.7619,-0.4685 1.3476,-1.21096 1.6225,-2.095c-0.7136,0.43396 -1.5035,0.74936 -2.3439,0.91857c-0.6733,-0.7367 -1.6326,-1.19599 -2.6941,-1.19599c-2.0388,0 -3.69156,1.69557 -3.69156,3.78712c0,0.29699 0.03254,0.58591 0.09538,0.86333c-3.0677,-0.15885 -5.78756,-1.66564 -7.60865,-3.95749c-0.31754,0.55944 -0.49932,1.20981 -0.49932,1.90392c0,1.31341 0.43312,2.47257 1.42389,3.15172c-0.60479,-0.01957 -0.76749,-0.18993 -1.88954,-0.4731c0,0.01611 0,0.03108 0,0.04719c0,1.83481 1.49009,3.36471 3.17878,3.71341c-0.30969,0.0864 -0.52736,0.1324 -0.86398,0.1324c-0.23788,0 -0.41404,-0.0242 -0.63957,-0.0679c0.47014,1.5045 1.86036,2.5992 3.475,2.6303c-1.26343,1.0152 -2.84104,1.6207 -4.57125,1.6207c-0.29847,0 -0.58459,-0.0184 -0.87408,-0.0529c1.63371,1.074 3.57711,1.7013 5.66189,1.7013c6.78951,0 10.50471,-5.7705 10.50471,-10.77431c0,-0.1646 -0.0023,-0.32691 -0.0101,-0.49037c0.7226,-0.53296 1.3487,-1.2006 1.8435,-1.95917z"/>
 </g>
</svg>