<svg width="20" height="20" viewBox="0 0 20 20" fill="none" xmlns="http://www.w3.org/2000/svg">
<path d="M19 4.77615C18.338 5.07774 17.6266 5.28033 16.8804 5.37242C17.6423 4.90392 18.228 4.16146 18.5029 3.27742C17.7893 3.71138 16.9994 4.02678 16.159 4.19599C15.4857 3.45929 14.5264 3 13.4649 3C11.4261 3 9.77334 4.69557 9.77334 6.78712C9.77334 7.08411 9.80588 7.37303 9.86872 7.65045C6.80102 7.4916 4.08116 5.98481 2.26007 3.69296C1.94253 4.2524 1.76075 4.90277 1.76075 5.59688C1.76075 6.91029 2.19387 8.06945 3.18464 8.7486C2.57985 8.72903 2.41715 8.55867 1.2951 8.2755C1.2951 8.29161 1.2951 8.30658 1.2951 8.32269C1.2951 10.1575 2.78519 11.6874 4.47388 12.0361C4.16419 12.1225 3.94652 12.1685 3.6099 12.1685C3.37202 12.1685 3.19586 12.1443 2.97033 12.1006C3.44047 13.6051 4.83069 14.6998 6.44533 14.7309C5.1819 15.7461 3.60429 16.3516 1.87408 16.3516C1.57561 16.3516 1.28949 16.3332 1 16.2987C2.63371 17.3727 4.57711 18 6.66189 18C13.4514 18 17.1666 12.2295 17.1666 7.22569C17.1666 7.06109 17.1643 6.89878 17.1565 6.73532C17.8791 6.20236 18.5052 5.53472 19 4.77615Z" fill="white"/>
</svg>
