<svg width="20" height="20" viewBox="0 0 20 20" fill="none" xmlns="http://www.w3.org/2000/svg">
<path fill-rule="evenodd" clip-rule="evenodd" d="M1 9C1 5.22876 1 3.34315 2.17157 2.17157C3.34315 1 5.22876 1 9 1H11C14.7712 1 16.6569 1 17.8284 2.17157C19 3.34315 19 5.22876 19 9V11C19 14.7712 19 16.6569 17.8284 17.8284C16.6569 19 14.7712 19 11 19H9C5.22876 19 3.34315 19 2.17157 17.8284C1 16.6569 1 14.7712 1 11V9ZM10 13C11.6569 13 13 11.6569 13 10C13 8.34315 11.6569 7 10 7C8.34315 7 7 8.34315 7 10C7 11.6569 8.34315 13 10 13ZM10 15C12.7614 15 15 12.7614 15 10C15 7.23858 12.7614 5 10 5C7.23858 5 5 7.23858 5 10C5 12.7614 7.23858 15 10 15ZM15.5 6C16.3284 6 17 5.32843 17 4.5C17 3.67157 16.3284 3 15.5 3C14.6716 3 14 3.67157 14 4.5C14 5.32843 14.6716 6 15.5 6Z" fill="white"/>
</svg>
