<svg width="20" height="20" viewBox="0 0 20 20" fill="none" xmlns="http://www.w3.org/2000/svg">
<path fill-rule="evenodd" clip-rule="evenodd" d="M1.27948 12.946C2.04525 12.1802 3.08386 11.75 4.16683 11.75H10.8335C11.9165 11.75 12.9551 12.1802 13.7208 12.946C14.4866 13.7118 14.9168 14.7504 14.9168 15.8333V17.5C14.9168 17.9142 14.581 18.25 14.1668 18.25C13.7526 18.25 13.4168 17.9142 13.4168 17.5V15.8333C13.4168 15.1482 13.1447 14.4911 12.6602 14.0066C12.1757 13.5222 11.5186 13.25 10.8335 13.25H4.16683C3.48169 13.25 2.82461 13.5222 2.34014 14.0066C1.85567 14.4911 1.5835 15.1482 1.5835 15.8333V17.5C1.5835 17.9142 1.24771 18.25 0.833496 18.25C0.419283 18.25 0.0834961 17.9142 0.0834961 17.5V15.8333C0.0834961 14.7504 0.513703 13.7118 1.27948 12.946Z" fill="white"/>
<path fill-rule="evenodd" clip-rule="evenodd" d="M7.49984 3.25C6.0731 3.25 4.9165 4.4066 4.9165 5.83333C4.9165 7.26007 6.0731 8.41667 7.49984 8.41667C8.92657 8.41667 10.0832 7.26007 10.0832 5.83333C10.0832 4.4066 8.92657 3.25 7.49984 3.25ZM3.4165 5.83333C3.4165 3.57817 5.24467 1.75 7.49984 1.75C9.755 1.75 11.5832 3.57817 11.5832 5.83333C11.5832 8.0885 9.755 9.91667 7.49984 9.91667C5.24467 9.91667 3.4165 8.0885 3.4165 5.83333Z" fill="white"/>
<path fill-rule="evenodd" clip-rule="evenodd" d="M15.9405 12.4208C16.0441 12.0198 16.4531 11.7786 16.8542 11.8822C17.7302 12.1083 18.5063 12.619 19.0606 13.3341C19.6149 14.0491 19.916 14.928 19.9167 15.8328L19.9167 17.5C19.9167 17.9142 19.5809 18.25 19.1667 18.25C18.7525 18.25 18.4167 17.9142 18.4167 17.5V15.8339C18.4167 15.8338 18.4167 15.8339 18.4167 15.8339C18.4162 15.2616 18.2257 14.7054 17.8751 14.2531C17.5244 13.8007 17.0334 13.4776 16.4792 13.3345C16.0781 13.231 15.8369 12.8219 15.9405 12.4208Z" fill="white"/>
<path fill-rule="evenodd" clip-rule="evenodd" d="M12.6066 2.42231C12.7094 2.02104 13.1179 1.77903 13.5192 1.88177C14.3976 2.10666 15.1761 2.61749 15.732 3.33371C16.288 4.04994 16.5897 4.93083 16.5897 5.8375C16.5897 6.74418 16.288 7.62506 15.732 8.34129C15.1761 9.05751 14.3976 9.56834 13.5192 9.79323C13.1179 9.89597 12.7094 9.65397 12.6066 9.2527C12.5039 8.85143 12.7459 8.44285 13.1472 8.34011C13.7028 8.19783 14.1954 7.87465 14.5471 7.42153C14.8988 6.96841 15.0897 6.41111 15.0897 5.8375C15.0897 5.26389 14.8988 4.7066 14.5471 4.25347C14.1954 3.80035 13.7028 3.47717 13.1472 3.3349C12.7459 3.23216 12.5039 2.82357 12.6066 2.42231Z" fill="white"/>
</svg>
