<svg xmlns="http://www.w3.org/2000/svg" viewBox="0 0 143 116"><defs><style>.cls-1{fill:#989898;}</style></defs><g id="Layer_2" data-name="Layer 2"><g id="Layer_1-2" data-name="Layer 1"><path class="cls-1" d="M2.1,3.75A3.22,3.22,0,0,1,5.5.27,3.22,3.22,0,0,1,8.9,3.75v9.48H23.14V3.75A3.22,3.22,0,0,1,26.54.27,3.23,3.23,0,0,1,30,3.75V29.14a3.23,3.23,0,0,1-3.41,3.49,3.23,3.23,0,0,1-3.4-3.49V19.4H8.9v9.74a3.23,3.23,0,0,1-3.4,3.49,3.23,3.23,0,0,1-3.4-3.49Z"/><path class="cls-1" d="M43.32,3.71A5.32,5.32,0,0,1,48.18,0,5.11,5.11,0,0,1,53,3.71L61.92,28a5.2,5.2,0,0,1,.36,1.66,3,3,0,0,1-3.13,3,3.18,3.18,0,0,1-3.31-2.33l-1.36-4.2H41.87l-1.36,4.16a3.15,3.15,0,0,1-3.27,2.37,3.23,3.23,0,0,1-3.35-3.13A3.82,3.82,0,0,1,34.21,28Zm.5,16.22h8.62L48.22,7h-.09Z"/><path class="cls-1" d="M66.22,4A3.24,3.24,0,0,1,69.76.54h8C84.45.54,89.4,4.83,89.4,11.22S84.27,21.81,78.06,21.81H73v7.33a3.41,3.41,0,1,1-6.81,0ZM73,15.91h4.62a4.5,4.5,0,0,0,4.67-4.74,4.49,4.49,0,0,0-4.67-4.73H73Z"/><path class="cls-1" d="M93.25,4A3.24,3.24,0,0,1,96.79.54h8c6.66,0,11.61,4.29,11.61,10.68s-5.13,10.59-11.34,10.59h-5v7.33a3.4,3.4,0,1,1-6.8,0Zm6.8,11.89h4.63a4.5,4.5,0,0,0,4.67-4.74,4.49,4.49,0,0,0-4.67-4.73h-4.63Z"/><path class="cls-1" d="M127,17.43,118.42,5.54a3.5,3.5,0,0,1-.63-2A3.2,3.2,0,0,1,121.05.27a3.35,3.35,0,0,1,2.81,1.34L130.39,11l6.54-9.34A3.34,3.34,0,0,1,139.74.27,3.2,3.2,0,0,1,143,3.53a3.5,3.5,0,0,1-.63,2L133.8,17.43V29.36a3.41,3.41,0,0,1-6.81,0Z"/><path class="cls-1" d="M22,69.56c4.67,0,13.76,1.52,13.76,7.07a4,4,0,0,1-4,4.23c-2.62,0-4.42-2.21-9.79-2.21-7.94,0-12,6.62-12,14.32,0,7.51,4.17,13.94,12,13.94,5.37,0,7.55-2.65,10.17-2.65,2.88,0,4.23,2.84,4.23,4.29,0,6.06-9.67,7.45-14.4,7.45C9,116,0,105.84,0,92.78S9,69.56,22,69.56Z"/><path class="cls-1" d="M43.46,74.86a4.56,4.56,0,0,1,4.8-4.92,4.56,4.56,0,0,1,4.8,4.92v31.68H64.45a4.31,4.31,0,0,1,4.61,4.54,4.45,4.45,0,0,1-4.61,4.16h-16c-3.14,0-5-2-5-5.17Z"/><path class="cls-1" d="M73.28,74.86a4.8,4.8,0,1,1,9.6,0V110.7a4.8,4.8,0,1,1-9.6,0Z"/><path class="cls-1" d="M95.87,74.8a6.42,6.42,0,0,1,6.28-4.86,6.83,6.83,0,0,1,6.4,4.54l7.55,25h.13l7.55-25a6.82,6.82,0,0,1,6.4-4.54,6.41,6.41,0,0,1,6.27,4.86l6,35.21a6.71,6.71,0,0,1,.06,1.07,4.41,4.41,0,0,1-4.61,4.54c-3.26,0-4.54-1.45-5-4.42l-3.78-25.67H129L121.28,112A5.41,5.41,0,0,1,111,112l-7.68-26.43h-.13L99.46,111.2c-.45,3-1.73,4.42-5,4.42a4.41,4.41,0,0,1-4.61-4.54,6.71,6.71,0,0,1,.06-1.07Z"/><path class="cls-1" d="M6.25,51.63l-4-5.42A1.76,1.76,0,0,1,3.7,43.34a2.13,2.13,0,0,1,1.63.91l3.09,4.32,3.09-4.32a2.13,2.13,0,0,1,1.63-.91,1.76,1.76,0,0,1,1.49,2.87l-4,5.42,4.94,6.54A2.21,2.21,0,0,1,16,59.42a1.74,1.74,0,0,1-1.9,1.73,1.83,1.83,0,0,1-1.55-.82L8.42,54.72,4.33,60.33a1.83,1.83,0,0,1-1.55.82,1.74,1.74,0,0,1-1.9-1.73,2.21,2.21,0,0,1,.43-1.25Z"/><path class="cls-1" d="M18.17,45.62a1.88,1.88,0,0,1,1.95-2.14h6.19a1.65,1.65,0,0,1,1.77,1.7,1.68,1.68,0,0,1-1.77,1.7h-4.4v3.59H26a1.68,1.68,0,0,1,1.82,1.7A1.71,1.71,0,0,1,26,53.86h-4.1V57.6h4.62a1.65,1.65,0,0,1,1.77,1.7A1.68,1.68,0,0,1,26.53,61H20.09a1.81,1.81,0,0,1-1.92-1.85Z"/><path class="cls-1" d="M34.44,46.88v12.3a1.86,1.86,0,1,1-3.72,0V45.3a1.77,1.77,0,0,1,1.9-1.82h11.3a1.78,1.78,0,0,1,1.87,1.82V59.18a1.86,1.86,0,1,1-3.72,0V46.88Z"/><path class="cls-1" d="M60.58,50.12h0l-7.11,9.11c-1.17,1.5-1.55,1.92-2.54,1.92a1.75,1.75,0,0,1-1.85-2V45.3a1.86,1.86,0,1,1,3.72,0v9h0l7.11-9.08c1.17-1.5,1.55-1.91,2.54-1.91a1.78,1.78,0,0,1,1.88,2V59.18a1.88,1.88,0,1,1-3.75,0Z"/><path class="cls-1" d="M67.56,45.15a1.79,1.79,0,0,1,1.88-1.81,1.74,1.74,0,0,1,1.87,1.81v5.32L77.45,44a2,2,0,0,1,1.44-.68,1.8,1.8,0,0,1,1.85,1.77c0,.64-.4,1.15-1.22,2L74.8,51.65l5.77,5.93a2.7,2.7,0,0,1,1,1.87,1.73,1.73,0,0,1-1.94,1.7c-.73,0-1.2-.42-1.9-1.16L71.31,53.1v6.27a1.79,1.79,0,0,1-1.87,1.78,1.74,1.74,0,0,1-1.88-1.78Z"/><path class="cls-1" d="M89.24,55.44c-.47,3.76-2.44,5.71-4.84,5.71a1.73,1.73,0,0,1-1.82-1.87,1.43,1.43,0,0,1,1-1.46c1-.39,1.78-1,2.1-3.64l1.1-8.88a1.83,1.83,0,0,1,1.87-1.82h8.46A1.78,1.78,0,0,1,99,45.3V59.18a1.86,1.86,0,1,1-3.72,0V46.88h-5Z"/><path class="cls-1" d="M113.79,50.12h-.05l-7.11,9.11c-1.17,1.5-1.55,1.92-2.55,1.92a1.75,1.75,0,0,1-1.84-2V45.3a1.86,1.86,0,1,1,3.72,0v9H106l7.11-9.08c1.17-1.5,1.55-1.91,2.54-1.91a1.77,1.77,0,0,1,1.87,2V59.18a1.87,1.87,0,1,1-3.74,0Z"/><path class="cls-1" d="M122.59,45.23A2.5,2.5,0,0,1,125,43.34a2.66,2.66,0,0,1,2.5,1.77l2.94,9.74h.05l2.94-9.74a2.66,2.66,0,0,1,2.5-1.77,2.5,2.5,0,0,1,2.45,1.89L140.74,59a3,3,0,0,1,0,.41,1.87,1.87,0,0,1-3.74.05l-1.47-10h-.05l-3,10.31a2.11,2.11,0,0,1-4,0l-3-10.31h0l-1.48,10a1.87,1.87,0,0,1-3.74-.05,3,3,0,0,1,0-.41Z"/></g></g></svg>