<svg xmlns="http://www.w3.org/2000/svg" viewBox="0 0 56 56"><defs><style>.cls-1{fill:#8d0d57;}.cls-2{fill:#fff;}</style></defs><g id="Layer_2" data-name="Layer 2"><g id="Layer_1-2" data-name="Layer 1"><circle class="cls-1" cx="28" cy="28" r="28"/><path class="cls-2" d="M28,28.54a8.26,8.26,0,1,0-8.31-8.26A8.27,8.27,0,0,0,28,28.54Zm0-11.67a3.41,3.41,0,1,1-3.41,3.41A3.35,3.35,0,0,1,28,16.87Z"/><path class="cls-2" d="M31.35,35.31a15.67,15.67,0,0,0,4.79-2,2.43,2.43,0,1,0-2.61-4.1,10.49,10.49,0,0,1-11.13,0,2.39,2.39,0,1,0-2.52,4.05,15.83,15.83,0,0,0,4.8,2l-4.6,4.6a2.41,2.41,0,0,0,0,3.41,2.36,2.36,0,0,0,1.73.69,2.58,2.58,0,0,0,1.73-.69l4.55-4.55,4.55,4.55a2.41,2.41,0,0,0,3.41-3.41Z"/></g></g></svg>