<svg xmlns="http://www.w3.org/2000/svg" viewBox="0 0 223.72 115.66"><defs><style>.cls-1{fill:#989898;}</style></defs><g id="Layer_2" data-name="Layer 2"><g id="Layer_1-2" data-name="Layer 1"><g id="Layer_1-2-2" data-name="Layer 1-2"><path class="cls-1" d="M4.55,113.87V114a.2.2,0,0,1-.15,0H3.54a.2.2,0,0,1-.15,0v-.51a3.56,3.56,0,0,1-2.21-.91,3.06,3.06,0,0,1-.56-3.18,2.54,2.54,0,0,1,.6-.91,3.19,3.19,0,0,1,1-.63,4.46,4.46,0,0,1,1.24-.33v-.37a.38.38,0,0,1,.15,0H4.4a.38.38,0,0,1,.15,0v.37a3.68,3.68,0,0,1,2.3.91,2.8,2.8,0,0,1,.79,2.09,2.72,2.72,0,0,1-.22,1.16,2.61,2.61,0,0,1-.63.91,3.36,3.36,0,0,1-1,.63,4.87,4.87,0,0,1-1.26.26Zm1.93-3.4a2.27,2.27,0,0,0-.11-.73,1.49,1.49,0,0,0-.33-.62,2,2,0,0,0-.59-.45,2.73,2.73,0,0,0-.88-.23v4.06a2.44,2.44,0,0,0,.87-.23,1.85,1.85,0,0,0,.59-.45,1.78,1.78,0,0,0,.35-.63,2,2,0,0,0,.11-.73m-3.15-2a2.34,2.34,0,0,0-.79.24,2.19,2.19,0,0,0-.59.46,1.89,1.89,0,0,0-.35.6,2.22,2.22,0,0,0-.12.72,2.33,2.33,0,0,0,.11.74,1.64,1.64,0,0,0,.34.62,2,2,0,0,0,.57.44,2.76,2.76,0,0,0,.84.23Zm9.18,4.07H10l-.44,1.35a.26.26,0,0,1-.08.13.25.25,0,0,1-.17,0H8.39a.13.13,0,0,1-.14-.07.17.17,0,0,1,0-.14l2.14-6.29a1.22,1.22,0,0,1,.1-.24.37.37,0,0,1,.12-.13.53.53,0,0,1,.17-.08h.68a.77.77,0,0,1,.44.1.85.85,0,0,1,.22.38l2.2,6.28a.17.17,0,0,1,0,.14.21.21,0,0,1-.13.07h-.91a.54.54,0,0,1-.18,0,.21.21,0,0,1-.1-.13Zm-2.21-1h1.91l-.52-1.66-.42-1.41h0l-.41,1.38Zm6.26,2.34V114a.28.28,0,0,1-.18,0h-.81a.43.43,0,0,1-.16,0,.32.32,0,0,1-.06-.17v-6.18a.68.68,0,0,1,.11-.42.56.56,0,0,1,.44-.15h2.36a2.57,2.57,0,0,1,.91.16,1.85,1.85,0,0,1,.7.44,2.08,2.08,0,0,1,.47.67,2.33,2.33,0,0,1,.15.86,2.74,2.74,0,0,1-.08.64,2,2,0,0,1-.34.72,2,2,0,0,1-.71.59,2.59,2.59,0,0,1-1.2.25H16.56Zm2.71-4.55a2.41,2.41,0,0,0,0-.38,1,1,0,0,0-.19-.36,1.08,1.08,0,0,0-.38-.28,1.56,1.56,0,0,0-.6-.11H16.57v2.21h1.49A1.23,1.23,0,0,0,19,110a1.1,1.1,0,0,0,.28-.78m8.16,0h-.05l-.53,1.34L26,112.81a1.24,1.24,0,0,1-.22.34.56.56,0,0,1-.35.09H25a.56.56,0,0,1-.35-.09,1.08,1.08,0,0,1-.21-.34l-.87-2.1L23,109.38h0V114a.28.28,0,0,1-.18,0H22a.28.28,0,0,1-.18,0,.3.3,0,0,1-.05-.16v-6.1a.66.66,0,0,1,.12-.45.52.52,0,0,1,.46-.14h.41a.71.71,0,0,1,.38.08.91.91,0,0,1,.24.37l1.19,2.9.61,1.54h0l.62-1.54L27,107.56a.57.57,0,0,1,.65-.45H28a.61.61,0,0,1,.45.13.72.72,0,0,1,.13.45V114a.28.28,0,0,1-.18,0h-.7a.25.25,0,0,1-.17,0,.35.35,0,0,1-.05-.16Zm6.51,3.3H31.41L31,113.87a.38.38,0,0,1-.09.13.28.28,0,0,1-.18,0h-.94a.13.13,0,0,1-.14-.07.17.17,0,0,1,0-.14l2.14-6.29a2.44,2.44,0,0,1,.1-.24.4.4,0,0,1,.13-.13.71.71,0,0,1,.18-.08h.67a.59.59,0,0,1,.68.48l2.15,6.28a.17.17,0,0,1,0,.14.21.21,0,0,1-.14.07h-.91a.54.54,0,0,1-.18,0,.19.19,0,0,1-.1-.13Zm-2.2-1h1.9l-.52-1.67-.41-1.41h0l-.41,1.38ZM42.3,113h.39l.22.07a.35.35,0,0,1,.11.1v.25l-.12,2.11v.14a.11.11,0,0,1-.11,0h-.74c-.1,0-.16-.05-.16-.17L41.83,114H37.42a.62.62,0,0,1-.47-.17.68.68,0,0,1-.16-.51v-6.21a.17.17,0,0,1,.14,0h.84a.2.2,0,0,1,.15,0,.15.15,0,0,1,0,.13V113H41v-5.86a.17.17,0,0,1,.14,0h.91a.19.19,0,0,1,.15,0v.13Zm6.74.86a.48.48,0,0,1,0,.17.24.24,0,0,1-.18.07H46a2.34,2.34,0,0,1-.86-.16,1.41,1.41,0,0,1-.54-.4,1.29,1.29,0,0,1-.28-.56,2.44,2.44,0,0,1-.08-.66v-3.43a2.18,2.18,0,0,1,.1-.67,1.63,1.63,0,0,1,.31-.58,1.53,1.53,0,0,1,.55-.39,2.08,2.08,0,0,1,.81-.15h2.94a.48.48,0,0,1,0,.17V108a.43.43,0,0,1,0,.16H46.1a.59.59,0,0,0-.68.65v1h3.17a.61.61,0,0,1,0,.19v.54a.54.54,0,0,1,0,.18H45.42v1.44a.66.66,0,0,0,.17.48.68.68,0,0,0,.51.16H49a.31.31,0,0,1,0,.19Zm5.51-3.58a1.86,1.86,0,0,1,.49.29,1.7,1.7,0,0,1,.33.42,1.64,1.64,0,0,1,.18.48,1.88,1.88,0,0,1,.07.53,2,2,0,0,1-.19.85,1.87,1.87,0,0,1-.49.66,2.21,2.21,0,0,1-.74.43,2.81,2.81,0,0,1-.91.16H50.87a.55.55,0,0,1-.44-.14.59.59,0,0,1-.12-.43v-5.86a.59.59,0,0,1,.12-.43.55.55,0,0,1,.44-.14h2.3a3.47,3.47,0,0,1,.85.1,2.39,2.39,0,0,1,.69.31,1.65,1.65,0,0,1,.45.53,1.82,1.82,0,0,1,.16.8,1.42,1.42,0,0,1-.22.8,1.48,1.48,0,0,1-.56.55Zm-.16,1.64a1.12,1.12,0,0,0-.3-.78,1.19,1.19,0,0,0-.88-.31H51.55V113h1.63a1.7,1.7,0,0,0,.59-.1,1,1,0,0,0,.55-.63,1.09,1.09,0,0,0,0-.36m-2.83-2.09h1.9a.85.85,0,0,0,.31-.13.75.75,0,0,0,.22-.25A.84.84,0,0,0,54,109a.72.72,0,0,0-.23-.57,1,1,0,0,0-.63-.21H51.54ZM61.81,108a.29.29,0,0,1,0,.13H59.74V114a.28.28,0,0,1-.18,0h-1a.27.27,0,0,1-.06-.17v-5.67h-2a.15.15,0,0,1,0-.13v-.68a.22.22,0,0,1,0-.16h5.24a.22.22,0,0,1,0,.16Zm5.51.86-.87,1.5-2,3.31a1.44,1.44,0,0,1-.27.34.63.63,0,0,1-.38.09h-.41a.56.56,0,0,1-.46-.16.62.62,0,0,1-.11-.44v-6.37a.17.17,0,0,1,.14,0h.83a.2.2,0,0,1,.15,0,.15.15,0,0,1,0,.13v5h0l.83-1.39,2-3.37a1.27,1.27,0,0,1,.27-.34.6.6,0,0,1,.37-.09h.36a.58.58,0,0,1,.45.15.64.64,0,0,1,.13.46v6.18a.17.17,0,0,1,0,.14H67.29v-5.18Zm7.83,5V114a.33.33,0,0,1-.14,0h-.83a.2.2,0,0,1-.15,0v-2.59c-.2,0-.4.06-.6.07h-.65a3.22,3.22,0,0,1-2.15-.6,2.2,2.2,0,0,1-.7-1.76v-2a.22.22,0,0,1,.16,0h.83a.17.17,0,0,1,.14,0,.15.15,0,0,1,0,.13V109a1.32,1.32,0,0,0,.43,1.1,2.22,2.22,0,0,0,1.33.33,5.81,5.81,0,0,0,.59,0,4.85,4.85,0,0,0,.53-.08v-3.27a.19.19,0,0,1,.15,0h.83a.17.17,0,0,1,.14,0v.13Zm6.48-.06a.25.25,0,0,1,0,.17.27.27,0,0,1-.16.06H78.56a2.08,2.08,0,0,1-.86-.15,1.4,1.4,0,0,1-.83-1,3,3,0,0,1-.08-.66v-3.41a2.52,2.52,0,0,1,.09-.67,1.63,1.63,0,0,1,.31-.58,1.53,1.53,0,0,1,.55-.39,1.93,1.93,0,0,1,.82-.15h2.92a.48.48,0,0,1,0,.17V108a.22.22,0,0,1,0,.16h-2.8a.7.7,0,0,0-.53.17.77.77,0,0,0-.16.48v1h3.17a.31.31,0,0,1,0,.19v.54a.28.28,0,0,1,0,.18H78v1.44a.78.78,0,0,0,.17.48.73.73,0,0,0,.53.16h2.87a.61.61,0,0,1,0,.19Zm4.35-.78a3.32,3.32,0,0,0,.83-.11,6.35,6.35,0,0,0,.7-.23h.2a.2.2,0,0,1,.08.12l.26.56a.34.34,0,0,1,0,.2.24.24,0,0,1-.1.1,3.31,3.31,0,0,1-1.1.4,8,8,0,0,1-1.1.1,2.85,2.85,0,0,1-2.27-.88,3.91,3.91,0,0,1-.78-2.62,4.76,4.76,0,0,1,.24-1.5,3.35,3.35,0,0,1,.63-1.1,2.77,2.77,0,0,1,1-.74,3.09,3.09,0,0,1,1.28-.27,7,7,0,0,1,.91.08,3.54,3.54,0,0,1,1,.34.22.22,0,0,1,.11.1.31.31,0,0,1,0,.19l-.28.57a.37.37,0,0,1-.07.14h-.15a4,4,0,0,0-.67-.21,3.38,3.38,0,0,0-.72-.08,1.64,1.64,0,0,0-.86.21,1.76,1.76,0,0,0-.59.56,2.71,2.71,0,0,0-.35.82,3.41,3.41,0,0,0-.11,1,4.7,4.7,0,0,0,.09.92,2.27,2.27,0,0,0,.32.75,1.58,1.58,0,0,0,.61.51,2.07,2.07,0,0,0,.95.19m7.06-2.7a1.82,1.82,0,0,1,.43.19,1.38,1.38,0,0,1,.27.27,1.11,1.11,0,0,1,.18.34,2.23,2.23,0,0,0,.12.41l.62,2.3a.24.24,0,0,1,0,.12.21.21,0,0,1-.15.08h-1a.19.19,0,0,1-.09-.12l-.59-2.2a1.14,1.14,0,0,0-.44-.72,1.64,1.64,0,0,0-.82-.18H90.5v3.17H89.33v-6.88a.15.15,0,0,1,.13,0h.85a.19.19,0,0,1,.15,0v2.71h1.42a1.09,1.09,0,0,0,.34-.13,1.18,1.18,0,0,0,.3-.29,1.55,1.55,0,0,0,.22-.51l.44-1.67c0-.07,0-.11.08-.13h.92c.08,0,.13,0,.15.08a.24.24,0,0,1,0,.12l-.51,1.7a2.34,2.34,0,0,1-.3.73,1.66,1.66,0,0,1-.52.5Zm6.5,2.2H97L96.53,114a.26.26,0,0,1-.08.13.25.25,0,0,1-.17,0h-.91c-.07,0-.12,0-.14-.07a.17.17,0,0,1,0-.14l2.14-6.29a2.44,2.44,0,0,1,.1-.24.4.4,0,0,1,.13-.13.37.37,0,0,1,.18-.08h.66a.75.75,0,0,1,.44.1.78.78,0,0,1,.23.38l2.15,6.28a.17.17,0,0,1,0,.14.21.21,0,0,1-.13.07h-.9a.54.54,0,0,1-.18,0,.24.24,0,0,1-.11-.13Zm-2.2-1h1.91l-.52-1.66-.46-1.52h0l-.4,1.38Zm8.82-.34H104.9a1.53,1.53,0,0,0-.78.19,1.11,1.11,0,0,0-.45.72l-.49,1.83a.18.18,0,0,1-.11.14h-1c-.09,0-.15,0-.16-.07a.33.33,0,0,1,0-.14l.53-2a1.83,1.83,0,0,1,.3-.63,1.28,1.28,0,0,1,.6-.4h0a1.59,1.59,0,0,1-.82-.67,2,2,0,0,1-.25-1.17,2,2,0,0,1,.16-.81,1.79,1.79,0,0,1,.44-.64,2,2,0,0,1,.69-.41,2.8,2.8,0,0,1,.91-.15h2.33a.56.56,0,0,1,.44.14.64.64,0,0,1,.12.43V114h-1.15v-.13Zm-2.61-2a1,1,0,0,0,.26.69,1.16,1.16,0,0,0,.87.29h1.47v-2.06h-1.6a1.11,1.11,0,0,0-.54.1.78.78,0,0,0-.33.24.76.76,0,0,0-.17.32,1.71,1.71,0,0,0,0,.32m14.85,1.17a1.69,1.69,0,0,1,.41.19,1.44,1.44,0,0,1,.28.27,2.21,2.21,0,0,1,.18.34,1.65,1.65,0,0,0,.12.41l.62,2.3a.29.29,0,0,1,0,.13.22.22,0,0,1-.15.07h-1a.16.16,0,0,1-.09-.12l-.59-2.2a1.14,1.14,0,0,0-.44-.72,1.63,1.63,0,0,0-.81-.18h-1.1V114a.38.38,0,0,1-.15,0h-.84a.33.33,0,0,1-.14,0v-6.88a.17.17,0,0,1,.14,0h.86a.15.15,0,0,1,.13,0v2.71h1.42a1,1,0,0,0,.33-.13,1.18,1.18,0,0,0,.3-.29,1.55,1.55,0,0,0,.22-.51l.43-1.67c0-.07,0-.11.09-.12h.92c.09,0,.14,0,.15.07a.24.24,0,0,1,0,.12l-.53,1.8a2.45,2.45,0,0,1-.3.73,1.66,1.66,0,0,1-.52.5Zm8.66.21a4.13,4.13,0,0,1-.76,2.66,3.22,3.22,0,0,1-4.53,0,4.06,4.06,0,0,1-.75-2.66,5,5,0,0,1,.22-1.53,3.46,3.46,0,0,1,.63-1.1,2.64,2.64,0,0,1,1-.7A3,3,0,0,1,124,107a3.09,3.09,0,0,1,1.31.25,2.36,2.36,0,0,1,1,.7,3.32,3.32,0,0,1,.58,1.1,5.31,5.31,0,0,1,.18,1.48m-1.24,0a7.61,7.61,0,0,0-.08-.95,2.49,2.49,0,0,0-.28-.79,1.34,1.34,0,0,0-.53-.55A1.69,1.69,0,0,0,124,108a1.51,1.51,0,0,0-1.34.73,2.12,2.12,0,0,0-.33.77,3.41,3.41,0,0,0-.11,1,6,6,0,0,0,.07,1,2.28,2.28,0,0,0,.3.8,1.58,1.58,0,0,0,.55.51,1.93,1.93,0,0,0,.85.17,1.58,1.58,0,0,0,.85-.21,1.45,1.45,0,0,0,.55-.55,2.21,2.21,0,0,0,.29-.79,4.88,4.88,0,0,0,.09-.93m8.4-1.32h-.07l-.52,1.34-.88,2.21a.81.81,0,0,1-.21.34.54.54,0,0,1-.35.09h-.45a.53.53,0,0,1-.35-.09,1,1,0,0,1-.2-.34l-.87-2.1-.54-1.33h-.06v4.58a.54.54,0,0,1-.18,0h-.71a.49.49,0,0,1-.17,0,.36.36,0,0,1,0-.17v-6a.66.66,0,0,1,.12-.45.54.54,0,0,1,.45-.14h.41a.71.71,0,0,1,.38.08.84.84,0,0,1,.25.37l1.18,2.9L132,112h0l.62-1.54,1.17-2.89a.72.72,0,0,1,.25-.37.78.78,0,0,1,.4-.08h.25a.63.63,0,0,1,.46.13.72.72,0,0,1,.13.45v6.17c0,.08,0,.15-.06.16a.25.25,0,0,1-.17,0h-.71a.22.22,0,0,1-.16,0v-.16Zm8.34,4.62a.17.17,0,0,1,0,.14.43.43,0,0,1-.16,0h-.83a.33.33,0,0,1-.14,0v-5.77h-3.08V114h-1.13v-6.25a.67.67,0,0,1,.16-.51.73.73,0,0,1,.47-.17h4.23c.42,0,.64.22.64.68Zm5.34-1.35h-2.52l-.43,1.35a.2.2,0,0,1-.09.13.25.25,0,0,1-.17,0h-.9c-.08,0-.12,0-.14-.07a.17.17,0,0,1,0-.14l2.08-6.15a1.86,1.86,0,0,1,.1-.25.49.49,0,0,1,.12-.13.67.67,0,0,1,.18-.07h.7a.78.78,0,0,1,.45.09.89.89,0,0,1,.23.38l2.2,6.29a.17.17,0,0,1,0,.14.21.21,0,0,1-.13.06h-.92a.25.25,0,0,1-.17,0,.17.17,0,0,1-.1-.13Zm-2.2-1h1.91l-.52-1.67-.42-1.41h0l-.41,1.38Zm10.58,2.33v.17a.28.28,0,0,1-.18,0h-.75a.28.28,0,0,1-.18,0,.25.25,0,0,1,0-.17v-2.91h-3.09v3.08a.28.28,0,0,1-.18,0h-.93a.3.3,0,0,1-.07-.17V107.3c0-.08,0-.14.07-.16a.22.22,0,0,1,.16,0h.77a.28.28,0,0,1,.18,0v2.72h3.09V107.3a.22.22,0,0,1,0-.16.28.28,0,0,1,.18,0h.75a.28.28,0,0,1,.18,0v6.59Zm6-4.9-.88,1.5-2,3.3a1.35,1.35,0,0,1-.28.35.56.56,0,0,1-.38.08h-.35a.52.52,0,0,1-.46-.15.68.68,0,0,1-.12-.44v-6.35a.17.17,0,0,1,.14,0h1a.19.19,0,0,1,.15,0,.15.15,0,0,1,0,.13v5h0l.81-1.39,2-3.37a1.7,1.7,0,0,1,.26-.34.73.73,0,0,1,.38-.09h.36a.6.6,0,0,1,.46.15.74.74,0,0,1,.12.46v6.18a.17.17,0,0,1,0,.14h-1.12a.17.17,0,0,1,0-.14v-5Z"/><path class="cls-1" d="M169,111.15h-1.19a1.58,1.58,0,0,0-.8.19,1.11,1.11,0,0,0-.45.72l-.49,1.82a.15.15,0,0,1-.11.14h-1c-.08,0-.13,0-.14-.07a.33.33,0,0,1,0-.14l.52-2a2,2,0,0,1,.29-.63,1.26,1.26,0,0,1,.61-.4h0a1.64,1.64,0,0,1-.84-.67,2.12,2.12,0,0,1-.12-1.86,1.7,1.7,0,0,1,.44-.64,2.11,2.11,0,0,1,.69-.41,2.55,2.55,0,0,1,.91-.14h2.33a.53.53,0,0,1,.44.13.64.64,0,0,1,.12.43V114a.38.38,0,0,1-.15,0h-.83a.43.43,0,0,1-.16,0v-.13Zm-2.63-2a1,1,0,0,0,.27.69,1.16,1.16,0,0,0,.87.29h1.46v-2H167.4a1.13,1.13,0,0,0-.54.1.85.85,0,0,0-.33.24.74.74,0,0,0-.16.32.86.86,0,0,0,0,.32"/><path class="cls-1" d="M25.83,92a3,3,0,0,0-2.75-2.73c-2.21,0-3.39,4.14-8.65,4.14s-8.67-4.26-8.67-9.32,3.41-9.27,8.67-9.27c4.18,0,5.68,2.83,7.57,2.83a2.56,2.56,0,0,0,2.59-2.5,2.83,2.83,0,0,0-.88-2c-2.34-2.46-6-3.46-9.28-3.46a14.44,14.44,0,0,0,0,28.87,14.08,14.08,0,0,0,10.82-5,2.21,2.21,0,0,0,.59-1.5"/><path class="cls-1" d="M48.14,86.54H36.67A2.58,2.58,0,0,1,34.07,84v0a2.63,2.63,0,0,1,2.6-2.64H48.09a8.45,8.45,0,0,0-8.34-6.55c-4.18,0-5.68,2.84-7.56,2.84a2.55,2.55,0,0,1-2.59-2.51,2.77,2.77,0,0,1,.87-2,12.82,12.82,0,0,1,9.27-3.46,14.43,14.43,0,1,1,0,28.86,14.07,14.07,0,0,1-10.82-5,2.25,2.25,0,0,1-.58-1.5,2.94,2.94,0,0,1,2.76-2.76c2.26,0,3.38,4.14,8.64,4.14a8.49,8.49,0,0,0,8.39-6.82"/><path class="cls-1" d="M81.07,95.69a2.58,2.58,0,0,1-4.93,1.11l-7.8-18.68L60.62,96.77a2.5,2.5,0,0,1-2.39,1.51,2.66,2.66,0,0,1-2.54-2.63,2.92,2.92,0,0,1,.2-1.05L66,71.26a2.6,2.6,0,0,1,4.72,0L80.86,94.6a2.47,2.47,0,0,1,.26,1.1"/><path class="cls-1" d="M107.81,90.05a7,7,0,0,0-5.18-7,6.74,6.74,0,0,0,3.72-6.18c0-4-3.31-6.77-9-6.77H87.72A2.73,2.73,0,0,0,85,72.81V95.14a2.78,2.78,0,0,0,2.74,2.8h10c6.42,0,10.14-3.46,10.14-7.89m-7-12.13a2.73,2.73,0,0,1-2.64,2.81H90.57V75.2h7.3a2.63,2.63,0,0,1,2.94,2.29,2.42,2.42,0,0,1,0,.38m1.42,11.37a3.51,3.51,0,0,1-3.46,3.57,2.36,2.36,0,0,1-.38,0H90.57v-7h7.89a3.47,3.47,0,0,1,3.78,3.12c0,.11,0,.22,0,.33"/><path class="cls-1" d="M136.22,72.35v23.3a2.68,2.68,0,0,1-2.65,2.63A2.62,2.62,0,0,1,131,95.65V79.53c-8.57,11-13.65,17.8-13.65,17.8a2.57,2.57,0,0,1-1.89,1,2.66,2.66,0,0,1-2.71-2.62h0V72.35a2.62,2.62,0,0,1,5.23,0V88.47l13.62-17.75a2.4,2.4,0,0,1,2-1,2.65,2.65,0,0,1,2.64,2.6"/><path class="cls-1" d="M170.18,95.68V72.38a2.67,2.67,0,0,0-2.63-2.62,2.77,2.77,0,0,0-2.43,1.63L156,90.06,146.8,71.38a2.75,2.75,0,0,0-2.42-1.63,2.59,2.59,0,0,0-2.58,2.59V95.65a2.64,2.64,0,0,0,2.58,2.63A2.67,2.67,0,0,0,147,95.65V83.32l6.76,13.53A2.2,2.2,0,0,0,156,98.27a2.32,2.32,0,0,0,2.2-1.39l6.73-13.57V95.68a2.59,2.59,0,0,0,2.59,2.6,2.65,2.65,0,0,0,2.64-2.6"/><circle class="cls-1" cx="215.25" cy="22.62" r="8.47"/><path class="cls-1" d="M221.65,56.61l.23-.27.25-.34.23-.35.19-.3.23-.43.13-.27a4.4,4.4,0,0,0,.21-.5l.09-.23c.07-.17.12-.36.18-.55l.06-.24a3.61,3.61,0,0,1,.12-.55.72.72,0,0,0,0-.3,1.73,1.73,0,0,1,.06-.51c.06-.17,0-.25,0-.37V50.12a.82.82,0,0,0-.06-.38c0-.12,0-.31-.07-.46s0-.2-.08-.3a2,2,0,0,1-.14-.53l-.08-.22c-.07-.2-.14-.38-.22-.57l-.09-.19a6.19,6.19,0,0,0-.3-.57v-.06l-.1-.14c-.09-.17-.21-.33-.32-.5L222,46l-.31-.39-.26-.27-.3-.31-.3-.27-.33-.27-.3-.22-.4-.27-.26-.15-.48-.26-.21-.1-.55-.25-.17-.06-.6-.19h-.19l-.6-.13h-.23l-.57-.07h-2l-.51.09-.25.07-.56.15-.19.07-.61.23-.16.07-.6.3h0l-.15.1-.47.3-.26.19-.37.29-.27.25-.33.31-.24.27-.29.34-.22.29-.26.38-.18.29c-.07.14-.15.28-.23.41l-.14.31c-.07.14-.13.3-.2.44l-.12.32a1.68,1.68,0,0,1-.16.46v.11a11.91,11.91,0,0,1-14.33,8.29h-.11a6.66,6.66,0,0,0-.8-.16h-.25a7.52,7.52,0,0,0-2,0h-.18a7.34,7.34,0,0,0-.84.17h-.1a11.93,11.93,0,0,1-14.34-8.28h0a8.12,8.12,0,0,0-.79-1.9l-.08-.13q-.23-.37-.48-.72l-.11-.16a9.29,9.29,0,0,0-.65-.74h0a11.93,11.93,0,0,1,0-16.55,9.28,9.28,0,0,0,.71-.82l.12-.17a7.29,7.29,0,0,0,.49-.74l.08-.13a8,8,0,0,0,.45-.93v-.09c.11-.29.21-.57.29-.86v-.12a11.92,11.92,0,0,1,14.33-8.17h.07l.65.14h.22l.57.06h1.9l.56-.1h.21l.58-.16.19-.07.59-.23.19-.09.53-.27h.07l.15-.1.47-.3.3-.22.33-.27.34-.3.24-.25.33-.36.21-.26.29-.38.2-.3.22-.36.2-.37.16-.33c.07-.14.13-.28.19-.43l.11-.31a2.53,2.53,0,0,1,.15-.47c.05-.17.06-.22.09-.33a4,4,0,0,0,.1-.46,1.25,1.25,0,0,1,.06-.4,1.13,1.13,0,0,0,0-.41V7.56a1.32,1.32,0,0,0-.08-.51c-.08-.18,0-.22-.06-.33a3.83,3.83,0,0,1-.11-.43,2.34,2.34,0,0,0-.11-.4,2.53,2.53,0,0,0-.12-.33c0-.11-.11-.31-.18-.47l-.13-.26c-.07-.17-.16-.33-.25-.5V4.26l-.12-.19c-.09-.14-.18-.29-.28-.43l-.24-.33-.24-.3-.33-.36-.21-.22-.4-.37-.22-.17-.42-.31-.25-.18L194.82,1,194.5.85l-.38-.16-.4-.16L193.37.4l-.43-.15-.36-.08-.43-.1L191.74,0h-2.06l-.51.08-.33.05-.43.11-.4.11-.35.14-.44.17-.3.14L186.5,1h-.09l-.22.14-.38.24-.29.22-.36.29-.26.23-.35.34-.2.22-.35.41-.14.2a5.34,5.34,0,0,0-.35.48l-.1.16c-.11.19-.22.37-.32.56l-.06.13c-.1.21-.2.42-.28.63v.11a7,7,0,0,0-.22.69h0a11.83,11.83,0,0,1-5.51,7,11.84,11.84,0,0,1-8.77,1.26H168l-.65-.13h-.3a8.46,8.46,0,0,0-9.44,7.34,9.42,9.42,0,0,0-.06,1.06,6,6,0,0,0,0,.85v.27a1.6,1.6,0,0,0,.07.53,5.43,5.43,0,0,1,.16.61c0,.2,0,.12,0,.19a5.49,5.49,0,0,0,.24.68v.08c.1.23.21.46.32.68v.06c.12.22.24.43.38.64v.06c.14.21.28.41.44.61V28a5.6,5.6,0,0,0,.56.63A11.93,11.93,0,0,1,159.85,45l-.06.07c-.22.22-.44.46-.64.7l-.21.28c-.15.21-.3.43-.44.65l-.1.15V47c-.07.14-.14.27-.2.41a2.76,2.76,0,0,0-.17.35c0,.13-.1.26-.14.39l-.16.41c0,.13,0,.22-.09.32s-.08.33-.13.49a.59.59,0,0,0,0,.27c0,.09-.06.37-.09.57a1,1,0,0,0,0,.26v1.79a.87.87,0,0,0,.07.41,1.73,1.73,0,0,1,.1.45c0,.15,0,.22.09.33a1.59,1.59,0,0,1,.15.48l.11.31c.06.15.12.3.19.44l.15.32.21.37.21.36.21.3.28.38.21.25.33.37.23.23.35.33.29.23L161,58l.38.24.23.15h.1l.39.2.34.17.44.17.32.12.47.14.32.07.49.09h2.84l.5-.1h.16a11.91,11.91,0,0,1,14.34,8.14v.12a6.46,6.46,0,0,0,.31.94h0a7.71,7.71,0,0,0,.49,1h0l.08.11c.11.19.23.37.35.54l.17.22.34.42.23.26.32.33.29.26.32.28.32.24.35.24.32.2.4.22.32.16.44.18.32.13.45.14.36.09.42.09.44.06h2l.59-.09h.25l.51-.13.32-.09.42-.15.37-.15.36-.17.4-.2h.11l.28-.18.31-.2.38-.28.27-.21.35-.32.24-.24.3-.33.25-.3.24-.31.25-.36.18-.29.24-.44.13-.27c.08-.16.15-.32.22-.49l.1-.27a4,4,0,0,0,.17-.52v-.1a11.91,11.91,0,0,1,14.33-8.28h.2l.44.09.39.06h2.44l.54-.1.25-.07.55-.15L218,59l.52-.2.28-.13.44-.22h.08l.22-.15.4-.25.33-.25.31-.25.34-.31.26-.25Z"/></g></g></g></svg>