<svg xmlns="http://www.w3.org/2000/svg" viewBox="0 0 56 56"><defs><style>.cls-1,.cls-3{fill:#8d0d57;}.cls-2{fill:#fff;}.cls-3{fill-rule:evenodd;}</style></defs><g id="Layer_2" data-name="Layer 2"><g id="Layer_1-2" data-name="Layer 1"><circle class="cls-1" cx="28" cy="28" r="28"/><path class="cls-2" d="M8,28A20,20,0,1,1,28,48,20,20,0,0,1,8,28Z"/><path class="cls-3" d="M27.59,8C27.5,16.23,27,20.84,23.9,23.9S16.23,27.5,8,27.59v1.2c8.23.1,12.84.63,15.9,3.7S27.48,40,27.59,48h1.2c.11-8,.68-12.5,3.7-15.51S40,28.9,48,28.79v-1.2c-8-.11-12.5-.68-15.51-3.69s-3.6-7.67-3.7-15.9Z"/></g></g></svg>